<svg xmlns="http://www.w3.org/2000/svg" data-v-3acb27dc="" class="sketchy-canvas visible" width="1435" height="633"
     stroke-linecap="round">
    <defs>
        <clipPath id="ygc188_21_0">
            <rect x="25" y="25" width="1385" height="582.5" transform="matrix(1, 0, 0, 1, 0, 0)"/>
        </clipPath>
    </defs>
    <g>
        <path d="M366.43476804150566 332.21301686680005 M365.6570406386854 331.17353276317056 C392.21185994260503 332.16079643865174, 423.0884170345848 333.92431751085167, 456.98556010271733 334.09068397152186"
              stroke="rgb(102, 102, 102)" stroke-width="1" fill="none"/>
    </g>
    <g>
        <path d="M359.5565945367271 334.275911165783 L369.06908636843474 329.0898051917948 L369.1386329945132 334.9664566041851 L368.66928408193235 336.9288023834137 L364.19630855426146 334.51018061637524"
              stroke="none" stroke-width="0" fill="rgb(102, 102, 102)"/>
        <path d="M359.7990232651292 335.9564619903421 M362.5973411011249 334.75657367455733 C364.9268848784585 332.3178819306997, 367.046368727739 332.16592985704915, 371.5050455133486 329.73650525085463 M372.5124829444854 328.4283716122628 C369.928070016687 330.5767426048484, 369.5412629088344 331.8317205977968, 366.7796799615374 333.1092772046371 M366.5847146111759 333.33777342479993 C367.62977226228065 335.0457582497602, 367.9901619798013 335.742603714347, 372.2111378671429 338.29902206197477 M370.6245702932816 338.7206158979319 C370.10552835143494 338.8999291556771, 367.42045158975105 338.115801511127, 361.8827840353843 333.44640607136296"
              stroke="rgb(102, 102, 102)" stroke-width="1" fill="none"/>
    </g>
    <g>
        <path d="M365.62312414795326 442.0476301474914 M368.6819738233016 440.3320393134523 C411.7310196742859 442.1261556109213, 458.2659001789116 445.3411582582016, 591.7673388418037 437.0049778175924 M593.317799008089 442.4183478573416 C589.5930905461538 418.23559641900323, 592.4199377524395 400.93874177314024, 592.2636657977172 385.24677291467214 M590.4674616500487 382.07111524058655 C722.8412965189236 379.4139802955023, 856.5322741002478 380.8095108782682, 1202.1945475293708 383.0642668295046 M1201.6751492543908 384.34224853012716 C1199.5571723988262 391.4417189139753, 1203.940221444243 395.6277697954259, 1200.0068155731246 415.21701775670465"
              stroke="rgb(102, 102, 102)" stroke-width="1" fill="none"/>
    </g>
    <g>
        <path d="M359.6786317501719 442.29272556780086 L369.3796898406351 434.6947201991837 L369.2555379853327 442.0954564623695 L370.18438167656615 446.10088484533196 L362.5823919241609 437.60900548222054"
              stroke="none" stroke-width="0" fill="rgb(102, 102, 102)"/>
        <path d="M360.90898413125683 437.1063336031596 M360.97648663125295 440.0362039859981 C363.2997212500226 439.12696462528885, 364.8281157112893 436.9825451044836, 370.31743208267216 434.8105151603424 M371.7796991698665 434.35929668820086 C370.858546927035 436.02079481159365, 368.5458102733794 438.5320428318525, 365.5398066873371 439.54487993475084 M365.4644894677349 439.4099849465184 C367.4431181362958 441.0738995301958, 369.09102820554074 442.37202120176124, 370.88993648959763 443.9411613496548 M371.2534076586931 445.0108367365727 C370.38331431182775 444.3598913015247, 367.31930323785485 443.9442563758201, 362.3169235083883 438.6123896566893"
              stroke="rgb(102, 102, 102)" stroke-width="1" fill="none"/>
    </g>
    <g>
        <path d="M593.0948324827095 129.52030402187205 M595.7288339149198 130.82828041879728 C594.0597066561749 155.3693533206408, 593.4636809519773 175.00595424033756, 597.2489613118357 194.4339627043241"
              stroke="rgb(208, 208, 208)" stroke-width="1" fill="none"/>
    </g>
    <g>
        <path d="M594.6843689711691 201.43954130069645 L591.3186668187305 190.2096881020016 L597.0271130943771 194.87085098078583 L599.0451435818991 190.77105953638588 L593.4760624192066 200.85597466911616"
              stroke="none" stroke-width="0" fill="rgb(208, 208, 208)"/>
        <path d="M594.852057809032 203.7560299029296 M593.4391100235749 202.6924520742502 C591.8944465947394 197.68375582858218, 591.3724213218991 194.56654023589675, 590.1551580439548 191.75346972515217 M594.0312426197786 201.6023556456164 C592.2271179844323 198.03517568797938, 590.3990304997116 193.3735175570966, 589.5701499190847 190.90833074309458 M590.2435506310269 191.69071500598173 C590.1847240198307 192.32816979936302, 593.5598227793122 194.5467787699738, 594.0714602606129 196.36493109403722 M589.035088886265 191.25572592095813 C591.4767490580574 193.57502100769102, 593.1306908718838 195.11193177681284, 594.0363981339345 196.02786819489444 M594.4213859024969 195.53112749455403 C596.1230229356744 195.94312657713934, 597.6906525753058 193.22967490694015, 599.949605897422 191.9653154658356 M594.410730156998 196.6830041739758 C595.76525168404 194.9214431871178, 598.569189344742 192.9392342945316, 599.7580678973878 192.00316836497936 M598.5320496719038 193.17717246753205 C595.7681191502428 193.16959565752828, 596.6279618968241 196.32369899521936, 593.2913724472584 202.22855741879664 M599.6717193768756 191.91930732519495 C597.3628282095402 195.73121260723565, 594.956455226916 199.27490793934248, 593.8607226411306 201.33423238453275"
              stroke="rgb(208, 208, 208)" stroke-width="0.9999999986030446" fill="none"/>
    </g>
    <g>
        <path d="M594.3622546955875 127.26278051008138 L600.3159297504321 134.83597191583036 L597.298818392745 131.37371357735043 L588.449285811349 138.5973223947936 L596.9227537999728 126.12457256179968"
              stroke="none" stroke-width="0" fill="rgb(208, 208, 208)"/>
        <path d="M593.6436814196906 129.34258419752845 M595.4417621418798 125.9413444470554 C597.8400322721599 131.55421292134338, 599.0931299130597 132.70562742231334, 600.7672678613619 135.89036822341083 M600.1908636279625 137.34972705936175 C597.8265424676686 136.47650665766946, 596.1595102437872 134.2990127928468, 595.1342186029037 132.24829707500473 M595.0817652784999 132.49248001215577 C593.5118124271597 135.23794752598468, 592.0430671313022 135.3594828583555, 588.8987881467184 136.99358712311079 M590.6300558718419 138.13537749692273 C592.2026728795023 134.02365990182693, 591.2135339789369 132.02949832389487, 595.1210354081672 128.81603347982622"
              stroke="rgb(208, 208, 208)" stroke-width="0.9999999986030446" fill="none"/>
    </g>
    <g>
        <path d="M591.0042888809859 259.20903893261413 M593.6427002639772 262.3655348089061 C594.1011397299891 275.85098717358125, 594.2353836682001 295.3038736548462, 595.712233733917 304.11513178166786"
              stroke="rgb(208, 208, 208)" stroke-width="1" fill="none"/>
    </g>
    <g>
        <path d="M594.8855652836071 304.97997812226475 L589.068644053864 297.7500205385376 L594.0511074339272 299.52625381841506 L601.4545438773736 298.2956002331377 L595.4507363025896 307.76709170438204"
              stroke="none" stroke-width="0" fill="rgb(208, 208, 208)"/>
        <path d="M592.6272235082507 308.2605148218507 M593.2397141624378 306.1488864387129 C591.2098482296545 303.8465319573608, 591.5184225267436 301.07295641462804, 590.6348451176203 298.1712388313383 M589.7710491707937 297.1235795165346 C590.7879135547716 298.30871558463025, 592.8766976118701 300.012150096212, 593.5612992818463 302.6379002739174 M594.0510376258322 301.7144911507888 C595.1696117526614 299.9934644363384, 595.8997093889575 298.66095109699717, 598.7710023535279 296.50656175263134 M599.8879457896119 298.5116088891491 C598.7459370190234 301.0837260311589, 597.0146599492139 303.7978337057312, 593.1267220293096 306.6708078973844"
              stroke="rgb(208, 208, 208)" stroke-width="1" fill="none"/>
    </g>
    <g>
        <path d="M591.8927674426416 253.9060915421529 L597.1868775351023 262.89288392454966 L596.5604949870216 259.0853416650232 L588.5404726537398 268.2533477648144 L592.4014446077798 255.23535084053782"
              stroke="none" stroke-width="0" fill="rgb(208, 208, 208)"/>
        <path d="M594.5647259707412 254.23522071962998 M594.1624904971519 255.77616746381173 C595.6256329018909 259.0750484216595, 594.2772093998998 259.2333119337583, 597.9380194425862 267.1635848773566 M594.522513660399 256.3204722469845 C595.3922152804264 259.77982429945814, 597.8601933795948 263.18962941364185, 598.5493972726844 264.96551619090013 M599.3169805804334 265.32784707812795 C598.2389049042484 264.40661795561476, 596.5480556738887 261.7572306293159, 594.1854358351846 261.53237686084947 M598.5153034423917 265.76191235973073 C597.4405191297017 264.3445958817147, 595.3696874261974 261.9585151650342, 593.8333414293437 260.6564673683399 M594.4329217864238 261.06322204536815 C594.0241995163701 261.24643528898235, 591.1838464403642 262.8378277662396, 589.6495027690784 265.3243578775557 M593.8682863300222 260.79873713864725 C593.008617458241 262.08866519267656, 591.1605575720489 263.8439700732079, 589.2547619832138 265.81108087699135 M588.2521571536162 266.78541891921213 C592.0191363688106 261.85689783133773, 592.6854032190323 260.40652543669773, 594.0475127799104 256.60939293036756 M588.8217524290848 264.7298467419366 C591.1686240091818 263.0306614339811, 591.4614548477732 258.44053787200477, 594.5576175098329 255.14969699154548"
              stroke="rgb(208, 208, 208)" stroke-width="1" fill="none"/>
    </g>
    <g>
        <path d="M1340.3002267316574 227.1709339649105 M1340.2032655465002 227.2534876011443 C1349.3084534500317 230.89248781338256, 1359.411618831963 229.7597311155145, 1375.8043532673732 230.2123266250829 M1376.4584484691186 229.76342133798903 C1382.4440196604867 313.8940222987395, 1378.7175563584058 392.93217843336356, 1376.6259985408385 438.0698427436205 M1373.9814033959856 438.88039312393386 C1366.5150070179056 439.2783582803719, 1358.2396268887194 437.5753068632014, 1346.6346968983341 440.5679982638226"
              stroke="rgb(208, 208, 208)" stroke-width="1" fill="none"/>
    </g>
    <g>
        <path d="M1340.4631690632616 439.20813946702884 L1350.556453219764 434.7521711546052 L1347.70883754244 439.35681533701444 L1347.9219829777649 447.3704046480284 L1338.1362408814846 441.1350617304386"
              stroke="none" stroke-width="0" fill="rgb(208, 208, 208)"/>
        <path d="M1341.186183523895 441.93823396882385 M1340.296098867791 438.5718885520676 C1345.1743222754505 436.6009987354602, 1347.549498405382 436.4756520521501, 1348.6391623748466 434.4101485422066 M1340.1865430996556 439.0804973095147 C1343.0945200661793 438.0655484927668, 1346.7891571253995 435.52531093429286, 1349.9271234962584 434.1763984826769 M1349.9792550613981 433.52924752538337 C1347.8010310536172 436.48939890463754, 1346.8448866413958 437.5521122562429, 1344.5117778317215 439.33386892377615 M1349.8261067885992 434.14783184710154 C1348.7716111353573 435.86525942669545, 1347.1093138408276 437.3022783377054, 1345.1191032487586 439.4697515298776 M1344.8214713197783 439.3967505500908 C1345.9232383220765 440.5643625814998, 1348.7349295802921 442.6433965059622, 1348.9936421709365 444.6189770380974 M1344.6692014168975 439.7682093143647 C1345.9880298461403 441.06434694732786, 1347.5569679905977 441.55843335816587, 1349.7013385269881 444.95102182638055 M1350.6082851557928 444.8304501969268 C1349.3690964060902 442.12850909597756, 1347.2125923484314 442.1941374915684, 1340.57196167618 439.92121909810044 M1350.752903758375 443.6744735253363 C1346.7015333268296 443.0413597653932, 1341.9066625481016 440.52140274167647, 1340.2611007885423 440.0880794103987"
              stroke="rgb(208, 208, 208)" stroke-width="1" fill="none"/>
    </g>
    <g>
        <path d="M896.7114241700397 133.75267087398234 M897.5177401635071 131.75663678275714 C901.4248464040359 153.66598114336483, 898.6383370808344 177.2177539993428, 895.4006934235051 194.28835928882327"
              stroke="rgb(208, 208, 208)" stroke-width="1" fill="none"/>
    </g>
    <g>
        <path d="M899.7186673918334 203.5890230246267 L891.725552950198 192.76786124736353 L900.6517688774072 198.65988153979077 L904.9338710204668 189.64595368587092 L896.7890400142953 202.74353462121385"
              stroke="none" stroke-width="0" fill="rgb(208, 208, 208)"/>
        <path d="M896.6141658772892 203.08709612664327 M898.0308649548284 201.27924788727003 C895.7121795021902 199.3621275542195, 895.0361581694414 196.62380704339628, 891.7210633854653 192.14246442289345 M892.6195992728512 192.49084333953465 C895.8117098830492 192.22319560676777, 897.1456298381275 194.3780634721571, 898.4312636113594 196.68856081732378 M897.9210194707017 197.41665559786384 C899.9685748499561 194.62230360029992, 901.6463719308716 193.4223612911894, 903.4284809677692 190.6797463853134 M903.2426128337252 191.36432563059725 C903.2769412687973 196.14811260355583, 900.6042097163839 199.33683374369792, 896.8180135804788 201.33686739884624"
              stroke="rgb(208, 208, 208)" stroke-width="0.9999999986030446" fill="none"/>
    </g>
    <g>
        <path d="M899.1071536467123 124.90502971530972 L901.3879859050566 139.3444532171721 L897.034306998024 133.9450993183083 L895.9037438460631 139.44225449651216 L901.1766147451051 125.4060142530453"
              stroke="none" stroke-width="0" fill="rgb(208, 208, 208)"/>
        <path d="M897.0752962912416 128.0876646249614 M899.8395619431723 126.49937602162002 C900.5155277542738 130.00862592409334, 900.5676197996698 132.82775976661534, 902.562513875387 138.05823754975887 M903.3616772846045 137.9780450995251 C900.8994476569075 135.71884473973608, 900.1565598951203 134.43824095885267, 898.7315244017353 131.96438183623448 M898.2641698685183 131.85216730618598 C896.9239090152514 134.21002783694894, 896.9329732425247 136.4049999474693, 893.6515848780786 136.4091970598428 M893.7574256248455 135.90245068401103 C895.3565143361977 134.69210139926196, 897.7015306736791 130.75371384936665, 898.9583576960223 129.14608148005874"
              stroke="rgb(208, 208, 208)" stroke-width="0.9999999986030446" fill="none"/>
    </g>
    <g>
        <path d="M1205.427654479901 131.86883348224274 M1199.9571701694474 134.96625465587766 C1203.874040268074 146.24742311355686, 1198.841973955985 163.89256131312652, 1202.5379822071927 198.49767598459405"
              stroke="rgb(208, 208, 208)" stroke-width="1" fill="none"/>
    </g>
    <g>
        <path d="M1202.0278140101464 204.45310942848482 L1198.7754825752515 189.6430955472237 L1200.177381934671 197.85807968660018 L1205.3719570029834 191.3960903680606 L1201.9910547848444 200.21783763639263"
              stroke="none" stroke-width="0" fill="rgb(208, 208, 208)"/>
        <path d="M1203.5070393260123 203.429771219901 M1202.832928663118 202.39825890146918 C1202.492831902924 197.63709662963862, 1200.9002160014277 196.15038971573966, 1196.963923053099 191.17417066728845 M1198.023427801403 191.68797679283918 C1197.7773971261236 193.17364439499048, 1199.2505910771479 194.15251266847147, 1202.4675080662864 196.89793033616405 M1201.6522280531046 197.4715049863081 C1205.0647752405728 195.1848169627206, 1206.3572064336663 192.88574032102642, 1206.4294599573702 190.53010398047437 M1208.662369582877 190.83186442983566 C1206.5957469893724 192.22718500093941, 1206.0252671132841 196.1993369157945, 1203.774675651937 200.00315840031888"
              stroke="rgb(208, 208, 208)" stroke-width="0.9999999986030446" fill="none"/>
    </g>
    <g>
        <path d="M1200.48904461979 128.19946287535478 L1208.1283757544143 135.4007486285421 L1203.3197867372478 135.33792006855344 L1196.5448297491032 135.9209873589374 L1202.1633112517904 129.58490099287258"
              stroke="none" stroke-width="0" fill="rgb(208, 208, 208)"/>
        <path d="M1201.5481560261976 130.36594687927553 M1203.0330738154307 127.95218579961919 C1205.1117210582088 130.21216640543662, 1206.0499854274085 135.79043717481647, 1207.1852362136867 136.56402152070115 M1208.1273936046261 138.5361826062733 C1206.6495635234714 135.832889049995, 1205.1774295670473 134.2359889908651, 1202.1558757431974 132.10553663656805 M1202.6314280614192 133.23974208123263 C1201.4605462418845 132.80175285411096, 1200.8794729324352 134.69557929950165, 1198.295056461689 137.85830496240197 M1199.2609537686355 136.55028669970443 C1197.9762873550937 134.72995101997938, 1198.9993806327093 131.24163860833255, 1201.500851958288 126.119726118024"
              stroke="rgb(208, 208, 208)" stroke-width="0.9999999986030446" fill="none"/>
    </g>
    <g>
        <path d="M729.252574432243 227.79844057179153 M732.5704250380956 230.94024029917176 C739.6499201422935 230.45045701452193, 743.373947583526 229.4244155730102, 757.1728941759392 230.44420332958157 M730.8891644709042 229.56565646256777 C737.553812559956 228.51212734502477, 743.1194827389813 227.70492805555554, 755.2229476791122 227.99293625317753"
              stroke="rgb(208, 208, 208)" stroke-width="1" fill="none"/>
    </g>
    <g>
        <path d="M757.907805480201 230.05899255205088 L750.2169749081098 231.04278786415355 L754.7306926547196 225.8261341244881 L749.9885682913666 225.91040097294734 L758.3491040102385 225.50267120978512"
              stroke="none" stroke-width="0" fill="rgb(208, 208, 208)"/>
        <path d="M760.9851930019823 227.21684079589463 M761.3878573871966 229.74656038660953 C758.6984074327979 228.4597743908805, 754.8022715962506 228.8146288485094, 750.0554956283214 232.5992588114725 M759.4490341087114 228.16786849815477 C757.9949074184078 230.01871092842305, 754.8882859027324 231.55915790324272, 749.980758780274 234.05599266496978 M749.669741427251 233.69628676184436 C750.8187886050678 232.29893371925877, 754.4335212023283 230.78694452525656, 755.5708167565331 228.70727938972624 M750.4114884752745 233.90444126916742 C751.4587351346994 231.96323008816108, 751.9416555685546 231.2756435650356, 755.1137805265337 228.0783677086677 M755.9259638172997 229.4029314008096 C754.2812866902415 225.6576867003505, 751.996037075817 225.25714259135628, 750.9238528787923 224.0034010049379 M755.4922287643366 228.05328934565526 C753.1130177744313 226.58789245305744, 751.993594624211 225.76171719475082, 750.1095434160362 223.50129344425395 M749.3664550853124 223.76418257201527 C755.3262796129073 226.74714986414924, 755.7639185783339 225.84416848863145, 760.617976317495 227.05992465344153 M749.2363002155485 222.70212280664836 C754.6930335159683 225.01766534691822, 758.5188750926458 228.0884782355378, 759.6933227328623 229.03931556160188"
              stroke="rgb(208, 208, 208)" stroke-width="1" fill="none"/>
    </g>
    <g>
        <path d="M514.887290317615 252.15349474358047 M512.3933605179227 255.77291988520275 C487.49533829918136 263.01218489674244, 467.3487251254947 271.8867672771624, 441.1237278508671 275.39785322172173 M443.1935467145476 278.78449139349385 C439.8203981967181 328.2052402258626, 437.2701362299635 375.5879401548234, 444.26528559025655 500.5221235631213 M445.47050593346654 503.8512164685614 C422.14792294776055 505.5642252258451, 399.10120584270385 515.8287771294627, 373.6134583965017 523.4345830641032"
              stroke="rgb(64, 146, 120)" stroke-width="1" fill="none"/>
    </g>
    <g>
        <path d="M369.8022839811393 526.073898726646 L376.64991864197975 516.7045074536867 L375.2406697175935 523.4348635956584 L378.51961637578984 526.9659080678032 L365.90310573891105 521.7742985479509"
              stroke="none" stroke-width="0" fill="rgb(64, 146, 120)"/>
        <path d="M366.28708913479727 524.3801056111605 M368.32694275880147 523.9305448074817 C369.90381927539516 521.0010517506156, 369.9124930960236 520.266542605494, 374.64947566924184 517.2091966216714 M375.02440612500607 517.0190357070429 C374.1214864243929 517.7708292606587, 373.13545835989925 519.4658745347064, 372.9944390257465 523.2276478155874 M371.99955496143684 521.7279672252545 C374.5900015855053 523.8075226315779, 376.64414106238456 523.9675108412602, 377.55873586288 526.3904251746231 M378.50785402651604 526.1606190948365 C373.1812096628322 525.0640844917931, 368.75218293535283 523.3699958929467, 369.1735365248525 525.2082688346449"
              stroke="rgb(64, 146, 120)" stroke-width="1.0000000006841927" fill="none"/>
    </g>
    <g>
        <path d="M1036.1905621844598 228.49332720143823 M1036.9393358041236 227.88290279517267 C1041.10270071354 229.34545307313496, 1046.5462318474952 226.05572619639713, 1061.7654271986435 228.00570018618274"
              stroke="rgb(208, 208, 208)" stroke-width="1" fill="none"/>
    </g>
    <g>
        <path d="M1061.8041045844607 228.91638636636534 L1051.7276516472866 231.88453624637464 L1061.0569373985252 228.9153114105673 L1054.1765541112557 222.87735695906164 L1063.0053797696353 230.7348557490403"
              stroke="none" stroke-width="0" fill="rgb(208, 208, 208)"/>
        <path d="M1066.3584054618489 231.23618301063433 M1063.8862396133004 229.1424412314625 C1059.8956292259156 229.85840035689458, 1055.9043157398257 231.35281124648523, 1053.0387013087566 234.22805425225113 M1054.2005764333237 234.14133208095134 C1055.14923672309 231.87534883661576, 1056.6487140881966 231.05715288488278, 1058.3270276493092 229.558642284923 M1060.0271095796463 228.7046558110737 C1057.0887803497985 226.30457718972178, 1057.254039406464 226.07103452450897, 1053.700857500218 222.51833102182312 M1055.5543378380385 223.7427467702577 C1054.73127205458 222.8939979179144, 1057.7477386241728 226.09946772643661, 1065.0432837051155 229.10964978661275"
              stroke="rgb(208, 208, 208)" stroke-width="1" fill="none"/>
    </g>
    <g>
        <path d="M897.7854475034557 260.6115252593343 M899.0868997621241 258.6837819328383 C896.2614543586889 293.6431281559379, 897.840018720369 332.4220616974285, 895.7231134009857 404.54622014497295"
              stroke="rgb(208, 208, 208)" stroke-width="1" fill="none"/>
    </g>
    <g>
        <path d="M896.7153647985328 410.3537334386764 L894.7782185441887 401.0950992201926 L896.5132422367487 408.32891728587674 L902.2414827813028 400.27831845108716 L900.7010677504863 414.74176425382745"
              stroke="none" stroke-width="0" fill="rgb(208, 208, 208)"/>
        <path d="M896.5714016418478 415.4731678048328 M897.6773526001407 412.5147933898143 C894.637448166956 409.6573288381607, 893.5750932097591 404.1547051443991, 894.583226266843 403.19428012541954 M894.0312214233852 403.0729812457565 C894.1080095740544 404.2528664452933, 895.6710076197606 404.9781592455827, 898.0570096158933 408.4996377925543 M898.6715170400571 407.6686670567561 C899.8088953694432 405.40999348432143, 902.2805003744292 402.61000949917525, 902.0522555590011 401.5339152493069 M903.1207552747105 401.58327635187146 C901.4291848668244 405.0265391113113, 898.8791720574172 410.5293715520407, 898.8114912312149 413.7846774499808"
              stroke="rgb(208, 208, 208)" stroke-width="1" fill="none"/>
    </g>
    <g>
        <path d="M897.7854432732464 256.17392850056007 L900.5949416916926 267.53165293420807 L895.2574492224313 260.5121002853304 L892.1534717756991 265.32570495190436 L897.0473351517766 256.6691134366437"
              stroke="none" stroke-width="0" fill="rgb(208, 208, 208)"/>
        <path d="M897.1771338392565 257.45517872019377 M899.5193696401535 256.9621609256543 C900.8554058675534 256.52275300091884, 901.405802618115 261.29525585572065, 901.4041433848687 265.4801997136912 M903.1297926971134 265.31292042223777 C902.109530296739 263.4113215630911, 900.7371518245072 262.95965855616026, 898.0777313907408 261.0370947692143 M897.7886398112154 260.6775050105336 C896.2879514808727 261.18325139524745, 895.5347663526617 263.3300971397905, 893.4589829513556 264.7212664933427 M894.3829200861676 265.95452364662066 C894.8837456487316 263.51614124005533, 895.5024992693917 262.1799778649818, 898.6973471062156 255.60963582684883"
              stroke="rgb(208, 208, 208)" stroke-width="1" fill="none"/>
    </g>
    <g>
        <path d="M819.4060019550776 257.3241488066212 M821.7290943589312 253.13814228179046 C794.8037995263692 263.58526232300693, 763.0202269090805 274.36348188818107, 747.3121909551801 278.99488720820585 M749.2216464270476 280.3344292993587 C744.9730695143995 360.27681222295564, 741.4739698723117 447.5288248686275, 749.4692670735567 503.340644306283 M745.1552459717074 502.53509998681494 C733.373598261437 507.10953156796955, 712.109846897298 513.2865346145859, 682.9837061061705 522.1175902948643"
              stroke="rgb(64, 146, 120)" stroke-width="1" fill="none"/>
    </g>
    <g>
        <path d="M678.5310656278642 524.1145489123388 L687.1787447987443 516.8799373042145 L681.2516642430011 522.6943632255606 L691.2653458516828 527.0074446051602 L678.2399524463382 524.7276520652179"
              stroke="none" stroke-width="0" fill="rgb(64, 146, 120)"/>
        <path d="M680.8586138534988 523.2002953979826 M677.1982241392082 524.9100294911696 C679.2612519653172 520.4982403426766, 681.6829563677937 519.0872189145692, 685.5768749266994 515.7346428500439 M687.3846515059599 516.4203885494932 C686.2595139595604 517.6259274635297, 684.5220728372607 519.7596225118466, 683.4433070659392 522.0641429416725 M682.3473388739676 522.496288314918 C685.5870044817124 522.9342449771447, 686.9637143122468 524.8361929519488, 689.3361351360427 525.0467819537876 M689.3459621494758 526.9025241560173 C686.8806338439344 525.79611112344, 683.142793159204 524.8735662672024, 679.7270245729123 524.8494946902432"
              stroke="rgb(64, 146, 120)" stroke-width="1.0000000040109587" fill="none"/>
    </g>
    <g>
        <path d="M1202.2408256544197 262.26810670115503 M1204.026967457871 261.0505425779225 C1202.873336181151 268.76659820266605, 1202.9691503207152 282.75879405444795, 1200.6477450144607 302.25059252991815"
              stroke="rgb(208, 208, 208)" stroke-width="1" fill="none"/>
    </g>
    <g>
        <path d="M1200.147156467698 308.8628592505923 L1198.0049069991887 299.1313706779259 L1199.0528590551812 299.07103605217713 L1208.1341765152702 294.4221276565187 L1200.0274896529143 306.0205904175108"
              stroke="none" stroke-width="0" fill="rgb(208, 208, 208)"/>
        <path d="M1202.4786743924938 304.9205527103032 M1202.6572130019722 307.124548149245 C1199.2009689992462 303.46381632005114, 1197.1065302227123 299.1224695526627, 1195.7088362119555 298.2432380935175 M1201.916066427537 307.8018558445202 C1199.8611502352048 302.83238270254907, 1198.2687304072265 298.75589067519735, 1196.5829019109653 297.5367198249177 M1196.4215947349978 296.5893633530632 C1198.1141580847727 297.26518936166303, 1199.6691628204578 298.81215741349325, 1202.4590750546047 302.6389188047594 M1197.3457716350542 296.794415713981 C1198.9674914918214 298.8566298767275, 1200.9880004986114 300.5454232002343, 1201.6725117705762 301.74766987320487 M1201.9227855510271 302.21612493322266 C1202.8332661704364 301.22929862788214, 1206.2377057366048 298.3416724203878, 1207.9744838299468 297.94312984799353 M1201.7285621431438 302.1311014331729 C1203.3918058811223 299.8220021673554, 1205.8227110634555 297.93810834716743, 1206.7515896843058 296.5976089206727 M1208.3382034991857 297.88677196703344 C1204.7281204735523 298.9625609946177, 1205.4026295504405 304.6091451972709, 1201.493350125713 307.54156354735767 M1207.687907378087 296.90491205241955 C1205.7533383079299 298.3628759452523, 1204.613185899732 301.08114782620714, 1202.6120790942887 306.29255511376465"
              stroke="rgb(208, 208, 208)" stroke-width="1" fill="none"/>
    </g>
    <g>
        <path d="M1200.6253476550444 253.67649701897054 L1204.4787370053596 267.6763565385152 L1200.4920461853108 260.05623345523594 L1199.5565298658364 268.1999986148505 L1204.078067279139 257.23418825426324"
              stroke="none" stroke-width="0" fill="rgb(208, 208, 208)"/>
        <path d="M1203.8364732176274 258.4529517258599 M1201.11525364898 256.6768635146957 C1202.5294670067065 258.9027791235032, 1205.3009283766846 262.2573490463972, 1207.7773062864405 267.0937167772401 M1206.5990445119087 265.8505391290422 C1206.4766114802644 264.6764264160303, 1203.9170857786114 262.60626052924357, 1202.160390178282 261.40343802048136 M1201.8313860398348 259.89028015913823 C1199.3441354899494 262.7795369594236, 1198.4662441770095 263.5627330900849, 1198.0408177240117 265.48714372461905 M1196.6841057240733 263.89665678183263 C1197.4406109414035 262.6868826153415, 1201.8911669080967 255.93736605049472, 1200.8664818514303 255.92099549717207"
              stroke="rgb(208, 208, 208)" stroke-width="1" fill="none"/>
    </g>
    <g>
        <path d="M1125.588033969981 252.85826722828324 M1127.0165386227015 257.20048387284925 C1108.363633308419 260.8480774179285, 1088.07029645352 267.052140697125, 1049.8735146053466 279.18573046060277 M1053.1694322670737 278.9273977744799 C1052.726309805552 359.2871009963396, 1050.132880168211 440.6966163656394, 1051.8496347810626 499.4009568818217 M1049.4011458366476 501.0685548592949 C1026.4537198769817 509.62818195672753, 1003.8059819054163 517.787951964825, 980.7340375414061 521.3854573050355"
              stroke="rgb(64, 146, 120)" stroke-width="1" fill="none"/>
    </g>
    <g>
        <path d="M977.023913597111 525.0744213591091 L986.2997769468925 517.7408219683263 L985.153289766567 520.7722693144268 L987.0174465424744 528.0413109785673 L980.266891106584 521.1036618840157"
              stroke="none" stroke-width="0" fill="rgb(64, 146, 120)"/>
        <path d="M976.3299732389081 520.7834405443017 M978.5994726275834 524.3518829166708 C981.2129728070058 519.9271605479292, 983.3063683261914 517.9664430387791, 984.6897683093099 514.8996995119081 M987.2436776110643 516.0430391049134 C984.6347210830356 517.8609244679711, 984.8674023540217 520.4947907838208, 983.7933570087281 522.7200226604474 M983.0644680240104 522.1743121727424 C984.5516590534086 524.0619800973167, 987.9680594176937 524.2383775779862, 988.9586153159348 524.97792994094 M987.8491742126613 523.5381174100153 C985.868841112128 525.9421946190932, 984.760681506756 524.3907243045435, 979.0878974090002 523.3806711733064"
              stroke="rgb(64, 146, 120)" stroke-width="1.000000005294711" fill="none"/>
    </g>
    <g>
        <path d="M1339.7393806114276 336.6856157748707 M1338.0090365120836 331.8585486482616 C1350.8761104349715 335.42954552218424, 1365.503896742408 332.8414977636304, 1385.2302857369255 336.05024197281335 M1339.8440765942532 334.17784353569016 C1355.9292430210394 334.79947997600834, 1372.9081936566777 336.78452826395926, 1387.4750722179103 332.6871208137432 M1387.8789713451895 336.5700326307655 C1394.4408333809195 392.45814849711513, 1392.3026425928074 449.2897999618268, 1386.352570614649 547.8693753188121 M1386.9596581145208 335.0288922724818 C1389.5813260676491 418.55781496261307, 1389.3038059924452 503.1606372781752, 1386.9444735642376 549.5555859259491 M1389.1610458817934 552.4928814834932 C1374.5224374090146 548.4483282912402, 1359.544779422289 548.7160117917985, 1345.7725725449054 547.7571059671546 M1387.6326475035412 550.3112577702279 C1374.350396589717 549.2802384434352, 1362.0941419372668 549.7059075674358, 1347.3804111507898 549.8036655295923"
              stroke="rgb(64, 146, 120)" stroke-width="1" fill="none"/>
    </g>
    <g>
        <path d="M1345.6016533262339 552.8032410790013 L1355.9731640402324 547.8892375317116 L1347.6580883143363 551.4686774072371 L1355.9777644379378 554.469200907818 L1341.378930761718 552.46685198447"
              stroke="none" stroke-width="0" fill="rgb(64, 146, 120)"/>
        <path d="M1342.9942006405436 550.3190079965584 M1342.851718157075 549.5450410381235 C1345.124176344312 547.5446851463652, 1348.2781304039138 547.3206053096565, 1351.464744433176 544.8602477845507 M1353.9096653906454 543.9607729608045 C1350.9910372280242 547.0477866979317, 1351.5807460410133 548.1888135859283, 1348.7455164654282 550.7580209744988 M1347.7170465032957 550.6957329701208 C1350.0743744595516 552.7440838625151, 1351.5702089613999 554.1068189862015, 1353.384622123737 554.4726493872284 M1353.0139547336266 554.3294716299013 C1350.3312085821126 553.5673632069488, 1347.3476763612682 551.3590876859593, 1343.9713053061823 551.5023084123166"
              stroke="rgb(64, 146, 120)" stroke-width="1" fill="none"/>
    </g>
    <g>
        <path d="M30.051102051843912 257.39421758659915 C151.47042707948341 259.2612952863859, 273.1965774529347 259.9520127810437, 417.2966704178799 259.0513788326565 M417.7858019743319 256.32057182514086 C414.1980207812943 325.28631326147075, 414.44148931539576 394.9742196938808, 414.50541903089453 476.8173304094122 M416.80916553920224 474.19047205132415 C312.59758945288615 473.3199589196186, 204.81280782371135 473.1116677050455, 30.34293486640985 477.32081594243687 M31.640398303031127 473.3029768824644 C32.70846339515165 403.26450366803505, 29.373706682236353 330.1475115673814, 27.65035886432005 256.1693482309959"
              stroke="rgb(0, 0, 0)" stroke-width="1" fill="none"/>
    </g>
    <g class="text-container" transform="matrix(1, 0, 0, 1, 190.155, 262.75)">
        <text font-family="'Arial'" font-size="12px" font-style="normal" font-weight="normal" text-decoration="none"
              text-anchor="start" fill="rgb(0,0,0)" fill-opacity="1" dy="0.9333330790201823em" transform=""
              style="font-style: normal;font-weight: 400;font-size: 12px;font-family: Comic Sans MS, cursive;"
              stroke="none" stroke-width="1px">Service API
        </text>
    </g>
    <g>
        <path d="M96.04744906482534 308.02281924977774 L349.00842236867635 308.6870382207785 L356.1054799890564 309.50791063214274 L356.9050133221938 317.411426496098 L359.5615585190883 348.5416461160259 L358.60965018031436 360.06255840056656 L350.66094136027385 360.02660565455056 L97.44074375681363 360.1529149905058 L90.72140752030258 359.55866052189305 L87.80736340889453 351.41107673037715 L86.73241005328866 318.30603146577107 L88.06915734636183 312.34477640807927 L94.19967423692884 307.04017864691565"
              stroke="none" stroke-width="0" fill="rgb(235, 235, 247)"/>
        <path d="M96.5 308 M96.5 308 C185.6417021083187 306.1218208553523, 273.1491551331036 306.76830162836416, 350.5 308 M350.5 308 C353.5809484445668 309.3564479980061, 359.4110285417049 312.5411845079619, 360.5 318 M360.5 318 C359.57679700482225 324.71483167549434, 363.258684911877 338.37861887078714, 360.5 350 M360.5 350 C362.3792833892761 355.4999763225098, 352.40657012381894 361.79216131528017, 350.5 360 M350.5 360 C294.7982300844868 363.0164867213974, 242.9775179544622 363.6842574583097, 96.5 360 M96.5 360 C90.84910662212572 360.7490588952096, 83.51171771597863 352.1801570861853, 86.5 350 M86.5 350 C90.3111114513764 340.3032186465416, 84.97347618267418 332.2147261439339, 86.5 318 M86.5 318 C85.02130281120259 313.5054354130881, 93.60623436156968 308.51915939148915, 96.5 308 M96.5 308 C96.5 308, 96.5 308, 96.5 308"
              stroke="rgb(102, 102, 102)" stroke-width="1" fill="none"/>
    </g>
    <g class="text-container" transform="matrix(1, 0, 0, 1, 223.992, 322.974)">
        <text font-family="'Arial'" font-size="18px" font-style="normal" font-weight="bold" text-decoration="none"
              text-anchor="middle" fill="rgb(102,102,102)" fill-opacity="1" dy="0.8888888888888888em" transform=""
              style="font-style: normal;font-weight: 700;font-size: 18px;font-family: Comic Sans MS, cursive;"
              stroke="none" stroke-width="1px">Campus
        </text>
    </g>
    <g>
        <path d="M94.67971385982081 416.1455183178323 L348.8311377161442 411.0441781129103 L352.58114857481655 414.004859393679 L362.58815246627506 418.8205822125916 L360.99495600943396 458.3999016386307 L358.67272894552616 465.00061109814965 L352.91189487226177 463.8256131864089 L95.78380229083879 466.06946183315017 L87.91409916803183 464.10844963260246 L86.58547091854179 457.17574055097737 L84.85691775964135 424.10692348089907 L92.33985710268932 418.9427310185124 L97.39099130345068 415.84937819998464"
              stroke="none" stroke-width="0" fill="rgb(235, 235, 247)"/>
        <path d="M96.5 413.5 M96.5 413.5 C165.0296799499817 418.9853517794819, 236.62665081159733 417.42866557472473, 350.5 413.5 M350.5 413.5 C355.81660236968435 415.5876547918774, 361.87710302985795 421.65668513606767, 360.5 423.5 M360.5 423.5 C357.731497136292 434.6067765090143, 362.92222795044916 448.77328004459673, 360.5 455.5 M360.5 455.5 C362.64987022134085 461.1802196322063, 353.64113193973844 465.912975247852, 350.5 465.5 M350.5 465.5 C290.6877659745625 468.6624144754634, 234.46306723043645 465.46861365240045, 96.5 465.5 M96.5 465.5 C89.86601796309391 465.69575629954016, 88.93621738468468 459.82083871481785, 86.5 455.5 M86.5 455.5 C86.4458878327835 444.4392335858994, 88.29654786784369 433.37918034981766, 86.5 423.5 M86.5 423.5 C84.83458637012116 418.0033998905019, 89.49504267516274 413.9162423170161, 96.5 413.5 M96.5 413.5 C96.5 413.5, 96.5 413.5, 96.5 413.5"
              stroke="rgb(102, 102, 102)" stroke-width="1" fill="none"/>
    </g>
    <g class="text-container" transform="matrix(1, 0, 0, 1, 223.983, 428.474)">
        <text font-family="'Arial'" font-size="18px" font-style="normal" font-weight="bold" text-decoration="none"
              text-anchor="middle" fill="rgb(102,102,102)" fill-opacity="1" dy="0.8888888888888888em" transform=""
              style="font-style: normal;font-weight: 700;font-size: 18px;font-family: Comic Sans MS, cursive;"
              stroke="none" stroke-width="1px">Persons
        </text>
    </g>
    <g>
        <path d="M31.05231065432874 30.5154138783903 C565.1672714514009 22.432248631664905, 1099.379803165084 23.133141974223765, 1405.507659373754 29.08433701323143 M1403.734711356073 29.898172687159082 C1406.5134703701242 66.6151657403641, 1405.062018351956 102.96163688858232, 1407.203062700702 149.86951170802837 M1404.994769111226 148.85405715160675 C1096.9291071643445 142.2799999450958, 790.4049000594131 142.27024771632313, 30.608045663801494 148.1293113339776 M32.90721590885906 147.63029048625089 C33.191426975035455 126.91616403095442, 33.963974424961926 100.64212895932988, 31.969247319350217 31.253720785363534"
              stroke="rgb(0, 0, 0)" stroke-width="1" fill="none"/>
    </g>
    <g class="text-container" transform="matrix(1, 0, 0, 1, 681.812, 34)">
        <text font-family="'Arial'" font-size="12px" font-style="normal" font-weight="normal" text-decoration="none"
              text-anchor="start" fill="rgb(0,0,0)" fill-opacity="1" dy="0.9333330790201823em" transform=""
              style="font-style: normal;font-weight: 400;font-size: 12px;font-family: Comic Sans MS, cursive;"
              stroke="none" stroke-width="1px">Presentation
        </text>
    </g>
    <g>
        <path d="M469.58435821877293 73.10538725787383 L723.2233988241214 74.4734934777761 L724.4787683062669 73.0337121212288 L732.8304014261854 81.37313423000109 L730.2115908934458 115.13492263146641 L726.6857536322586 123.01683377305676 L724.3791597538678 124.00184430896942 L469.79893643750336 127.47404422021185 L459.8347398240367 121.02172015628054 L458.5805372067265 116.37157023467172 L460.88796356140074 83.14628703645126 L458.3615995964895 78.58373428103037 L465.4915721691205 74.29331770817572"
              stroke="none" stroke-width="0" fill="rgb(64, 146, 120)"/>
        <path d="M468 74.5 M468 74.5 C550.2650218404669 69.89114267908926, 630.017849331261 69.82644875010747, 722 74.5 M468 74.5 C547.4458858966937 77.47820755662954, 625.3076270741 79.3143836588329, 722 74.5 M722 74.5 C728.6373578231904 73.04394201967219, 733.175428405307 80.23341508884882, 732 84.5 M722 74.5 C730.0901854985815 74.58976783388543, 731.0987674286553 78.3202058767337, 732 84.5 M732 84.5 C731.6979510064459 93.20729487869708, 732.6226850693737 96.96633578137103, 732 116.5 M732 84.5 C730.1343821422313 91.29657803780844, 730.3678993043761 97.72221839279706, 732 116.5 M732 116.5 C734.9409128383127 121.15735338105999, 725.8896956880951 126.90150948359371, 722 126.5 M732 116.5 C728.7725891151471 121.16132096877274, 723.1908833878398 124.07448282420152, 722 126.5 M722 126.5 C658.7604042687628 125.16916529657563, 598.8815528094703 125.51482785735035, 468 126.5 M722 126.5 C640.9522888644619 125.56971818136627, 561.8372964091545 124.58915206196208, 468 126.5 M468 126.5 C463.4511404782577 128.98109744294004, 455.6852422542588 122.78288539480185, 458 116.5 M468 126.5 C464.52944800371426 126.89665282293582, 458.47515745621547 119.71306304401763, 458 116.5 M458 116.5 C455.450765654814 106.2428326374087, 457.06635436816885 95.4832387819595, 458 84.5 M458 116.5 C456.80809480401496 108.22306313884488, 457.83025383665324 101.920876849556, 458 84.5 M458 84.5 C458.5744148081085 77.69246722596372, 462.9103639349603 72.90621989705872, 468 74.5 M458 84.5 C460.96465917936047 80.30317918868383, 461.4174859648289 71.90906449138207, 468 74.5 M468 74.5 C468 74.5, 468 74.5, 468 74.5 M468 74.5 C468 74.5, 468 74.5, 468 74.5"
              stroke="rgb(0, 0, 0)" stroke-width="1" fill="none"/>
    </g>
    <g class="text-container" transform="matrix(1, 0, 0, 1, 589.971, 89.4741)">
        <text font-family="'Arial'" font-size="18px" font-style="normal" font-weight="bold" text-decoration="none"
              text-anchor="middle" fill="rgb(255,255,255)" fill-opacity="1" dy="0.8888888888888888em" transform=""
              style="font-style: normal;font-weight: 700;font-size: 18px;font-family: Comic Sans MS, cursive;"
              stroke="none" stroke-width="1px">UnitsResource
        </text>
    </g>
    <g>
        <path d="M430.7509365417058 157.0766950707465 C773.6715085108742 168.08804504676993, 1116.6754738353727 168.49467137029507, 1404.5620784592147 156.28472591075882 M1405.7400862143058 155.06755262939504 C1410.1915383297296 240.46011951050002, 1409.8055519914637 326.9109025863699, 1405.768064711384 477.8185081529709 M1405.152488547656 475.7449738554475 C1083.809103691402 470.23193050802627, 761.9758248009325 470.1454087309417, 431.2954753740061 475.6556966549501 M432.4577193422019 476.76535854319394 C437.4108585506769 371.35824287792633, 435.57407786213906 266.9727499950766, 429.82507771135744 155.07836389122812"
              stroke="rgb(0, 0, 0)" stroke-width="1" fill="none"/>
    </g>
    <g class="text-container" transform="matrix(1, 0, 0, 1, 891.654, 160.75)">
        <text font-family="'Arial'" font-size="12px" font-style="normal" font-weight="normal" text-decoration="none"
              text-anchor="start" fill="rgb(0,0,0)" fill-opacity="1" dy="0.9333330790201823em" transform=""
              style="font-style: normal;font-weight: 400;font-size: 12px;font-family: Comic Sans MS, cursive;"
              stroke="none" stroke-width="1px">Business
        </text>
    </g>
    <g>
        <path d="M29.73063590648883 484.61670893740126 C316.7525523654804 470.95126986768435, 605.1000251931209 472.8951939470408, 1406.1119109793474 482.7817589283447 M1403.5217999115823 481.92591268674227 C1405.0409837759823 525.1584404981812, 1400.134148290827 571.4282081226834, 1406.0904584657662 602.7838832622641 M1405.4099749343827 602.9421292572283 C1046.0536931365104 617.5802389376009, 688.3355141986796 617.3499771430203, 28.94580196295122 603.6227753624103 M32.401335426145195 602.8726271675966 C32.260033337108055 558.2120985356939, 30.98303338724653 511.5568348686839, 31.32085062027632 484.09000939801973"
              stroke="rgb(0, 0, 0)" stroke-width="1" fill="none"/>
    </g>
    <g class="text-container" transform="matrix(1, 0, 0, 1, 684.152, 487.5)">
        <text font-family="'Arial'" font-size="12px" font-style="normal" font-weight="normal" text-decoration="none"
              text-anchor="start" fill="rgb(0,0,0)" fill-opacity="1" dy="0.9333330790201823em" transform=""
              style="font-style: normal;font-weight: 400;font-size: 12px;font-family: Comic Sans MS, cursive;"
              stroke="none" stroke-width="1px">Persistence
        </text>
    </g>
    <g>
        <path d="M468.25481626387693 310.5192600208742 L723.283599090731 306.19643615447427 L722.1466271116824 310.7361211589244 L730.7648309057939 312.98922522581194 L733.9557600412749 348.8986234806682 L726.8976726891711 354.2180696645448 L722.0363571127516 357.37660698331695 L464.7087820091434 359.0019415297051 L458.6132300238983 355.6196380411212 L456.08227471606443 350.4820876352113 L456.5099370670347 316.2452582329129 L461.01230122335784 309.5749120278759 L465.3748013179483 306.02771244216876"
              stroke="none" stroke-width="0" fill="rgba(86, 198, 139, 0.54)"/>
        <path d="M467 308 M467 308 C543.5827627299278 304.3401764132259, 619.4484221292151 308.9382884774095, 721 308 M721 308 C724.6523619457587 310.6947120608098, 733.4748511353924 312.38164950384095, 731 318 M731 318 C731.0652485414204 325.6841746678869, 734.4425865609674 339.5337103530531, 731 350 M731 350 C729.3253946637591 355.3002904153896, 724.4194104794644 358.98048530417424, 721 360 M721 360 C642.5390562620537 360.1873654627847, 566.4220148188454 357.5717360266565, 467 360 M467 360 C460.04060899536626 362.9721152202537, 454.715604306479 356.7326010599842, 457 350 M457 350 C458.54888158677664 342.69479567407575, 458.53792230306914 334.844655937635, 457 318 M457 318 C459.3955703170129 311.7238325055602, 460.8878390375278 309.6361125672438, 467 308 M467 308 C467 308, 467 308, 467 308"
              stroke="rgb(58, 133, 109)" stroke-width="1" fill="none"/>
    </g>
    <g class="text-container" transform="matrix(1, 0, 0, 1, 594.495, 322.974)">
        <text font-family="'Arial'" font-size="18px" font-style="normal" font-weight="bold" text-decoration="none"
              text-anchor="middle" fill="rgb(58,133,109)" fill-opacity="1" dy="0.8888888888888888em" transform=""
              style="font-style: normal;font-weight: 700;font-size: 18px;font-family: Comic Sans MS, cursive;"
              stroke="none" stroke-width="1px">CampusBF
        </text>
    </g>
    <g>
        <path d="M1076.1079999586793 412.6569409426438 L1330.6336994906799 413.0615242710695 L1331.263586891545 413.20838223772733 L1338.7525724604393 422.2841716622202 L1341.747483796432 453.892894795121 L1335.7602852277305 460.8554447442542 L1331.4201278577737 467.40031503724674 L1077.4082322944487 463.0501081468359 L1070.712605384472 464.0563868044096 L1062.7399724583208 455.4619344299978 L1067.3623832750943 426.04789027535037 L1068.9685610417025 416.76014941014733 L1076.7220522040784 416.18489189835225"
              stroke="none" stroke-width="0" fill="rgba(86, 198, 139, 0.54)"/>
        <path d="M1075 413.5 M1075 413.5 C1159.6784186016216 407.9539190007391, 1242.172042602842 410.4736973861852, 1329 413.5 M1329 413.5 C1334.610269560877 411.1230225376302, 1339.0218987927449 420.56766922498, 1339 423.5 M1339 423.5 C1338.45037475274 432.69553125856, 1339.3646898828129 436.77292541718833, 1339 455.5 M1339 455.5 C1339.708623310757 459.6717795309591, 1335.48751372533 465.49292532512334, 1329 465.5 M1329 465.5 C1230.92326963294 461.26078929643705, 1130.104438331135 460.8740369619459, 1075 465.5 M1075 465.5 C1067.135954535552 463.71608289502615, 1062.6129278292815 461.56714680649236, 1065 455.5 M1065 455.5 C1063.9791208839267 444.4550398054857, 1063.7988083384732 432.6840803313103, 1065 423.5 M1065 423.5 C1062.7064156638921 417.32195654719237, 1069.368813664377 413.51603485796795, 1075 413.5 M1075 413.5 C1075 413.5, 1075 413.5, 1075 413.5"
              stroke="rgb(58, 133, 109)" stroke-width="1" fill="none"/>
    </g>
    <g class="text-container" transform="matrix(1, 0, 0, 1, 1202.49, 428.474)">
        <text font-family="'Arial'" font-size="18px" font-style="normal" font-weight="bold" text-decoration="none"
              text-anchor="middle" fill="rgb(58,133,109)" fill-opacity="1" dy="0.8888888888888888em" transform=""
              style="font-style: normal;font-weight: 700;font-size: 18px;font-family: Comic Sans MS, cursive;"
              stroke="none" stroke-width="1px">PersonsBF
        </text>
    </g>
    <g>
        <path d="M771.7217102577132 73.15567737331544 L1026.5393026080844 71.97577191213895 L1027.930720536766 73.58224308101138 L1034.589645823576 82.27206439252271 L1036.5292243239396 116.39079016257261 L1030.4716134597245 122.44730613612023 L1028.6376656298205 124.62458196537477 L771.4098877936401 127.14104403115199 L767.3706913969672 124.85304720770343 L760.1261054584809 118.63501630664031 L760.0703785138879 84.76772215290569 L768.3171838723473 79.48314878836564 L771.3053207634302 72.81021051393526"
              stroke="none" stroke-width="0" fill="rgb(64, 146, 120)"/>
        <path d="M772 74.5 M772 74.5 C863.2937445586302 75.26236122504957, 956.7936256783987 77.74860133908597, 1026 74.5 M1026 74.5 C1029.608168736846 75.175424543461, 1036.741352391393 77.37623378637672, 1036 84.5 M1036 84.5 C1034.1898866189565 95.6980176552612, 1035.1640140147172 106.83280483114396, 1036 116.5 M1036 116.5 C1038.4286202226367 124.13008279215303, 1030.794506217015 124.86967858078609, 1026 126.5 M1026 126.5 C957.0658046293768 128.97612930855556, 888.734495740478 131.27305179410223, 772 126.5 M772 126.5 C768.9136793040492 126.77655698854424, 759.047773577724 118.9339200838534, 762 116.5 M762 116.5 C759.4866329084313 110.75608415806707, 761.4740847608729 100.12946819625787, 762 84.5 M762 84.5 C764.1574730211146 77.55302757423341, 764.6057273404451 73.9195943793777, 772 74.5 M772 74.5 C772 74.5, 772 74.5, 772 74.5"
              stroke="rgb(0, 0, 0)" stroke-width="1" fill="none"/>
    </g>
    <g class="text-container" transform="matrix(1, 0, 0, 1, 899.468, 89.4741)">
        <text font-family="'Arial'" font-size="18px" font-style="normal" font-weight="bold" text-decoration="none"
              text-anchor="middle" fill="rgb(255,255,255)" fill-opacity="1" dy="0.8888888888888888em" transform=""
              style="font-style: normal;font-weight: 700;font-size: 18px;font-family: Comic Sans MS, cursive;"
              stroke="none" stroke-width="1px">MealsResource
        </text>
    </g>
    <g>
        <path d="M1076.371955994532 72.73228371448734 L1330.3182205502394 76.65707725254859 L1333.0605701548416 75.87671730370303 L1336.7841218195342 80.32973165126026 L1340.2127074177265 116.47562526283622 L1336.2959085524142 122.31754541034273 L1332.9412472343731 123.78856747914183 L1075.1235740262146 128.96969400173901 L1066.7028662516543 124.5694822845485 L1068.094330400748 115.79952648823877 L1065.3830357919285 86.16762910300162 L1071.4402962772433 76.9675527113302 L1073.4961754765322 72.13667063168538"
              stroke="none" stroke-width="0" fill="rgb(64, 146, 120)"/>
        <path d="M1076 74.5 M1076 74.5 C1147.765622018618 76.46472389877019, 1220.224659735795 72.73073971534652, 1330 74.5 M1076 74.5 C1173.86577416961 70.41763646938882, 1272.980592982848 69.89203912373397, 1330 74.5 M1330 74.5 C1335.5680456264777 72.62946535555773, 1338.42137112537 77.18135246228314, 1340 84.5 M1330 74.5 C1336.6651205310302 75.40729402403387, 1337.4529861813896 79.03821182538694, 1340 84.5 M1340 84.5 C1342.8673100512124 95.95238787423519, 1338.0794909110978 105.32046443072527, 1340 116.5 M1340 84.5 C1339.9281852303925 94.56162028933556, 1339.3278596921173 104.52411430916432, 1340 116.5 M1340 116.5 C1337.8626014642389 121.76930969092177, 1331.8282881079408 124.38399704179409, 1330 126.5 M1340 116.5 C1337.7621235273652 120.90628603624747, 1334.9692904956933 126.21620364430873, 1330 126.5 M1330 126.5 C1234.3302892873314 122.46922720750143, 1144.1977305094692 125.86159940585375, 1076 126.5 M1330 126.5 C1252.3498716033512 119.72770585343237, 1174.6198429360425 120.22792452810545, 1076 126.5 M1076 126.5 C1072.2157078761584 128.23206612453762, 1065.4798283818861 121.96418637997192, 1066 116.5 M1076 126.5 C1071.7000672152194 125.71952824062859, 1062.611938125096 121.578724506347, 1066 116.5 M1066 116.5 C1064.3782360791222 105.46426979502981, 1063.8116157388586 90.96768551862469, 1066 84.5 M1066 116.5 C1065.5225025707557 106.18520399544734, 1064.8646025942808 97.44465723280473, 1066 84.5 M1066 84.5 C1067.2809438982977 77.77185269590157, 1068.86570923658 71.67138268624363, 1076 74.5 M1066 84.5 C1065.6641210301832 76.84870829224897, 1069.0128867851874 76.32209749995015, 1076 74.5 M1076 74.5 C1076 74.5, 1076 74.5, 1076 74.5 M1076 74.5 C1076 74.5, 1076 74.5, 1076 74.5"
              stroke="rgb(0, 0, 0)" stroke-width="1" fill="none"/>
    </g>
    <g class="text-container" transform="matrix(1, 0, 0, 1, 1203.48, 89.4741)">
        <text font-family="'Arial'" font-size="18px" font-style="normal" font-weight="bold" text-decoration="none"
              text-anchor="middle" fill="rgb(255,255,255)" fill-opacity="1" dy="0.8888888888888888em" transform=""
              style="font-style: normal;font-weight: 700;font-size: 18px;font-family: Comic Sans MS, cursive;"
              stroke="none" stroke-width="1px">RatingsResource
        </text>
    </g>
    <g>
        <path d="M468.7508994050885 203.84382715595086 L722.5629367098943 205.24237489559312 L724.0474648858814 202.80868011121206 L730.4546558835074 208.45033569619213 L733.1492807415779 246.60065288410573 L727.1309135243895 252.52514250563448 L721.7595365913231 252.10886047164664 L467.64558013689333 252.36604275225298 L462.0752238182384 249.64424361257034 L458.08048504939643 243.42130458396508 L457.1506789945435 213.6564804937036 L461.4059177422203 208.47192796076828 L464.7674021364299 201.47895688272277"
              stroke="none" stroke-width="0" fill="rgba(86, 198, 139, 0.54)"/>
        <path d="M467 202.5 M467 202.5 C529.1553660711605 205.65553979228716, 591.9201910101393 203.5233607218633, 721 202.5 M721 202.5 C729.2546774041871 203.53898486477917, 732.5533038344181 207.7550477272698, 731 212.5 M731 212.5 C728.8651624906661 222.76676936256155, 733.4022632543824 237.74021256134705, 731 244.5 M731 244.5 C729.7534083991111 250.4600610248218, 727.8197893495711 251.51147984862052, 721 254.5 M721 254.5 C650.4417009246246 256.3107262106879, 580.2420083975445 256.68988981028065, 467 254.5 M467 254.5 C462.4476299133961 255.05638796562127, 458.1593293135251 251.04498797560038, 457 244.5 M457 244.5 C459.077664805883 233.32048921372345, 457.30318210531243 218.7361205382039, 457 212.5 M457 212.5 C459.2780133798383 206.55179063202002, 464.5091125476666 202.63758126582565, 467 202.5 M467 202.5 C467 202.5, 467 202.5, 467 202.5"
              stroke="rgb(58, 133, 109)" stroke-width="1" fill="none"/>
    </g>
    <g class="text-container" transform="matrix(1, 0, 0, 1, 594.503, 217.474)">
        <text font-family="'Arial'" font-size="18px" font-style="normal" font-weight="bold" text-decoration="none"
              text-anchor="middle" fill="rgb(58,133,109)" fill-opacity="1" dy="0.8888888888888888em" transform=""
              style="font-style: normal;font-weight: 700;font-size: 18px;font-family: Comic Sans MS, cursive;"
              stroke="none" stroke-width="1px">UnitsBF
        </text>
    </g>
    <g>
        <path d="M769.5451015247786 203.88917137719432 L1027.8762544312392 202.90116450168563 L1029.2143461842527 202.64128388629592 L1034.9408879497348 209.85968572339888 L1035.1987769225632 246.63143797439446 L1031.5195061745558 250.27957200002842 L1025.6301321324706 253.0919594518974 L773.9794016266513 252.107272300193 L763.6953771349672 248.60083480468103 L758.0446250407441 243.50501167527884 L763.4355678157727 209.97956047537397 L766.0707639008491 208.10885420078645 L770.4643425026637 202.9941237834591"
              stroke="none" stroke-width="0" fill="rgba(86, 198, 139, 0.54)"/>
        <path d="M771 202.5 M771 202.5 C856.3085269191389 198.59316223037914, 945.9565872656157 202.24958945208718, 1025 202.5 M1025 202.5 C1028.6548386980187 202.1524257000283, 1037.1489768422948 206.63563322445165, 1035 212.5 M1035 212.5 C1036.1444430952963 221.47378456521736, 1033.2295832295763 228.01249514723847, 1035 244.5 M1035 244.5 C1035.2877559044312 248.1710795960447, 1028.646611492646 253.80457639334674, 1025 254.5 M1025 254.5 C949.8702192897781 261.9510435998813, 872.7143141227974 258.91756287607876, 771 254.5 M771 254.5 C766.335590341724 255.32698444101592, 758.8066840778445 250.14759010773759, 761 244.5 M761 244.5 C759.0358629219888 231.5569130539908, 761.8752418952611 225.74270260597265, 761 212.5 M761 212.5 C760.0825906265293 207.2275702265041, 765.2349508475735 203.3552747506647, 771 202.5 M771 202.5 C771 202.5, 771 202.5, 771 202.5"
              stroke="rgb(58, 133, 109)" stroke-width="1" fill="none"/>
    </g>
    <g class="text-container" transform="matrix(1, 0, 0, 1, 898.489, 217.474)">
        <text font-family="'Arial'" font-size="18px" font-style="normal" font-weight="bold" text-decoration="none"
              text-anchor="middle" fill="rgb(58,133,109)" fill-opacity="1" dy="0.8888888888888888em" transform=""
              style="font-style: normal;font-weight: 700;font-size: 18px;font-family: Comic Sans MS, cursive;"
              stroke="none" stroke-width="1px">MealsBF
        </text>
    </g>
    <g>
        <path d="M1075.3947373926583 203.79688613307297 L1327.6112181104436 204.06501026620435 L1334.0387949076492 205.55086380367413 L1339.274426939919 207.94791739357896 L1339.7746333927123 245.8482414784962 L1333.5792324706877 252.4631716775677 L1328.747282044587 252.90043844717937 L1074.8707891699987 253.6079731589827 L1065.1257784214033 252.17250700883358 L1065.860212631601 244.1898822013904 L1063.7898619344533 212.38865360163814 L1065.566764501121 203.61372800036398 L1072.0651572787194 203.39034952321649"
              stroke="none" stroke-width="0" fill="rgba(86, 198, 139, 0.54)"/>
        <path d="M1075 202.5 M1075 202.5 C1174.6630250624298 203.04270906025516, 1268.6221506733905 198.95597525710738, 1329 202.5 M1329 202.5 C1335.175612959739 204.07930376871826, 1338.5345728599673 206.92034843318132, 1339 212.5 M1339 212.5 C1339.6977155604438 222.56059334396343, 1341.7111819130446 226.7117967464192, 1339 244.5 M1339 244.5 C1338.2443381012063 248.56397185332688, 1331.8928021402926 257.0406268511727, 1329 254.5 M1329 254.5 C1269.516022747139 252.8827431071107, 1214.4050872031246 253.98130737628264, 1075 254.5 M1075 254.5 C1069.8846508273796 253.11533789571598, 1063.6755446514683 251.67529315174312, 1065 244.5 M1065 244.5 C1063.1047134863345 233.09684051484, 1065.233721813188 223.88724190778888, 1065 212.5 M1065 212.5 C1066.4274532467387 207.41270661688324, 1070.476648955329 204.73962128242516, 1075 202.5 M1075 202.5 C1075 202.5, 1075 202.5, 1075 202.5"
              stroke="rgb(58, 133, 109)" stroke-width="1" fill="none"/>
    </g>
    <g class="text-container" transform="matrix(1, 0, 0, 1, 1202.5, 217.474)">
        <text font-family="'Arial'" font-size="18px" font-style="normal" font-weight="bold" text-decoration="none"
              text-anchor="middle" fill="rgb(58,133,109)" fill-opacity="1" dy="0.8888888888888888em" transform=""
              style="font-style: normal;font-weight: 700;font-size: 18px;font-family: Comic Sans MS, cursive;"
              stroke="none" stroke-width="1px">RatingsBF
        </text>
    </g>
    <g>
        <path d="M1075.1032203051066 306.9758253116382 L1330.5974538584624 307.6275044388523 L1330.1875001974156 306.94097446251266 L1338.1974312970865 315.6199475371837 L1337.3907126452668 352.1444443327933 L1333.1498185726857 358.61721047331065 L1327.8342570878638 360.5665244667288 L1075.4936099379374 359.23433022524824 L1067.9536600970548 354.0988469875373 L1063.1660977646955 350.499496223823 L1063.351541350766 319.86425200896565 L1067.3260393632813 312.9015623299431 L1072.143472822051 309.64814156184866"
              stroke="none" stroke-width="0" fill="rgba(86, 198, 139, 0.54)"/>
        <path d="M1075 308 M1075 308 C1138.5354936613055 304.0026067517327, 1201.4144301560418 307.90330355463703, 1329 308 M1329 308 C1332.8398456603118 306.59052110027295, 1339.7942266159703 311.68486429092036, 1339 318 M1339 318 C1341.8419626279378 329.18509205880474, 1339.1034265405494 340.45695617989725, 1339 350 M1339 350 C1336.1771224880877 352.5654556082804, 1335.1565771937483 358.939544365075, 1329 360 M1329 360 C1253.9473243827802 355.56930988730284, 1180.2496951722505 355.28471932609204, 1075 360 M1075 360 C1069.112785339017 362.66433497340694, 1067.065274341461 352.6523836317376, 1065 350 M1065 350 C1066.0228578726733 336.4477837025472, 1066.6774476579321 327.91530972552675, 1065 318 M1065 318 C1067.43803998887 313.23004775827127, 1070.5408538833956 309.4772628449291, 1075 308 M1075 308 C1075 308, 1075 308, 1075 308"
              stroke="rgb(58, 133, 109)" stroke-width="1" fill="none"/>
    </g>
    <g class="text-container" transform="matrix(1, 0, 0, 1, 1202.49, 322.974)">
        <text font-family="'Arial'" font-size="18px" font-style="normal" font-weight="bold" text-decoration="none"
              text-anchor="middle" fill="rgb(58,133,109)" fill-opacity="1" dy="0.8888888888888888em" transform=""
              style="font-style: normal;font-weight: 700;font-size: 18px;font-family: Comic Sans MS, cursive;"
              stroke="none" stroke-width="1px">FilesBF
        </text>
    </g>
    <g>
        <path d="M770.0029302919113 413.3733912824309 L1025.8731883589937 414.07177984482223 L1026.4444157370733 414.6286530336745 L1032.4540012294824 420.9986269838009 L1034.3467104854124 453.1904410743837 L1034.0461001135113 464.6758331211001 L1022.5275288574809 465.00593199232515 L771.0527213993151 463.762239011626 L762.9247193847492 459.31947464799754 L760.3343162900826 456.67909461050385 L758.0707872916323 423.78285006753197 L766.2681521502931 415.7794250628186 L770.6909755793461 413.46657595103034"
              stroke="none" stroke-width="0" fill="rgba(86, 198, 139, 0.54)"/>
        <path d="M771 413.5 M771 413.5 C848.7990475797421 409.6082681139133, 924.1874460091625 411.4984818847051, 1025 413.5 M771 413.5 C834.842812626261 407.9686189820053, 897.8746119500095 408.07441570337977, 1025 413.5 M1025 413.5 C1030.543361880247 413.70169139866925, 1037.0535638723654 417.7797548078356, 1035 423.5 M1025 413.5 C1032.8959727377614 415.85513328205496, 1038.1712355527611 420.4150927981156, 1035 423.5 M1035 423.5 C1037.1924465091968 433.6686822009048, 1031.70101192973 440.8628187391442, 1035 455.5 M1035 423.5 C1033.253382655288 434.7285641045868, 1033.5180584411646 445.0539451862339, 1035 455.5 M1035 455.5 C1037.033438821608 458.580820784068, 1031.9007453637162 468.4124972922684, 1025 465.5 M1035 455.5 C1036.2906368988752 464.39134804673193, 1026.4613989384945 462.8382590094958, 1025 465.5 M1025 465.5 C926.9998070034377 458.63645201561474, 829.5496357994831 458.296372231518, 771 465.5 M1025 465.5 C945.282490237532 466.6586565326313, 864.8462898858377 466.6058610594106, 771 465.5 M771 465.5 C765.5005040630324 465.7133041701468, 758.7695151724879 460.041562624819, 761 455.5 M771 465.5 C763.3586806943222 464.2414919286566, 762.1385504540498 458.22582169401323, 761 455.5 M761 455.5 C759.4180077870336 444.678130716426, 763.6489511700039 429.1908020124804, 761 423.5 M761 455.5 C761.0967136825126 442.64270035412665, 761.4479941258886 428.6868712784597, 761 423.5 M761 423.5 C762.6559458157581 420.0196486485884, 768.7953615256365 411.64039261867276, 771 413.5 M761 423.5 C758.6858418158428 418.44144157276395, 766.3129312031678 412.831991466088, 771 413.5 M771 413.5 C771 413.5, 771 413.5, 771 413.5 M771 413.5 C771 413.5, 771 413.5, 771 413.5"
              stroke="rgb(58, 133, 109)" stroke-width="1" fill="none"/>
    </g>
    <g class="text-container" transform="matrix(1, 0, 0, 1, 898.481, 428.474)">
        <text font-family="'Arial'" font-size="18px" font-style="normal" font-weight="bold" text-decoration="none"
              text-anchor="middle" fill="rgb(58,133,109)" fill-opacity="1" dy="0.8888888888888888em" transform=""
              style="font-style: normal;font-weight: 700;font-size: 18px;font-family: Comic Sans MS, cursive;"
              stroke="none" stroke-width="1px">PricesBF
        </text>
    </g>
    <g>
        <path d="M465.48703659635856 522.9372155974237 L717.5496642197595 523.9107030721964 L721.9178317915129 527.3465918879004 L725.9069409226039 530.7767508086304 L725.104024908695 568.1303688839546 L725.9148051346859 572.8839910574442 L717.8884651712083 578.3558796566147 L464.87244780570427 574.8416119706682 L454.19096984826643 571.5233902738313 L453.3413500855085 563.29606900048 L452.8967312469666 536.7099365718711 L457.2836572511446 528.2077108571832 L463.8936916374072 523.5410473978409"
              stroke="none" stroke-width="0" fill="rgba(64, 116, 202, 0.13)"/>
        <path d="M463 524 M463 524 C530.7066676096815 521.6363789944888, 596.5141816377244 520.0831608412902, 717 524 M717 524 C723.0600614382989 526.4715558423254, 728.8305629951419 528.962582648969, 727 534 M727 534 C725.2747068718854 545.8042390619821, 729.3783767641709 556.860111354538, 727 566 M727 566 C728.3758935981639 569.515542288443, 720.6627489779291 573.1934603235277, 717 576 M717 576 C650.5011284452096 582.4000522047666, 589.4567715923031 580.3544199705526, 463 576 M463 576 C460.3907296774799 577.8901599583197, 450.4101658368583 573.2631516269075, 453 566 M453 566 C452.39583984965657 558.0672599061901, 451.8966495634924 546.4762189466772, 453 534 M453 534 C451.40479068102843 528.6520789746032, 459.42987923643364 524.7019740692094, 463 524 M463 524 C463 524, 463 524, 463 524"
              stroke="rgb(64, 146, 120)" stroke-width="1" fill="none"/>
    </g>
    <g class="text-container" transform="matrix(1, 0, 0, 1, 590.478, 538.974)">
        <text font-family="'Arial'" font-size="18px" font-style="normal" font-weight="bold" text-decoration="none"
              text-anchor="middle" fill="rgb(64,146,120)" fill-opacity="1" dy="0.8888888888888888em" transform=""
              style="font-style: normal;font-weight: 700;font-size: 18px;font-family: Comic Sans MS, cursive;"
              stroke="none" stroke-width="1px">MealsRepository
        </text>
    </g>
    <g>
        <path d="M771.1823442210921 526.4841316474442 L1027.0155370069847 525.2297173513683 L1031.011054903878 522.6071007382857 L1040.1468777076966 530.754320696527 L1038.3283588107136 564.5325648814907 L1035.2279795130726 571.915892675236 L1027.4859597292445 573.8076819578873 L772.9661887693383 578.4510193191568 L766.5422853785819 570.6694538393307 L762.9836030703541 568.1926884860293 L765.2272825821175 535.7577738071345 L768.6617177455753 529.4145960515652 L776.1574612456182 526.1694427477099"
              stroke="none" stroke-width="0" fill="rgba(64, 116, 202, 0.13)"/>
        <path d="M774 524 M774 524 C855.2575775373066 517.043311547142, 935.8470966549296 520.5292222735407, 1028 524 M774 524 C844.500138236879 521.0081898630006, 917.062630021332 520.1926354640848, 1028 524 M1028 524 C1031.7947922151789 522.9512532046523, 1039.29765242963 527.1735483441449, 1038 534 M1028 524 C1030.432782154549 522.0299310414887, 1036.169247743989 528.2285758469612, 1038 534 M1038 534 C1041.120527689486 545.1836577874395, 1037.843993529474 555.1428680893974, 1038 566 M1038 534 C1040.031757078115 547.3933784129871, 1038.522646146961 559.6230824168673, 1038 566 M1038 566 C1040.6905866019542 574.4451756831327, 1031.3887335606082 574.5557206196214, 1028 576 M1038 566 C1040.774134436536 573.2157999933613, 1034.689256539619 575.1960517128475, 1028 576 M1028 576 C949.178869662888 571.3437060717796, 870.9387995781485 570.95346513918, 774 576 M1028 576 C930.3111107766216 572.9021477360801, 834.2581442948796 571.8989415508049, 774 576 M774 576 C770.0211929149431 577.4796361264019, 761.1622795179271 573.3550226896629, 764 566 M774 576 C770.4118421178823 578.8640164172225, 767.1382966065613 573.4685930995759, 764 566 M764 566 C763.7633483395441 555.3028087989603, 761.5597190727916 546.0256780834287, 764 534 M764 566 C762.9240611749277 559.3704116729213, 763.8634451636138 550.3233118749861, 764 534 M764 534 C764.0985829698881 527.0665326141353, 769.670017821808 524.2676353804491, 774 524 M764 534 C767.364094137436 526.2623562251463, 768.2812220080475 525.0600964360708, 774 524 M774 524 C774 524, 774 524, 774 524 M774 524 C774 524, 774 524, 774 524"
              stroke="rgb(64, 146, 120)" stroke-width="1" fill="none"/>
    </g>
    <g class="text-container" transform="matrix(1, 0, 0, 1, 901.489, 538.974)">
        <text font-family="'Arial'" font-size="18px" font-style="normal" font-weight="bold" text-decoration="none"
              text-anchor="middle" fill="rgb(64,146,120)" fill-opacity="1" dy="0.8888888888888888em" transform=""
              style="font-style: normal;font-weight: 700;font-size: 18px;font-family: Comic Sans MS, cursive;"
              stroke="none" stroke-width="1px">RatingsRepository
        </text>
    </g>
    <g>
        <path d="M1078.920670049706 524.7709354077708 L1334.7620543990683 524.1408150999712 L1335.8946924981644 523.1028006733599 L1339.0189559180012 528.1671648144097 L1342.5668411374372 563.8053504144439 L1340.2839111349367 570.7469890064162 L1329.6449121877495 578.3116771341668 L1077.2395901619425 575.1614000300774 L1073.77754764018 571.3869159030262 L1067.2263663099382 567.6435630914726 L1065.7573891973484 534.5215747356744 L1072.3722347499154 526.5005709515781 L1075.2096665346485 523.5018105376491"
              stroke="none" stroke-width="0" fill="rgba(64, 116, 202, 0.13)"/>
        <path d="M1078 524 M1078 524 C1152.4282815169677 520.0514454819788, 1224.6022309904502 523.5706902317008, 1332 524 M1332 524 C1335.0348385580612 525.4812166380166, 1343.6136948584256 526.8431180444304, 1342 534 M1342 534 C1342.4936077340642 539.7803620088155, 1340.4749897920412 549.5017780051664, 1342 566 M1342 566 C1341.95486464589 570.6086592112141, 1337.739059638312 575.6485720534557, 1332 576 M1332 576 C1238.6071281993932 580.7107371517717, 1151.5569314816073 578.8892113539395, 1078 576 M1078 576 C1069.7570053545128 578.1018151214894, 1068.5097253616627 569.8351877857322, 1068 566 M1068 566 C1065.482531531421 553.4651258386428, 1066.5402330452987 548.5926538982771, 1068 534 M1068 534 C1070.4129205086094 529.6630305909998, 1071.955684844288 523.3159608385884, 1078 524 M1078 524 C1078 524, 1078 524, 1078 524"
              stroke="rgb(64, 146, 120)" stroke-width="1" fill="none"/>
    </g>
    <g class="text-container" transform="matrix(1, 0, 0, 1, 1205.48, 538.974)">
        <text font-family="'Arial'" font-size="18px" font-style="normal" font-weight="bold" text-decoration="none"
              text-anchor="middle" fill="rgb(64,146,120)" fill-opacity="1" dy="0.8888888888888888em" transform=""
              style="font-style: normal;font-weight: 700;font-size: 18px;font-family: Comic Sans MS, cursive;"
              stroke="none" stroke-width="1px">FilesRepository
        </text>
    </g>
    <g>
        <path d="M153.13894955905238 521.6578588926383 L407.93435337628847 521.4267282189322 L408.27294324717695 524.4728656771507 L416.98062244334807 528.6178268967111 L414.4865633996152 563.7860619105127 L411.7012948456827 572.6436965291003 L403.13199708590844 578.7222985063297 L152.57278628917388 575.4576049963905 L142.4924769307608 569.9053430376375 L142.65949769494435 564.5636026703751 L142.21066297186638 532.7427592299747 L145.73574880294248 525.9873682991029 L150.65070436454243 526.6029302472405"
              stroke="none" stroke-width="0" fill="rgba(64, 116, 202, 0.13)"/>
        <path d="M152 524 M152 524 C232.62558129176756 527.6352045068156, 313.11525645600045 528.510076123781, 406 524 M406 524 C411.90489943684804 523.1574416807337, 413.0464012682422 529.8388181160524, 416 534 M416 534 C413.76824280584685 542.9489833052401, 416.9193322962221 549.8180153567541, 416 566 M416 566 C416.7623607510821 571.028227911519, 409.8914066348063 576.3469664539947, 406 576 M406 576 C326.4781638837035 575.9596870068301, 244.98878487518093 575.5156412712125, 152 576 M152 576 C146.84843463515375 574.7402345664304, 142.80225579802223 571.0918939143193, 142 566 M142 566 C144.42183819818308 553.3075250782242, 144.8351383931138 540.2278810294831, 142 534 M142 534 C140.23987449634657 526.7744030746186, 148.4339131415829 523.6511856450517, 152 524 M152 524 C152 524, 152 524, 152 524"
              stroke="rgb(64, 146, 120)" stroke-width="1" fill="none"/>
    </g>
    <g class="text-container" transform="matrix(1, 0, 0, 1, 279.492, 538.974)">
        <text font-family="'Arial'" font-size="18px" font-style="normal" font-weight="bold" text-decoration="none"
              text-anchor="middle" fill="rgb(64,146,120)" fill-opacity="1" dy="0.8888888888888888em" transform=""
              style="font-style: normal;font-weight: 700;font-size: 18px;font-family: Comic Sans MS, cursive;"
              stroke="none" stroke-width="1px">UnitsRepository
        </text>
    </g>
</svg>