<svg xmlns="http://www.w3.org/2000/svg" data-v-3acb27dc="" class="sketchy-canvas visible" width="1127" height="969" stroke-linecap="round" xmlns:xlink="http://www.w3.org/1999/xlink"><defs><clipPath id="ygc177_0_0"><rect x="25" y="25" width="1076.67" height="919" transform="matrix(1, 0, 0, 1, 0, 0)"/></clipPath></defs><g><path d="M469.66382617696166 217.39234160794177 M468.6807991252064 217.1591669288692 C466.4862385068659 256.7109289358682, 468.89084309999885 294.06680194591746, 467.8331938795602 389.2700417540066" stroke="rgb(0, 0, 0)" stroke-width="1" fill="none"/></g><g class="text-container" transform="matrix(1, 0, 0, 1, 439.667, 294.966)"><text font-family="'Arial'" font-size="12px" font-style="normal" font-weight="normal" text-decoration="none" text-anchor="middle" fill="rgb(0,0,0)" fill-opacity="1" dy="0.9166666666666666em" transform="" style="font-style: normal;font-weight: 400;font-size: 12px;font-family: Comic Sans MS, cursive;" stroke="none" stroke-width="1px">1...N</text></g><g><path d="M576.3113713264205 159.43366864610368 M577.5287491444944 159.88849557943985 C614.1464173745527 151.82724905029167, 651.9085859892698 156.1983235803004, 750.6435293553606 159.8192070235867" stroke="rgb(0, 0, 0)" stroke-width="1" fill="none"/></g><g class="text-container" transform="matrix(1, 0, 0, 1, 664.633, 182.5)"><text font-family="'Arial'" font-size="12px" font-style="normal" font-weight="normal" text-decoration="none" text-anchor="middle" fill="rgb(0,0,0)" fill-opacity="1" dy="0.9166666666666666em" transform="" style="font-style: normal;font-weight: 400;font-size: 12px;font-family: Comic Sans MS, cursive;" stroke="none" stroke-width="1px">1...1</text></g><g><path d="M469.76282704960704 499.18200411726326 M469.9256837840964 501.93443659390647 C472.2389809077449 552.3497838947519, 474.6441225785762 599.9463500271605, 471.4094702871807 672.6991600826226" stroke="rgb(0, 0, 0)" stroke-width="1" fill="none"/></g><g class="text-container" transform="matrix(1, 0, 0, 1, 439.667, 579.017)"><text font-family="'Arial'" font-size="12px" font-style="normal" font-weight="normal" text-decoration="none" text-anchor="middle" fill="rgb(0,0,0)" fill-opacity="1" dy="0.9166666666666666em" transform="" style="font-style: normal;font-weight: 400;font-size: 12px;font-family: Comic Sans MS, cursive;" stroke="none" stroke-width="1px">1...N</text></g><g><path d="M581.3398295741382 763.3359726914664 M578.8361227869559 764.9462863459773 C600.818776042114 775.5525876911768, 620.975687308755 780.593464742102, 641.7558474953288 784.0952182322397 M580.1617496720569 766.1154949817743 C601.0642267233738 774.6430920895269, 622.5433028012983 779.630136474418, 642.9304037501112 785.9212397524328 M644.1339247980401 786.6994539924775 C694.0445929043576 783.9463520848287, 747.5011151215659 789.2064623396202, 802.3843721480008 788.7553848549602 M641.497941608551 786.2430258034345 C685.5950384299944 783.8672790867624, 725.6096048887526 781.8651832328585, 801.7823835305351 787.0970547451491 M803.4096694250293 788.6979786643477 C820.713493332675 779.4613863813747, 844.0343393223483 772.3110224034335, 876.1778031764321 761.9585077789426 M801.9281764738625 786.6692358211591 C830.900492424345 776.7053359053948, 859.4758995419108 768.4087331478626, 879.3885756974847 762.6357435382613" stroke="rgb(0, 0, 0)" stroke-width="1" fill="none"/></g><g class="text-container" transform="matrix(1, 0, 0, 1, 721.197, 805.371)"><text font-family="'Arial'" font-size="12px" font-style="normal" font-weight="normal" text-decoration="none" text-anchor="middle" fill="rgb(0,0,0)" fill-opacity="1" dy="0.9166666666666666em" transform="" style="font-style: normal;font-weight: 400;font-size: 12px;font-family: Comic Sans MS, cursive;" stroke="none" stroke-width="1px">0...N</text></g><g><path d="M178.43625534267278 682.6939126073 M177.1906722473871 677.2601561701621 C222.54663577006735 683.034468645071, 272.1117960420971 690.4488022434149, 360.2660470478944 709.8148636557388 M179.98086572533734 679.4049930258976 C222.71665581480173 686.7354219594915, 264.79063867684374 694.5024639215693, 361.74649354160493 709.0459404875968" stroke="rgb(0, 0, 0)" stroke-width="1" fill="none"/></g><g class="text-container" transform="matrix(1, 0, 0, 1, 270.326, 718.105)"><text font-family="'Arial'" font-size="12px" font-style="normal" font-weight="normal" text-decoration="none" text-anchor="middle" fill="rgb(0,0,0)" fill-opacity="1" dy="0.9166666666666666em" transform="" style="font-style: normal;font-weight: 400;font-size: 12px;font-family: Comic Sans MS, cursive;" stroke="none" stroke-width="1px">1...1</text></g><g><path d="M613.0126279990315 900.2710629160792 M612.5559571567768 897.5003098243062 C590.8750310166329 893.6062085563423, 567.7668191070647 894.8598517317441, 521.4387810687351 890.1964750611206" stroke="rgb(0, 0, 0)" stroke-width="1" fill="none"/></g><g class="text-container" transform="matrix(1, 0, 0, 1, 566.969, 857.78)"><text font-family="'Arial'" font-size="12px" font-style="normal" font-weight="normal" text-decoration="none" text-anchor="middle" fill="rgb(0,0,0)" fill-opacity="1" dy="0.9166666666666666em" transform="" style="font-style: normal;font-weight: 400;font-size: 12px;font-family: Comic Sans MS, cursive;" stroke="none" stroke-width="1px">1...1</text></g><g><path d="M219.63786373197598 790.0693353443097 L218.02534953535564 859.6942298507248 L319.6750385996394 857.014791922352 L319.29415349654585 803.0281185492693 L304.4051540960479 789.0380629304381 L218.41660758084123 788.5675626686477" stroke="none" stroke-width="0" fill="rgb(255, 255, 255)"/><path d="M220.08453506953813 789.4669212716445 M223.4678037685886 792.9034637228068 C222.10573134576077 809.6669715625578, 220.4771682271075 825.9517616709311, 222.72889536807747 858.5895576623565 M220.0326773744152 788.9855399561347 C222.27571926858852 806.6395770479422, 220.86251938134225 823.8519828192441, 220.723275936422 859.6239587806606 M223.07942823407527 860.9130432253922 C249.06333979299026 863.7743535630534, 271.7741699219214 864.399911482014, 317.07463504242884 857.2559115611065 M219.47532582877793 857.8330504119762 C243.1624292598008 855.1554453013264, 265.40135072349597 857.704676357754, 320.1649447020131 859.7493624843383 M320.9731127352248 856.902392447163 C322.2933076335562 844.4605952877179, 320.3511265386591 827.0740885130167, 319.80172580393474 806.4233082488197 M319.51578083140276 860.1445977544594 C321.1226752060672 843.6216349325026, 320.99740311250315 826.9988101970584, 320.64154784685235 806.0579949144593 M318.9931149590776 807.5709190097464 C313.1351214597855 798.6401895919457, 312.59258080734463 794.7003544906896, 305.57410610823524 787.0926773869247 M318.34343584787246 805.9951922116986 C314.92848404353464 801.1905513290767, 312.4056239418361 798.6242417032739, 303.3962092740829 791.4564745199642 M307.32929272205484 789.1075958381657 C279.55730739402975 789.9755784452624, 251.9132504779664 787.7872279418497, 221.00810103235634 789.6336524501226 M304.11958110441867 790.8298432763343 C284.4784980185088 790.8665897808517, 265.70880432980175 789.5502999104043, 219.84402217240913 789.0945355783031" stroke="rgb(0, 0, 0)" stroke-width="1" fill="none"/></g><g><path d="M302.85901447840774 789.7334661091644 L303.95013941702683 805.0606721280175 L322.6569464260393 806.4662115761284 L306.50174311197304 791.2233572813604" stroke="none" stroke-width="0" fill="rgb(255, 255, 255)"/><path d="M303.10422693570536 792.9628584495282 M305.74467245719507 791.5407425627992 C304.65824401031523 794.4201353785649, 306.30462496106884 801.2957387686612, 303.36443268054853 806.3481560662224 M305.6628706160252 789.7474840586182 C304.8368085457526 794.7703992041098, 305.4820582666816 798.0432939944543, 305.5325931734036 804.118034300413 M305.29374160106 804.4344137703431 C310.4531554330251 807.0478827916197, 314.8847238799872 803.2135927428857, 321.6002849527672 803.2107799056 M303.76467233219876 805.3505882807284 C310.5037230672422 805.3343660498355, 315.2377794828536 805.7218356260996, 319.7384359185361 805.2162754627825 M320.64176965692974 803.174395434449 C317.14658070780405 801.4642570034669, 313.4582973132623 798.1537464841318, 303.0286036749718 789.099396415537 M319.16006722026117 806.4770920784767 C314.84445389013183 799.1137375150445, 309.8765004324387 794.4512350227245, 304.09491873779945 790.7375772587659" stroke="rgb(0, 0, 0)" stroke-width="1" fill="none"/></g><g class="text-container" transform="matrix(1, 0, 0, 1, 233.985, 802.448)"><text font-family="'Arial'" font-size="12px" font-style="normal" font-weight="normal" text-decoration="none" text-anchor="start" fill="rgb(0,0,0)" fill-opacity="1" transform="" style="font-style: normal;font-weight: 400;font-size: 12px;font-family: Comic Sans MS, cursive;" stroke="none" stroke-width="1px"><tspan dy="0.9166666666666666em" x="0">- type of price</tspan><tspan dy="1.5em" x="0">- amount</tspan><tspan dy="1.5em" x="0">- unit</tspan></text></g><g><path d="M734.7171424497191 835.8846818301761 L738.4028029000782 920.249512018406 L854.5296584450875 921.1630400995565 L856.0400787513441 850.2521365679193 L839.2553448975012 834.4612259262475 L739.8017133182531 836.1359346450147" stroke="none" stroke-width="0" fill="rgb(255, 255, 255)"/><path d="M738.4514900367981 836.6878353683803 M738.6310589998592 839.9409967606462 C737.2173820247053 857.0138486710732, 736.3542951718906 874.3633372450549, 737.6826457254712 918.5891036133512 M737.3560261209635 920.6646141207231 C774.0285086995069 918.9865803037864, 809.8424791514974 920.7191379734104, 856.9228999105926 920.0567980489019 M853.6754504940442 918.7185918330309 C855.643895241584 901.1719351615143, 853.9767852926391 876.105520512512, 859.304904815744 852.8264252241863 M858.3195304949834 850.4011737831269 C850.5833164656646 844.7119664045908, 849.7915413118858 840.3592183366394, 844.5200559121377 838.4795176077761 M841.0302005039059 835.3893828649063 C801.3939683948455 832.7472084961275, 760.4792862712801 835.5266865548796, 737.2613743178254 834.1220778061385" stroke="rgb(0, 0, 0)" stroke-width="1" fill="none"/></g><g><path d="M843.4740884702759 835.6293300135591 L839.077382536743 850.5934843604763 L854.5167776979099 853.3722625914006 L842.5010387240903 836.6572120549945" stroke="none" stroke-width="0" fill="rgb(255, 255, 255)"/><path d="M842.0232829101296 839.056239084771 M842.4776109146501 836.0715405604549 C841.2003188385713 844.6617313344166, 840.988746967092 848.3585461440662, 841.3826910919133 850.8240492201213 M841.283280472472 837.069889746206 C841.4845624492738 841.2702916876453, 842.3454619811503 842.9670316566082, 842.1202695997467 851.1628728820533 M843.0285681009922 852.1683781284726 C845.9048029433799 850.0653156541233, 854.3170320855896 852.0046397600147, 855.6265161067543 853.1511325414522 M842.3525330196184 852.4759096940876 C845.6033762782542 850.8197037751821, 850.7960619321582 852.5955120577923, 856.3230969715898 851.923129999146 M859.0625959109002 853.3798315134071 C849.9816691659893 848.4807133857082, 848.4483110865403 844.5230101537451, 841.8003078826562 835.0657270715955 M856.5560120858622 850.8405645692343 C852.338952959337 849.1445492498274, 850.6561637719194 845.3142088115288, 843.0238276100455 836.1614381506473" stroke="rgb(0, 0, 0)" stroke-width="1" fill="none"/></g><g class="text-container" transform="matrix(1, 0, 0, 1, 764.155, 842.098)"><text font-family="'Arial'" font-size="12px" font-style="normal" font-weight="normal" text-decoration="none" text-anchor="start" fill="rgb(0,0,0)" fill-opacity="1" transform="" style="font-style: normal;font-weight: 400;font-size: 12px;font-family: Comic Sans MS, cursive;" stroke="none" stroke-width="1px"><tspan dy="0.9166666666666666em" x="0">Enum</tspan><tspan dy="1.5em" x="0">STUDENT</tspan><tspan dy="1.5em" x="0">EMPLOYEE</tspan><tspan dy="1.5em" x="0">GUEST</tspan></text></g><g><path d="M56.728089820373356 516.733436693839 L54.525037356228665 642.1731534480648 L242.31324603815625 642.2911680520077 L244.08639080546413 530.1155381377773 L230.2834707968862 515.2027706139392 L55.163610582960395 512.1902176263106" stroke="none" stroke-width="0" fill="rgb(255, 255, 255)"/><path d="M54.48639506060024 512.8095938656576 M54.86308354571671 516.9967267879639 C54.48361915983474 547.2959539751089, 52.42817969866833 579.5359992884662, 59.249545478770486 640.7244285067634 M53.91679782304793 642.6129344333689 C103.18202624531932 641.8558323126044, 151.63260893769802 645.2121009568442, 246.16557841522132 639.3181059894098 M244.27928545899366 640.5118522811864 C241.19591075533617 606.6392713973354, 244.5397744888759 580.749537643578, 246.9282955342923 532.2115819662782 M247.07520364334513 529.0969211812095 C237.702812874882 527.2231799347311, 234.82880446120407 521.7311015882524, 229.77902095833153 513.0133993911747 M231.21032518114734 516.2922441177544 C185.126484669597 514.2054419407166, 134.98525810510546 512.5184815679889, 53.92408437373595 515.8943872278421" stroke="rgb(0, 0, 0)" stroke-width="1" fill="none"/></g><g><path d="M227.25367788420274 517.6233799840168 L231.55837629825044 531.489495377037 L242.4238844051421 528.6034650828537 L226.95172321131543 517.0772010181225" stroke="none" stroke-width="0" fill="rgb(255, 255, 255)"/><path d="M229.89707364904598 512.2458546040607 M230.1755667738078 517.1804487830184 C227.38093482936122 520.9317837186418, 227.43112643952279 524.4850547349544, 228.83159084856047 529.3896779255474 M228.26174287286105 530.9005045006065 C234.1166494476072 529.5618902163761, 234.4003762710951 528.7494819468501, 245.8602824106582 529.1491669731638 M247.382237953717 529.3912656253679 C237.08435199804728 525.7997201084361, 235.74522969709972 520.7538750925341, 232.39166876486632 516.0363517976012" stroke="rgb(0, 0, 0)" stroke-width="1" fill="none"/></g><g class="text-container" transform="matrix(1, 0, 0, 1, 74.5703, 524.021)"><text font-family="'Arial'" font-size="12px" font-style="normal" font-weight="normal" text-decoration="none" text-anchor="start" fill="rgb(0,0,0)" fill-opacity="1" transform="" style="font-style: normal;font-weight: 400;font-size: 12px;font-family: Comic Sans MS, cursive;" stroke="none" stroke-width="1px"><tspan dy="0.9166666666666666em" x="0">Enum</tspan><tspan dy="1.5em" x="0">VEGAN</tspan><tspan dy="1.5em" x="0">VEGETARIAN</tspan><tspan dy="1.5em" x="0">MENSA_VITAL</tspan><tspan dy="1.5em" x="0">MENSA_REGIONAL</tspan><tspan dy="1.5em" x="0">MENSA_INTERNATIONAL</tspan></text></g><g><path d="M875.6464204849519 77.79382798521539 L877.5500465313077 147.84638414810811 L1025.5138967050134 149.96446456782695 L1023.7025386147009 95.93235753838094 L1011.5753658732316 79.80473719745756 L873.9646995415845 75.40495126289426" stroke="none" stroke-width="0" fill="rgb(255, 255, 255)"/><path d="M871.9268356113392 75.02768162576545 M876.1769969200877 79.86503744227241 C873.2863645030067 105.2580083729165, 873.4880364580849 131.5463033649482, 872.5039134640934 144.42399648544202 M877.3570707443345 146.5976423748258 C931.3509370803148 150.43297259294462, 988.1131109033367 147.15990049087443, 1023.8965682292693 144.65095914623032 M1023.6911236551836 145.51225747423047 C1024.9844113905503 132.01614182819173, 1023.8277089897268 111.41327473836299, 1022.7693824714484 95.4314359417761 M1024.9249957741838 95.71231704804549 C1020.8670667901157 89.10461300537591, 1017.1788332239687 82.79087679912334, 1012.5378353126752 75.13602673415761 M1007.8893936910384 76.51201435829446 C958.0040461857592 79.00359675073872, 908.7763779856597 79.58732982417075, 877.2628865127795 80.16720766237266" stroke="rgb(0, 0, 0)" stroke-width="1" fill="none"/></g><g><path d="M1012.1402293645109 75.44028796674633 L1009.8208745016173 91.12862035449523 L1024.2273916676656 95.17277524121081 L1011.3487867475253 75.13590114221465" stroke="none" stroke-width="0" fill="rgb(255, 255, 255)"/><path d="M1008.9328070965993 79.74396427229468 M1010.2317138812115 79.1574625329597 C1010.625792351277 81.68206896661579, 1010.1940204697624 89.96828699534687, 1008.9445257736671 93.01018066525683 M1011.6489940378175 93.76588743622445 C1015.4195290515493 92.41136957928596, 1015.1692764843011 91.86796718981603, 1025.405134415815 92.3633908289832 M1023.2918063738302 93.34179538056577 C1021.2865273530595 86.73374037903073, 1016.2165765048615 84.4442648549126, 1007.1390400857564 77.52756784097298" stroke="rgb(0, 0, 0)" stroke-width="1" fill="none"/></g><g class="text-container" transform="matrix(1, 0, 0, 1, 915.996, 90.4482)"><text font-family="'Arial'" font-size="12px" font-style="normal" font-weight="normal" text-decoration="none" text-anchor="start" fill="rgb(0,0,0)" fill-opacity="1" transform="" style="font-style: normal;font-weight: 400;font-size: 12px;font-family: Comic Sans MS, cursive;" stroke="none" stroke-width="1px"><tspan dy="0.9166666666666666em" x="0">Enum</tspan><tspan dy="1.5em" x="0">CANTEEN</tspan><tspan dy="1.5em" x="0">CAFETERIA</tspan></text></g><g><path d="M553.9833197174065 357.29721927056715 L549.974661450381 403.6272629857999 L646.3675739033073 402.2518343117454 L642.5536845531943 370.95383758976124 L632.342061931073 356.91054743328056 L549.4651217381211 354.4706016062576" stroke="none" stroke-width="0" fill="rgb(255, 255, 255)"/><path d="M549.0620477519894 352.78595549135014 M551.1334770875402 355.2847671673263 C551.0596557374947 368.0230382026869, 550.6481019862489 380.3058149212734, 549.4485669399897 400.00953159950024 M550.5244401255616 354.67855205444863 C551.6123943571799 368.8619828506226, 551.2165193893568 380.75885935976686, 551.3301291946889 402.25475052756883 M554.5065708363306 400.7462504396251 C577.0015421237904 396.1435689068618, 601.9051854551753 397.9698253410441, 646.4712311876723 398.2244597843057 M551.0833547647342 402.1594139640882 C581.6851191279701 402.22409688631285, 610.8463881210555 404.18993343740516, 644.2622914564478 402.3873418854309 M643.7917945837048 398.6671617882391 C644.7433997284026 392.50371685763344, 643.6095589093128 380.00888258267497, 644.3451878691576 372.99685491114224 M643.8016167054242 399.6547886836051 C646.2946687789303 388.1607443933092, 643.7367028260421 375.7715217693218, 645.6732073356435 370.3903066911794 M645.9842367597188 369.6555330275731 C642.907839863382 367.1482661331916, 637.9426739459078 365.26982127503464, 629.0717116071871 357.82164608728414 M645.5691660416733 369.52173207939995 C640.5854268672815 366.5714847217634, 637.696408114007 363.63983139175247, 628.5270532094713 353.91121867744107 M628.7807858072437 357.49450164383273 C598.6617377009883 352.58731239842274, 572.7607541530726 353.06080964125994, 550.3406466055835 352.2613137034897 M628.6760877207423 355.6540955552114 C598.9613332264848 353.70608601285943, 568.6546351971031 353.4104142915945, 550.5409633828963 353.9937284363351" stroke="rgb(0, 0, 0)" stroke-width="1" fill="none"/></g><g><path d="M630.1633816261531 352.21319308936455 L627.6652532497266 371.0413095319979 L646.018052025926 369.3175233696245 L629.3455021820805 355.3294750119438" stroke="none" stroke-width="0" fill="rgb(255, 255, 255)"/><path d="M627.7257562390089 352.4383510202355 M630.7210366118194 354.72604476811944 C630.5278298414905 361.33848680383034, 628.3682154266929 364.77128357590163, 631.4197814147198 369.43376281482233 M628.349309210438 369.3542380798245 C634.0573320754886 370.28556253260973, 640.9525083802382 372.0905874412471, 646.0636722548232 370.2776415394361 M647.281763169291 370.86913231661737 C637.161318775679 364.5448921319942, 633.6213664864913 360.7587241095545, 631.6968371172239 352.06112535164226" stroke="rgb(0, 0, 0)" stroke-width="1" fill="none"/></g><g class="text-container" transform="matrix(1, 0, 0, 1, 582.824, 370.649)"><text font-family="'Arial'" font-size="12px" font-style="normal" font-weight="normal" text-decoration="none" text-anchor="start" fill="rgb(0,0,0)" fill-opacity="1" dy="0.9166666666666666em" transform="" style="font-style: normal;font-weight: 400;font-size: 12px;font-family: Comic Sans MS, cursive;" stroke="none" stroke-width="1px">- date</text></g><g><path d="M573.5675504647182 548.8544967642904 L574.1472283378753 751.6196861525449 L720.1366298075941 751.1788642091637 L725.4221916616616 559.8454445389414 L707.450313379611 545.2158542319982 L572.5138999829366 549.4669753034125" stroke="none" stroke-width="0" fill="rgb(255, 255, 255)"/><path d="M570.8062828310542 548.8482247974708 M572.9782348983516 545.9692084926121 C575.7374932971907 622.0684787679959, 573.1626033471908 693.956268422334, 573.7268548791828 749.1815369596255 M574.2884834430125 750.0151310792786 C628.7419852132463 749.0502287430967, 686.893660256719 748.8129216266235, 724.1368149407525 751.854902283994 M725.6026000097206 751.3514476998926 C722.3722025598087 710.873348470517, 721.2027544568449 668.2454510692223, 721.5365360442343 564.758108596365 M720.093232328019 559.4196378900929 C719.8875772697952 557.2340419353238, 717.7837364512674 556.2751308964155, 709.4014809528342 544.1587333336904 M706.6514992752901 547.3005405413902 C665.9399191531492 547.9296297242603, 623.069757082314 545.1760514339587, 572.3533114956037 549.9589865376133" stroke="rgb(0, 0, 0)" stroke-width="1" fill="none"/></g><g><path d="M706.424082225424 546.9447800225486 L707.9240849799071 564.5308590697648 L724.5785148178023 561.0369400700083 L707.7748755337494 547.2764818273308" stroke="none" stroke-width="0" fill="rgb(255, 255, 255)"/><path d="M707.9463875603269 546.1288061877719 M707.8654319442998 549.0901407833561 C709.5921066394036 548.5403244023141, 706.7413619166729 552.8975744009994, 705.5968458714647 564.1913530838252 M706.5674345180389 563.0139969524258 C710.6352902538549 562.824306380689, 717.4847657753414 561.6341418749104, 723.4904074827734 563.8897595287671 M725.1171348843422 564.7402287984961 C716.9230676578162 553.1666197945484, 713.6257179386371 551.1099635151892, 708.3442088227071 544.0514108557015" stroke="rgb(0, 0, 0)" stroke-width="1" fill="none"/></g><g class="text-container" transform="matrix(1, 0, 0, 1, 586.296, 566.994)"><text font-family="'Arial'" font-size="12px" font-style="normal" font-weight="normal" text-decoration="none" text-anchor="start" fill="rgb(0,0,0)" fill-opacity="1" transform="" style="font-style: normal;font-weight: 400;font-size: 12px;font-family: Comic Sans MS, cursive;" stroke="none" stroke-width="1px"><tspan dy="0.9166666666666666em" x="0">- title</tspan><tspan dy="1.5em" x="0">- allergene</tspan><tspan dy="1.5em" x="0">- food aditives</tspan><tspan dy="1.5em" x="0">- additional substances</tspan><tspan dy="1.5em" x="0">- type of food</tspan><tspan dy="3em" x="0">Preiskategorien</tspan><tspan dy="1.5em" x="0">- Studierender</tspan><tspan dy="1.5em" x="0">- Mitarbeiter</tspan><tspan dy="1.5em" x="0">- Gast</tspan></text></g><g><path d="M525.7564143855743 30.6688233383845 L530.5600553787212 112.6555250839819 L803.4104488080986 115.6893040243255 L799.9679771994396 43.298686490030754 L783.9973673284507 28.37376275120756 L527.208109643375 30.861126485471605" stroke="none" stroke-width="0" fill="rgb(255, 255, 255)"/><path d="M525.5568860588174 28.975057697376986 M526.0193167342935 30.35561173856657 C523.9884581628902 50.70165893521113, 526.9850863233956 67.53038868356634, 526.6872581259736 113.62834943713364 M528.0501898830364 113.13536960904918 C621.5023275342911 115.13070245368671, 710.2029279599835 113.55821526029175, 800.0748823070271 113.11863940091506 M801.7867896186209 116.87332006596998 C799.7709347331162 87.57435154077895, 802.2006142271442 64.31298552948803, 800.6360117216748 42.58675084709354 M801.567452091089 46.779637699300295 C794.6504921795046 40.84913758506951, 792.7082943104502 40.16125946982241, 787.3765481928975 32.4262205203767 M785.3631322622002 28.696986219904883 C686.0284696555133 27.427338360917542, 588.6375018315445 29.83656482776972, 526.8422880622915 29.744847901373305" stroke="rgb(0, 0, 0)" stroke-width="1" fill="none"/></g><g><path d="M783.8979551847533 27.482338666812588 L789.000045617074 44.902842486768364 L803.9103094156073 44.73949898068917 L785.6869508837983 27.020989579047345" stroke="none" stroke-width="0" fill="rgb(255, 255, 255)"/><path d="M785.0552953484553 32.35155175690635 M787.3561863956899 31.996446877827406 C787.0827143493967 33.338262202582705, 787.5458016027611 39.479891805949286, 784.7952786360862 42.82402072070441 M784.4783435337239 46.901132333360366 C788.7475035894329 46.07239083101582, 792.8750407261019 45.72076787389015, 801.2923838915922 46.693230244144225 M802.96144419155 46.95923728190701 C796.5066573019344 39.57914326433358, 792.213656736976 38.3747455444029, 787.1459524583961 30.761360421474112" stroke="rgb(0, 0, 0)" stroke-width="1" fill="none"/></g><g class="text-container" transform="matrix(1, 0, 0, 1, 558.788, 42.5977)"><text font-family="'Arial'" font-size="12px" font-style="normal" font-weight="normal" text-decoration="none" text-anchor="start" fill="rgb(0,0,0)" fill-opacity="1" transform="" style="font-style: normal;font-weight: 400;font-size: 12px;font-family: Comic Sans MS, cursive;" stroke="none" stroke-width="1px"><tspan dy="0.9166666666666666em" x="0">Possible Attributes</tspan><tspan dy="1.5em" x="0">- Unit type</tspan><tspan dy="1.5em" x="0">- Location (Address) -&gt; Data in Campus</tspan><tspan dy="1.5em" x="0">- Name</tspan></text></g><g><path d="M372.1059510103835 102.58803256890842 L572.2609976619729 102.8639081115332 L574.8014923441394 105.78682157910086 L579.1798895564206 114.7493711344866 L578.9622389183198 210.05840354330817 L576.911897151787 212.01021480277717 L571.231711996208 216.57246408554926 L368.9492763994884 214.76422961318085 L366.34126824095887 211.84312591740473 L361.8146302247154 204.33694855462673 L362.0817539642156 115.58120688665791 L360.998255477512 105.10795022763675 L370.6181504604603 103.79000211611044" stroke="none" stroke-width="0" fill="rgb(51, 204, 204)"/><path d="M370.6666717529297 103 M370.6666717529297 103 C441.3544558170393 108.48888625851495, 514.02125385125 107.616467122071, 568.6666717529297 103 M568.6666717529297 103 C574.7610199368511 101.19741730345487, 578.5587459461422 109.35338521593685, 578.6666717529297 113 M578.6666717529297 113 C581.1492333861083 135.97040917918662, 576.4949547351168 161.433267899391, 578.6666717529297 206 M578.6666717529297 206 C581.6047479861595 214.365400610662, 575.0403800813137 213.98689315354676, 568.6666717529297 216 M568.6666717529297 216 C527.713105249381 213.838271114744, 481.1409574334643 212.25918030832585, 370.6666717529297 216 M370.6666717529297 216 C362.94037456886736 216.3613333667637, 359.9295457296969 209.89404069376184, 360.6666717529297 206 M360.6666717529297 206 C359.44348851163994 170.22140988000515, 356.5624199589566 133.54081770153581, 360.6666717529297 113 M360.6666717529297 113 C358.42026998576915 106.0027443531594, 364.00977114731523 103.67803387965843, 370.6666717529297 103 M370.6666717529297 103 C370.6666717529297 103, 370.6666717529297 103, 370.6666717529297 103" stroke="rgb(0, 0, 0)" stroke-width="1" fill="none"/></g><g class="text-container" transform="matrix(1, 0, 0, 1, 469.784, 146.024)"><text font-family="'Arial'" font-size="22px" font-style="normal" font-weight="bold" text-decoration="none" text-anchor="middle" fill="rgb(255,255,255)" fill-opacity="1" dy="0.9090909090909091em" transform="" style="font-style: normal;font-weight: 700;font-size: 22px;font-family: Comic Sans MS, cursive;" stroke="none" stroke-width="1px">Unit</text></g><g><path d="M370.8147451277039 670.5226576503821 L572.7918611255444 670.1288453036367 L573.1873856202299 675.8485614449145 L578.2400812349733 682.8596539521892 L578.619798556032 777.3457005859137 L576.052104888617 780.0953914514207 L569.3557264097249 786.7389662269977 L367.1850351775095 782.4629031834073 L363.20302631809017 781.818152595881 L363.18347630286496 775.8191722565329 L361.16025218476466 680.5861930612733 L364.05316228480365 671.9285309499625 L367.9867901785836 673.5660181489158" stroke="none" stroke-width="0" fill="rgb(153, 204, 0)"/><path d="M370.6666717529297 671 M370.6666717529297 671 C445.324307761324 666.8618556001246, 520.7443586687913 669.9984304639661, 568.6666717529297 671 M568.6666717529297 671 C576.2611690297084 672.9776291567359, 577.8694581508747 676.9941334323606, 578.6666717529297 681 M578.6666717529297 681 C580.5041436088875 709.9488027155303, 580.7979741736181 740.0242167651686, 578.6666717529297 774 M578.6666717529297 774 C581.2260660936447 779.1509144287497, 570.1579797693857 785.0872164231401, 568.6666717529297 784 M568.6666717529297 784 C508.24268236548073 789.7511199679235, 454.6169482430794 786.4379627244297, 370.6666717529297 784 M370.6666717529297 784 C364.96187617540414 786.1525282787978, 360.8809821369418 775.947874192879, 360.6666717529297 774 M360.6666717529297 774 C359.0756131921711 738.8258071676976, 362.614692824852 706.0656970460017, 360.6666717529297 681 M360.6666717529297 681 C358.1003139776328 677.5640570038875, 365.17750200011363 668.4005161972713, 370.6666717529297 671 M370.6666717529297 671 C370.6666717529297 671, 370.6666717529297 671, 370.6666717529297 671" stroke="rgb(0, 0, 0)" stroke-width="1" fill="none"/></g><g class="text-container" transform="matrix(1, 0, 0, 1, 469.712, 714.024)"><text font-family="'Arial'" font-size="22px" font-style="normal" font-weight="bold" text-decoration="none" text-anchor="middle" fill="rgb(255,255,255)" fill-opacity="1" dy="0.9090909090909091em" transform="" style="font-style: normal;font-weight: 700;font-size: 22px;font-family: Comic Sans MS, cursive;" stroke="none" stroke-width="1px">Meal</text></g><g><path d="M367.9614353020131 388.7120818613843 L575.4815383427249 390.59295868224325 L575.7577232627704 388.70061698618815 L577.6424018257965 398.94525939747473 L578.7325657900072 497.1310420957576 L572.8245708158994 498.0700716378422 L566.7510167939411 503.63856891562835 L366.8503035431754 502.1189578467496 L361.65426685249486 497.14980517364995 L359.22016749811394 491.14861378699686 L362.00765860104053 395.41093023900874 L366.0032753696782 390.67339346075397 L368.9702660156403 386.21385434147004" stroke="none" stroke-width="0" fill="rgb(51, 153, 102)"/><path d="M370.6666717529297 388 M370.6666717529297 388 C432.75067830990014 388.8304870162332, 499.7733490885558 392.1094731247514, 568.6666717529297 388 M568.6666717529297 388 C576.5788656146216 387.1387534471304, 576.6239387644877 395.40441295024624, 578.6666717529297 398 M578.6666717529297 398 C576.8123201532534 431.3236082215671, 574.8824570681511 465.7644399797154, 578.6666717529297 491 M578.6666717529297 491 C578.6543523169363 495.50338926390066, 570.1820253292569 501.53032936302696, 568.6666717529297 501 M568.6666717529297 501 C506.6221970418214 505.7052432439408, 444.3031637940542 502.0238345258017, 370.6666717529297 501 M370.6666717529297 501 C366.61823715895514 499.43569010947556, 359.77573384584923 494.64802248497904, 360.6666717529297 491 M360.6666717529297 491 C359.60676270228254 463.2550311165502, 357.137770030631 432.77808112245293, 360.6666717529297 398 M360.6666717529297 398 C359.7983957627961 393.77978167838023, 368.2876936384976 386.57045756668816, 370.6666717529297 388 M370.6666717529297 388 C370.6666717529297 388, 370.6666717529297 388, 370.6666717529297 388" stroke="rgb(0, 0, 0)" stroke-width="1" fill="none"/></g><g class="text-container" transform="matrix(1, 0, 0, 1, 469.819, 431.024)"><text font-family="'Arial'" font-size="22px" font-style="normal" font-weight="bold" text-decoration="none" text-anchor="middle" fill="rgb(255,255,255)" fill-opacity="1" dy="0.9090909090909091em" transform="" style="font-style: normal;font-weight: 700;font-size: 22px;font-family: Comic Sans MS, cursive;" stroke="none" stroke-width="1px">Meal-Plan</text></g><g><path d="M890.6951120918523 668.0426233108308 L1087.799433607893 670.1883215936075 L1094.8473567998633 674.214934059035 L1096.0127556189304 679.0101022025791 L1097.2980262083972 780.1832152410558 L1093.463022913006 781.4220859074567 L1086.100470903903 782.2834161889565 L885.6779426058397 781.7975197606554 L878.674593050045 783.6436178248515 L876.8172930500556 773.2405862181523 L877.2289080290669 680.0720494393298 L883.2547070729984 672.8499145878174 L889.2362703393666 671.3900912302848" stroke="none" stroke-width="0" fill="rgb(192, 192, 192)"/><path d="M888.6666717529297 671 M888.6666717529297 671 C951.305940855049 669.4779560853549, 1013.4018335787318 668.2488787153627, 1086.6666717529297 671 M888.6666717529297 671 C944.149250373263 670.7111898254792, 1002.2975792802627 669.7037953461638, 1086.6666717529297 671 M1086.6666717529297 671 C1089.4368462216796 669.0080677786298, 1098.320192951347 678.0781970970899, 1096.6666717529297 681 M1086.6666717529297 671 C1090.8756968962948 672.3308947127604, 1097.6570014964477 675.9336486817281, 1096.6666717529297 681 M1096.6666717529297 681 C1093.3258266349076 698.5719403275001, 1096.8305088827867 720.0509626327159, 1096.6666717529297 774 M1096.6666717529297 681 C1094.6644639331514 706.1084478355074, 1097.0216637072358 733.5600577670317, 1096.6666717529297 774 M1096.6666717529297 774 C1098.4550568488996 776.5259566193051, 1091.8746153280463 785.3160463768609, 1086.6666717529297 784 M1096.6666717529297 774 C1093.7529495745146 778.2365355446804, 1093.189752499403 782.0860112701052, 1086.6666717529297 784 M1086.6666717529297 784 C1010.2285646521052 791.4157822007531, 929.2700785225063 790.3896245367131, 888.6666717529297 784 M1086.6666717529297 784 C1040.8629861903416 786.5927985494019, 992.8573516557216 785.8888526287142, 888.6666717529297 784 M888.6666717529297 784 C881.9128638050009 784.8475762749463, 880.3978432497498 780.0058582952892, 878.6666717529297 774 M888.6666717529297 784 C881.6052966979834 783.1670564310368, 877.2773339933759 781.1335838389066, 878.6666717529297 774 M878.6666717529297 774 C879.0042333845336 742.677728507085, 878.5444259342033 708.711471414505, 878.6666717529297 681 M878.6666717529297 774 C878.8000669743104 741.4071144363406, 878.4649660027383 712.5005497063086, 878.6666717529297 681 M878.6666717529297 681 C881.3101002994268 674.3324024884055, 887.0504426704695 673.957860185742, 888.6666717529297 671 M878.6666717529297 681 C876.3798969068173 676.1213901242792, 883.8424684556952 671.8511539675983, 888.6666717529297 671 M888.6666717529297 671 C888.6666717529297 671, 888.6666717529297 671, 888.6666717529297 671 M888.6666717529297 671 C888.6666717529297 671, 888.6666717529297 671, 888.6666717529297 671" stroke="rgb(0, 0, 0)" stroke-width="1" fill="none"/></g><g class="text-container" transform="matrix(1, 0, 0, 1, 987.947, 714.024)"><text font-family="'Arial'" font-size="22px" font-style="normal" font-weight="bold" text-decoration="none" text-anchor="middle" fill="rgb(255,255,255)" fill-opacity="1" dy="0.9090909090909091em" transform="" style="font-style: normal;font-weight: 700;font-size: 22px;font-family: Comic Sans MS, cursive;" stroke="none" stroke-width="1px">Rating</text></g><g><path d="M761.4582887648496 123.24589899245835 L895.8307192085697 128.3949360887361 L897.8284344608262 126.84582558676897 L901.1659669259858 133.1661449607017 L901.8139689432899 189.90081528123534 L894.6125827077691 193.14950434792112 L893.2909139195992 194.46547103985736 L754.5243171008223 195.20231060507285 L756.0223450124043 190.0937003105747 L750.0177162752186 184.11649988088826 L751.3592459570042 136.06206834713902 L755.3743235959336 130.46753165818834 L758.655953477378 124.13536161998526" stroke="none" stroke-width="0" fill="rgb(204, 255, 255)"/><path d="M760.6666717529297 125 M760.6666717529297 125 C789.8400231412165 124.29195397076616, 817.4308831623034 124.6587074962539, 890.6666717529297 125 M890.6666717529297 125 C893.2863632576758 123.91852386694589, 903.3177544097101 132.68545294334547, 900.6666717529297 135 M900.6666717529297 135 C897.9556008815443 153.92416108633373, 901.2484276881182 171.7858024725055, 900.6666717529297 184 M900.6666717529297 184 C901.8708939429789 190.6680990564915, 896.8411735909259 195.69320635368845, 890.6666717529297 194 M890.6666717529297 194 C847.1662155207472 196.9765457073887, 810.7793496102158 193.4357419449852, 760.6666717529297 194 M760.6666717529297 194 C752.4236100041945 194.50446276223073, 749.0895953441635 188.93988015057695, 750.6666717529297 184 M750.6666717529297 184 C752.8707007095006 167.38059265908367, 751.5926513488209 150.43984667737587, 750.6666717529297 135 M750.6666717529297 135 C750.020201884791 130.66567858959453, 756.5057167406701 125.70690717455292, 760.6666717529297 125 M760.6666717529297 125 C760.6666717529297 125, 760.6666717529297 125, 760.6666717529297 125" stroke="rgb(0, 0, 0)" stroke-width="1" fill="none"/></g><g class="text-container" transform="matrix(1, 0, 0, 1, 824.993, 146.024)"><text font-family="'Arial'" font-size="22px" font-style="normal" font-weight="bold" text-decoration="none" text-anchor="middle" fill="rgb(0,0,0)" fill-opacity="1" dy="0.9090909090909091em" transform="" style="font-style: normal;font-weight: 700;font-size: 22px;font-family: Comic Sans MS, cursive;" stroke="none" stroke-width="1px">UnitTypes</text></g><g><path d="M42.158282439286126 632.0169947683153 L174.2270729150304 633.2304090937874 L179.13823718401122 635.7040955209734 L181.87767762104284 644.1865404794593 L180.72204629960822 694.0377394465384 L174.74776551809438 698.395469702894 L170.8938112062566 703.8643093289903 L38.461156656021174 703.7042046881403 L33.802507122392925 699.4288929535373 L28.3043078083443 693.2812400638012 L32.83396027719885 644.1733060195894 L32.919498116697646 633.563224150261 L41.36842010271806 634.6307244390489" stroke="none" stroke-width="0" fill="rgb(204, 255, 255)"/><path d="M40 633 M40 633 C68.56428290092742 630.9900559266567, 101.45312927805548 629.427205159605, 170 633 M170 633 C177.79126932485923 635.0336645609129, 180.97344656430693 641.1661499535628, 180 643 M180 643 C178.99744429382787 653.6927104953884, 181.71483745117487 667.8301256637523, 180 692 M180 692 C181.36120378940703 697.8104857195623, 175.3403250040182 700.3938598789099, 170 702 M170 702 C120.55994303335973 702.7169488798022, 66.23105698864035 704.9762791303857, 40 702 M40 702 C32.74333042683524 704.6479503966439, 31.905097387077927 698.8208893754753, 30 692 M30 692 C29.416017742666565 676.8195279621352, 33.4935330928748 663.5183059995712, 30 643 M30 643 C32.449599766515604 638.2984715228754, 37.657724429400226 635.9073154242487, 40 633 M40 633 C40 633, 40 633, 40 633" stroke="rgb(0, 0, 0)" stroke-width="1" fill="none"/></g><g class="text-container" transform="matrix(1, 0, 0, 1, 104.332, 654.024)"><text font-family="'Arial'" font-size="22px" font-style="normal" font-weight="bold" text-decoration="none" text-anchor="middle" fill="rgb(0,0,0)" fill-opacity="1" dy="0.9090909090909091em" transform="" style="font-style: normal;font-weight: 700;font-size: 22px;font-family: Comic Sans MS, cursive;" stroke="none" stroke-width="1px">FoodTypes</text></g><g><path d="M312.668320795289 827.5650857249196 L515.9416287703658 827.1248838531716 L520.0014763343884 828.6601086304526 L523.0920440117546 838.0321312527346 L522.721669267769 931.4049702768168 L518.2805483317528 937.426686069684 L514.0976302796875 939.2824764221346 L310.54334141243163 935.9250811496931 L307.6627791441566 934.9594106153813 L306.32210960344725 927.7411876689996 L303.53376458711654 836.7061097912172 L306.48069105680037 829.2231132101186 L314.04255668644083 824.0793230244763" stroke="none" stroke-width="0" fill="rgb(255, 204, 153)"/><path d="M315.6666717529297 826 M315.6666717529297 826 C378.0647079043533 822.837187721866, 432.1289508961765 824.0671526734044, 513.6666717529297 826 M315.6666717529297 826 C375.45094401296706 829.4164261652649, 437.31617964040794 829.2027929333549, 513.6666717529297 826 M513.6666717529297 826 C517.0753500266418 826.6817471430376, 525.2960255756834 831.5367779246762, 523.6666717529297 836 M513.6666717529297 826 C522.5032489630125 825.0516863371274, 521.3796174028084 829.2462180062687, 523.6666717529297 836 M523.6666717529297 836 C523.4026683902925 863.7353479565274, 524.2212356315836 885.1817175295894, 523.6666717529297 929 M523.6666717529297 836 C524.8258611836287 871.7534991904173, 524.8345709714939 904.9284288850172, 523.6666717529297 929 M523.6666717529297 929 C526.5283187207192 937.4464372333056, 518.5758735627797 940.7919335385898, 513.6666717529297 939 M523.6666717529297 929 C526.7210636496787 935.1637245321964, 520.5894989870783 936.6993879800856, 513.6666717529297 939 M513.6666717529297 939 C451.5415690183983 939.6796363898092, 388.67676093815305 942.5030961938145, 315.6666717529297 939 M513.6666717529297 939 C454.49352931300285 936.3016571721628, 393.91376188283294 934.3945370385801, 315.6666717529297 939 M315.6666717529297 939 C313.034122673722 939.5945146847703, 307.03427425499916 935.9924553596019, 305.6666717529297 929 M315.6666717529297 939 C307.1647619727286 940.7215613462379, 307.18109733429634 933.3804156159671, 305.6666717529297 929 M305.6666717529297 929 C303.9561849297211 903.288044804874, 304.85469636111895 877.0288868187588, 305.6666717529297 836 M305.6666717529297 929 C306.56266736174507 901.9435378711571, 304.75807562920113 874.974199693362, 305.6666717529297 836 M305.6666717529297 836 C306.5667372154422 829.5638098530577, 309.6558159904637 824.0423700699963, 315.6666717529297 826 M305.6666717529297 836 C304.6775711177861 829.2516369894869, 309.94695747046904 826.1760868061461, 315.6666717529297 826 M315.6666717529297 826 C315.6666717529297 826, 315.6666717529297 826, 315.6666717529297 826 M315.6666717529297 826 C315.6666717529297 826, 315.6666717529297 826, 315.6666717529297 826" stroke="rgb(0, 0, 0)" stroke-width="1" fill="none"/></g><g class="text-container" transform="matrix(1, 0, 0, 1, 414.758, 869.024)"><text font-family="'Arial'" font-size="22px" font-style="normal" font-weight="bold" text-decoration="none" text-anchor="middle" fill="rgb(0,0,0)" fill-opacity="1" dy="0.9090909090909091em" transform="" style="font-style: normal;font-weight: 700;font-size: 22px;font-family: Comic Sans MS, cursive;" stroke="none" stroke-width="1px">Price</text></g><g><path d="M621.8635504091737 870.7916978353303 L754.1667952295118 868.4949688699155 L757.8492640960515 875.9110373662714 L757.4452603833116 878.3516325401653 L761.9441755935044 935.6240079846546 L755.5703618160903 937.4858984034894 L749.5012521115412 936.3292833862924 L616.11183863759 939.3752890775077 L613.9569785002017 935.0697712927588 L607.5034097932893 927.4632012698604 L609.9815763095556 880.2992992088086 L611.8619839650429 870.4331366457643 L620.6563258252971 867.3404332850542" stroke="none" stroke-width="0" fill="rgb(204, 255, 255)"/><path d="M620.3333282470703 870 M620.3333282470703 870 C650.885381460522 873.967147959564, 684.9515631445557 872.3570923355131, 750.3333282470703 870 M750.3333282470703 870 C754.7730385572657 870.9261961231941, 760.9782721194834 878.0153183803982, 760.3333282470703 880 M760.3333282470703 880 C758.6415370166709 896.2333786839017, 761.6042547032808 910.4511390738677, 760.3333282470703 929 M760.3333282470703 929 C761.0847852165306 935.8530118532238, 752.3906659873701 940.8729095751535, 750.3333282470703 939 M750.3333282470703 939 C696.7887478927249 937.2620762529904, 645.2061023465413 939.1836565130583, 620.3333282470703 939 M620.3333282470703 939 C615.7595689913913 936.1464994145351, 612.2879223023464 935.8440638946548, 610.3333282470703 929 M610.3333282470703 929 C607.6061996393324 910.9052544185978, 610.5217713482219 897.393719418939, 610.3333282470703 880 M610.3333282470703 880 C610.2951956160449 873.9952882348823, 616.0851199168934 872.088609030207, 620.3333282470703 870 M620.3333282470703 870 C620.3333282470703 870, 620.3333282470703 870, 620.3333282470703 870" stroke="rgb(0, 0, 0)" stroke-width="1" fill="none"/></g><g class="text-container" transform="matrix(1, 0, 0, 1, 684.633, 891.024)"><text font-family="'Arial'" font-size="22px" font-style="normal" font-weight="bold" text-decoration="none" text-anchor="middle" fill="rgb(0,0,0)" fill-opacity="1" dy="0.9090909090909091em" transform="" style="font-style: normal;font-weight: 700;font-size: 22px;font-family: Comic Sans MS, cursive;" stroke="none" stroke-width="1px">PriceTypes</text></g></svg>