<svg xmlns="http://www.w3.org/2000/svg" data-v-3acb27dc="" class="sketchy-canvas visible" width="1137" height="715" stroke-linecap="round" xmlns:xlink="http://www.w3.org/1999/xlink"><defs><clipPath id="ygc169_0_0"><rect x="25" y="25" width="1086.44" height="664.976" transform="matrix(1, 0, 0, 1, 0, 0)"/></clipPath></defs><g><path d="M380.69552171996463 144.7139512244874 M382.0851245766312 141.74186291878334 C376.34075079543766 166.68148792884872, 378.2768835257794 188.3026592730041, 379.8751608840607 215.1078055422716" stroke="rgb(0, 0, 0)" stroke-width="1" fill="none"/></g><g class="text-container" transform="matrix(1, 0, 0, 1, 349.814, 171.09)"><text font-family="'Arial'" font-size="12px" font-style="normal" font-weight="normal" text-decoration="none" text-anchor="middle" fill="rgb(0,0,0)" fill-opacity="1" dy="0.9333330790201823em" transform="" style="font-style: normal;font-weight: 400;font-size: 12px;font-family: Comic Sans MS, cursive;" stroke="none" stroke-width="1px">1...N</text></g><g><path d="M488.682132580947 87.2774645011476 M490.6003776455046 84.92331762743115 C506.728890489525 86.81633139938825, 529.4913535468592 88.39346873232346, 579.2495084336739 88.49285028393597" stroke="rgb(0, 0, 0)" stroke-width="1" fill="none"/></g><g class="text-container" transform="matrix(1, 0, 0, 1, 534.228, 109.5)"><text font-family="'Arial'" font-size="12px" font-style="normal" font-weight="normal" text-decoration="none" text-anchor="middle" fill="rgb(0,0,0)" fill-opacity="1" dy="0.9333330790201823em" transform="" style="font-style: normal;font-weight: 400;font-size: 12px;font-family: Comic Sans MS, cursive;" stroke="none" stroke-width="1px">1...1</text></g><g><path d="M381.212730961331 326.5823644953531 M378.10920507555943 326.99733350957354 C379.3418838130276 341.4099208475435, 380.45465317307844 361.113741031653, 382.66998996042895 395.9651726749594" stroke="rgb(0, 0, 0)" stroke-width="1" fill="none"/></g><g class="text-container" transform="matrix(1, 0, 0, 1, 349.814, 354.184)"><text font-family="'Arial'" font-size="12px" font-style="normal" font-weight="normal" text-decoration="none" text-anchor="middle" fill="rgb(0,0,0)" fill-opacity="1" dy="0.9333330790201823em" transform="" style="font-style: normal;font-weight: 400;font-size: 12px;font-family: Comic Sans MS, cursive;" stroke="none" stroke-width="1px">1...N</text></g><g><path d="M489.3916562990593 453.6227323026799 M487.65804534190784 450.54945884707416 C520.2020889488688 450.27045260650164, 546.393175484845 451.4976377773384, 580.4668714230729 454.1452761771809" stroke="rgb(0, 0, 0)" stroke-width="1" fill="none"/></g><g class="text-container" transform="matrix(1, 0, 0, 1, 534.239, 471.048)"><text font-family="'Arial'" font-size="12px" font-style="normal" font-weight="normal" text-decoration="none" text-anchor="middle" fill="rgb(0,0,0)" fill-opacity="1" dy="0.9333330790201823em" transform="" style="font-style: normal;font-weight: 400;font-size: 12px;font-family: Comic Sans MS, cursive;" stroke="none" stroke-width="1px">0...N</text></g><g><path d="M179.4419241040778 453.12202295596825 M178.10091188212007 453.2722320806667 C198.66641834846735 453.4341732183017, 217.42063346667697 456.0304452715415, 271.6179230699384 453.43399384604476" stroke="rgb(0, 0, 0)" stroke-width="1" fill="none"/></g><g class="text-container" transform="matrix(1, 0, 0, 1, 225.43, 475.688)"><text font-family="'Arial'" font-size="12px" font-style="normal" font-weight="normal" text-decoration="none" text-anchor="middle" fill="rgb(0,0,0)" fill-opacity="1" dy="0.9333330790201823em" transform="" style="font-style: normal;font-weight: 400;font-size: 12px;font-family: Comic Sans MS, cursive;" stroke="none" stroke-width="1px">1...1</text></g><g><path d="M381.02645311720886 507.8595365106751 M381.98679935383285 507.49605514971665 C383.43864425946305 529.5178344214248, 380.16150187392947 549.090914436029, 382.5876566571989 569.5903865617132" stroke="rgb(0, 0, 0)" stroke-width="1" fill="none"/></g><g class="text-container" transform="matrix(1, 0, 0, 1, 349.814, 533.56)"><text font-family="'Arial'" font-size="12px" font-style="normal" font-weight="normal" text-decoration="none" text-anchor="middle" fill="rgb(0,0,0)" fill-opacity="1" dy="0.9333330790201823em" transform="" style="font-style: normal;font-weight: 400;font-size: 12px;font-family: Comic Sans MS, cursive;" stroke="none" stroke-width="1px">1...3</text></g><g><path d="M797.801484601041 452.0091550375933 M800.3401153061773 451.72785801515755 C827.2935822263429 449.6302453608965, 861.3894731102733 453.96824535794906, 891.2416156594954 455.3313408905693" stroke="rgb(0, 0, 0)" stroke-width="1" fill="none"/></g><g class="text-container" transform="matrix(1, 0, 0, 1, 843.053, 475.688)"><text font-family="'Arial'" font-size="12px" font-style="normal" font-weight="normal" text-decoration="none" text-anchor="middle" fill="rgb(0,0,0)" fill-opacity="1" dy="0.9333330790201823em" transform="" style="font-style: normal;font-weight: 400;font-size: 12px;font-family: Comic Sans MS, cursive;" stroke="none" stroke-width="1px">0...N(4)</text></g><g><path d="M582.0848014860193 626.2159175003526 M582.3337503237573 629.1621360719543 C543.832504455313 626.0290669070841, 505.4440401763988 627.3383238612503, 488.1818977417522 628.5081370576628" stroke="rgb(0, 0, 0)" stroke-width="1" fill="none"/></g><g class="text-container" transform="matrix(1, 0, 0, 1, 534.197, 591.476)"><text font-family="'Arial'" font-size="12px" font-style="normal" font-weight="normal" text-decoration="none" text-anchor="middle" fill="rgb(0,0,0)" fill-opacity="1" dy="0.9333330790201823em" transform="" style="font-style: normal;font-weight: 400;font-size: 12px;font-family: Comic Sans MS, cursive;" stroke="none" stroke-width="1px">1...1</text></g><g><path d="M282.201985334863 29.946007588239382 L484.3723469096718 28.92386926034523 L483.27632738487273 31.406082924187803 L491.24656671258964 41.58920745704148 L489.07032313779195 136.1079269094446 L485.7284362637207 141.37004713100825 L480.57715393744877 145.1814593895223 L277.74835108136404 141.97041073698088 L274.0074117112637 141.28744617298884 L269.3528885836254 135.8723150204693 L272.1618798545625 38.333450298644685 L274.5473493342883 36.11900563580745 L278.1173557446106 28.496373277193843" stroke="none" stroke-width="0" fill="rgb(51, 204, 204)"/><path d="M280.8138427734375 30 M280.8138427734375 30 C334.2668179677866 35.37378859577593, 384.27526157262656 31.672552216832848, 478.8138427734375 30 M280.8138427734375 30 C344.66016749616034 25.80151225120615, 407.0471527492393 26.730296701394796, 478.8138427734375 30 M478.8138427734375 30 C483.7055919825495 29.5453703727798, 490.21219584151936 33.098720051471076, 488.8138427734375 40 M478.8138427734375 30 C485.20721985182104 30.618096668207524, 491.48029245420724 33.869493940536124, 488.8138427734375 40 M488.8138427734375 40 C492.4845122497298 70.2107761786112, 491.09488617716823 97.84149176864824, 488.8138427734375 133 M488.8138427734375 40 C492.01168452762573 61.97756782437751, 491.07797690572414 83.8823940677991, 488.8138427734375 133 M488.8138427734375 133 C487.7057601525538 139.2003308294913, 481.03888943813985 142.52711663327608, 478.8138427734375 143 M488.8138427734375 133 C486.23242875411387 138.90439386189914, 483.0892692692205 144.34755667762155, 478.8138427734375 143 M478.8138427734375 143 C410.1076931839138 146.15220951773398, 337.1644259155299 143.91073992909244, 280.8138427734375 143 M478.8138427734375 143 C434.93604178249814 142.54683213545388, 387.4540843575026 142.4602389967999, 280.8138427734375 143 M280.8138427734375 143 C275.23570521629466 145.98059890776096, 271.4697798900809 136.24605044715827, 270.8138427734375 133 M280.8138427734375 143 C273.5530161022129 142.23052550314193, 272.1679312620695 140.74037239221113, 270.8138427734375 133 M270.8138427734375 133 C272.58167478766524 112.30364765683858, 269.44938418978165 86.04564457159312, 270.8138427734375 40 M270.8138427734375 133 C273.1795450371668 101.59918954848322, 271.7570408046313 70.34698394964454, 270.8138427734375 40 M270.8138427734375 40 C272.28767806592725 38.13575756672299, 274.6088740654986 28.756261994613734, 280.8138427734375 30 M270.8138427734375 40 C268.2132773771589 36.052829143178734, 278.6256135723931 28.137832653217117, 280.8138427734375 30 M280.8138427734375 30 C280.8138427734375 30, 280.8138427734375 30, 280.8138427734375 30 M280.8138427734375 30 C280.8138427734375 30, 280.8138427734375 30, 280.8138427734375 30" stroke="rgb(0, 0, 0)" stroke-width="1" fill="none"/></g><g class="text-container" transform="matrix(1, 0, 0, 1, 379.932, 73.0239)"><text font-family="'Arial'" font-size="22px" font-style="normal" font-weight="bold" text-decoration="none" text-anchor="middle" fill="rgb(255,255,255)" fill-opacity="1" dy="0.9090909090909091em" transform="" style="font-style: normal;font-weight: 700;font-size: 22px;font-family: Comic Sans MS, cursive;" stroke="none" stroke-width="1px">Unit</text></g><g><path d="M280.0381436056738 395.9938564944624 L480.2386847507569 396.29590131295964 L488.2525714899863 400.824697762187 L488.5034943137499 407.76056386705903 L490.65065838720847 505.3880927297564 L486.90433210855394 507.63364379838555 L476.1144947466279 511.6243392580159 L277.68157589378285 509.80498732031674 L276.5203846070413 508.67083181106915 L269.2795253094696 501.69589450890516 L273.0976145284044 404.6838970052457 L274.3252543061218 399.8901641373253 L278.37100454791226 398.9508746233148" stroke="none" stroke-width="0" fill="rgb(153, 204, 0)"/><path d="M280.8138427734375 396.1875 M280.8138427734375 396.1875 C329.38021790547344 398.5351851769601, 379.94140642934155 394.9374204967656, 478.8138427734375 396.1875 M478.8138427734375 396.1875 C484.7868340563009 398.7926411401358, 491.70911321147594 403.09293854954035, 488.8138427734375 406.1875 M488.8138427734375 406.1875 C485.3235971205775 430.6773574776135, 486.5070117752964 449.4763687828554, 488.8138427734375 499.1875 M488.8138427734375 499.1875 C489.2324111847872 503.0643606078199, 483.78348628600577 509.87389783872374, 478.8138427734375 509.1875 M478.8138427734375 509.1875 C422.9339901643167 510.1114496638798, 368.09882027551424 510.08364444739, 280.8138427734375 509.1875 M280.8138427734375 509.1875 C272.52605395847604 506.9156097415441, 273.4883343801637 504.4232184114469, 270.8138427734375 499.1875 M270.8138427734375 499.1875 C272.2859326067515 461.55153282280844, 270.75770036262253 427.88930020986317, 270.8138427734375 406.1875 M270.8138427734375 406.1875 C268.298753729757 402.87171114763004, 275.281939415566 397.42580346648225, 280.8138427734375 396.1875 M280.8138427734375 396.1875 C280.8138427734375 396.1875, 280.8138427734375 396.1875, 280.8138427734375 396.1875" stroke="rgb(0, 0, 0)" stroke-width="1" fill="none"/></g><g class="text-container" transform="matrix(1, 0, 0, 1, 379.859, 439.211)"><text font-family="'Arial'" font-size="22px" font-style="normal" font-weight="bold" text-decoration="none" text-anchor="middle" fill="rgb(255,255,255)" fill-opacity="1" dy="0.9090909090909091em" transform="" style="font-style: normal;font-weight: 700;font-size: 22px;font-family: Comic Sans MS, cursive;" stroke="none" stroke-width="1px">Meal</text></g><g><path d="M278.0594429022916 214.73508640781648 L484.9143335764441 216.90032474920181 L483.62720464542656 214.95347100739903 L490.7147735397185 225.4428729783554 L484.99080528766535 317.93269137804674 L486.58962236700876 323.6168540790392 L481.6351888354486 328.24235541138916 L274.78849032330794 324.3991912276976 L276.3214510606936 320.2504785303529 L271.6903697601043 318.18361472569484 L273.38552038996335 224.8239820452755 L276.4251230241446 215.71684334503328 L280.44458341774936 211.37002498164952" stroke="none" stroke-width="0" fill="rgb(51, 153, 102)"/><path d="M280.8138427734375 213.09375 M280.8138427734375 213.09375 C350.15023328236947 215.31601126727682, 422.90805328277605 212.9146285857157, 478.8138427734375 213.09375 M478.8138427734375 213.09375 C482.991083225437 212.87800616569407, 486.94063210939083 221.42722793983924, 488.8138427734375 223.09375 M488.8138427734375 223.09375 C487.2109185515037 240.65850578888447, 487.564338494797 264.6652712659499, 488.8138427734375 316.09375 M488.8138427734375 316.09375 C488.3889564418598 320.4363190701742, 486.23364808551685 326.31343307728156, 478.8138427734375 326.09375 M478.8138427734375 326.09375 C411.5664996099375 324.7746928722014, 342.1852446366006 320.4327456138378, 280.8138427734375 326.09375 M280.8138427734375 326.09375 C274.02846862838425 324.43871530773265, 268.4861757892676 322.44418082446055, 270.8138427734375 316.09375 M270.8138427734375 316.09375 C271.1082502264067 291.2882767200987, 272.810903949444 265.6515279442455, 270.8138427734375 223.09375 M270.8138427734375 223.09375 C271.6174256614578 219.22328395358787, 274.7815964458483 213.30115073769673, 280.8138427734375 213.09375 M280.8138427734375 213.09375 C280.8138427734375 213.09375, 280.8138427734375 213.09375, 280.8138427734375 213.09375" stroke="rgb(0, 0, 0)" stroke-width="1" fill="none"/></g><g class="text-container" transform="matrix(1, 0, 0, 1, 379.966, 256.118)"><text font-family="'Arial'" font-size="22px" font-style="normal" font-weight="bold" text-decoration="none" text-anchor="middle" fill="rgb(255,255,255)" fill-opacity="1" dy="0.9090909090909091em" transform="" style="font-style: normal;font-weight: 700;font-size: 22px;font-family: Comic Sans MS, cursive;" stroke="none" stroke-width="1px">Meal-Plan</text></g><g><path d="M588.5102185717762 396.1634064824093 L790.0572238837095 396.8340365073744 L797.0588731751726 399.70120900571993 L794.8702653061679 407.18982079556946 L797.1472556256978 506.0114485977832 L796.1020755061945 505.5732994904723 L788.6816226677904 511.2679252883064 L584.8083445158319 505.9696554456428 L582.8813701532405 503.5332199333567 L581.6762085539253 499.6195441229375 L582.5332097405196 408.6803995846392 L583.9303282805238 401.9203972045694 L592.0627426777706 398.32900529205614" stroke="none" stroke-width="0" fill="rgb(192, 192, 192)"/><path d="M589.627685546875 396.1875 M589.627685546875 396.1875 C629.7381526142091 391.297058990514, 674.208525892671 390.0840127947339, 787.627685546875 396.1875 M787.627685546875 396.1875 C791.3637063314588 397.0800240933685, 794.6845580069265 400.1151153525807, 797.627685546875 406.1875 M797.627685546875 406.1875 C793.7078736710974 441.46958992887767, 797.7998414226283 475.0033111035881, 797.627685546875 499.1875 M797.627685546875 499.1875 C800.2151801923304 506.7932646596884, 792.9346112851848 507.69453117669997, 787.627685546875 509.1875 M787.627685546875 509.1875 C728.4078459411343 505.9010576871118, 664.8197450536015 505.5805950819269, 589.627685546875 509.1875 M589.627685546875 509.1875 C582.1785747989827 506.242104151715, 576.9247402255113 506.1016951551623, 579.627685546875 499.1875 M579.627685546875 499.1875 C579.6176758295052 474.5640597260409, 575.7393626079352 448.8111902479501, 579.627685546875 406.1875 M579.627685546875 406.1875 C576.8205738802861 402.27465384884925, 588.143859318558 398.9262399668411, 589.627685546875 396.1875 M589.627685546875 396.1875 C589.627685546875 396.1875, 589.627685546875 396.1875, 589.627685546875 396.1875" stroke="rgb(0, 0, 0)" stroke-width="1" fill="none"/></g><g class="text-container" transform="matrix(1, 0, 0, 1, 688.908, 439.211)"><text font-family="'Arial'" font-size="22px" font-style="normal" font-weight="bold" text-decoration="none" text-anchor="middle" fill="rgb(255,255,255)" fill-opacity="1" dy="0.9090909090909091em" transform="" style="font-style: normal;font-weight: 700;font-size: 22px;font-family: Comic Sans MS, cursive;" stroke="none" stroke-width="1px">Rating</text></g><g><path d="M590.0264423823188 51.85466592025098 L723.4989667939088 54.75558082022207 L727.1191477264492 56.80851383432818 L728.2234472468909 63.373815187006834 L731.0443848992973 114.94054673450832 L728.9867206638187 115.74421578386797 L720.8272819006389 121.80096575801355 L583.7400063776566 121.68955209886846 L584.6937174433665 120.67596685081811 L577.785896755021 111.24422242439205 L579.4114334781508 60.44649924479432 L583.453468072447 57.58142363036749 L589.4852115797603 50.212751514302774" stroke="none" stroke-width="0" fill="rgb(204, 255, 255)"/><path d="M589.627685546875 52 M589.627685546875 52 C640.2398079337211 49.75377167147121, 686.5790022793238 49.72324405572547, 719.627685546875 52 M719.627685546875 52 C724.304160097163 51.58987134081933, 728.4520303389057 56.476485796062235, 729.627685546875 62 M729.627685546875 62 C728.9701012199807 78.93399515605641, 730.8916242246927 99.18880280655031, 729.627685546875 111 M729.627685546875 111 C730.1598370440846 118.03330649891808, 726.795104866363 120.7536687285111, 719.627685546875 121 M719.627685546875 121 C668.3670092256754 121.4570607201389, 619.572455503529 122.37046613770345, 589.627685546875 121 M589.627685546875 121 C586.4148858072651 122.17302218431882, 579.1445125477034 116.53714284668777, 579.627685546875 111 M579.627685546875 111 C577.8507756493619 97.21307330573138, 579.4000086088217 83.11415544343352, 579.627685546875 62 M579.627685546875 62 C581.3917648079544 54.80333389142429, 586.2856522680204 54.31069239762444, 589.627685546875 52 M589.627685546875 52 C589.627685546875 52, 589.627685546875 52, 589.627685546875 52" stroke="rgb(0, 0, 0)" stroke-width="1" fill="none"/></g><g class="text-container" transform="matrix(1, 0, 0, 1, 653.954, 73.0239)"><text font-family="'Arial'" font-size="22px" font-style="normal" font-weight="bold" text-decoration="none" text-anchor="middle" fill="rgb(0,0,0)" fill-opacity="1" dy="0.9090909090909091em" transform="" style="font-style: normal;font-weight: 700;font-size: 22px;font-family: Comic Sans MS, cursive;" stroke="none" stroke-width="1px">UnitTypes</text></g><g><path d="M40.70776374515492 415.69709718275476 L176.38430165837883 418.0932650691121 L175.51019340306095 419.79733621209493 L177.36764081853377 429.09567735190075 L180.35769712679604 478.70513528888375 L175.4957701085601 485.93590143644315 L172.79986591448 489.0456340496595 L36.52696415638751 485.93320832503116 L32.776844402094305 483.93836192746835 L28.003890388974526 475.49476424180324 L30.24857974123962 426.46186735870805 L32.400528078106085 423.626366709634 L40.7426198263951 418.55815834925306" stroke="none" stroke-width="0" fill="rgb(204, 255, 255)"/><path d="M40 418.1875 M40 418.1875 C70.54009709113086 417.80762360239993, 102.40790312213514 417.26785360312647, 170 418.1875 M170 418.1875 C173.36087326410563 415.7143365891427, 177.03522073006164 425.86046414552385, 180 428.1875 M180 428.1875 C180.11756503047346 450.0640615882608, 176.62793142017279 467.0287836259363, 180 477.1875 M180 477.1875 C180.20616587949144 483.1035308627317, 173.01351797713582 490.18680067776637, 170 487.1875 M170 487.1875 C140.2122292334402 484.33875976906234, 109.03766350195504 488.09479334258884, 40 487.1875 M40 487.1875 C33.0149435765202 489.45373915752225, 32.186079890205036 483.3511225177827, 30 477.1875 M30 477.1875 C31.41032537932637 463.57866325527027, 31.94308343466619 444.4611741743948, 30 428.1875 M30 428.1875 C27.399623885659658 423.08373028396045, 35.68280632833918 419.7578226040881, 40 418.1875 M40 418.1875 C40 418.1875, 40 418.1875, 40 418.1875" stroke="rgb(0, 0, 0)" stroke-width="1" fill="none"/></g><g class="text-container" transform="matrix(1, 0, 0, 1, 104.332, 439.211)"><text font-family="'Arial'" font-size="22px" font-style="normal" font-weight="bold" text-decoration="none" text-anchor="middle" fill="rgb(0,0,0)" fill-opacity="1" dy="0.9090909090909091em" transform="" style="font-style: normal;font-weight: 700;font-size: 22px;font-family: Comic Sans MS, cursive;" stroke="none" stroke-width="1px">FoodTypes</text></g><g><path d="M280.96470741793826 571.8135037534258 L485.1891329468955 574.6525454787264 L485.60203788922024 575.7621537713363 L489.0925401640823 579.3933889961227 L487.61653121433653 676.3307000026125 L483.31181092772886 680.2084477748288 L477.4682298271133 685.0070636068926 L276.7787290216229 682.797407240661 L272.1067476504767 681.3226846187368 L269.30734291586134 674.9525712452296 L272.07780911761677 579.2168562136712 L273.2392245076802 573.8439815384328 L279.68394120911734 574.0323634992421" stroke="none" stroke-width="0" fill="rgb(255, 204, 153)"/><path d="M280.8138427734375 571.975830078125 M280.8138427734375 571.975830078125 C348.68229306349946 571.794754009244, 414.00412803512023 571.4808567934928, 478.8138427734375 571.975830078125 M280.8138427734375 571.975830078125 C323.2874392043745 573.3337777853769, 364.60670370045483 572.3774211265807, 478.8138427734375 571.975830078125 M478.8138427734375 571.975830078125 C485.3624969841637 571.2267822362434, 488.58060385461266 579.3235299167419, 488.8138427734375 581.975830078125 M478.8138427734375 571.975830078125 C482.5397799698705 574.824068151257, 488.2740104004329 575.6659790988825, 488.8138427734375 581.975830078125 M488.8138427734375 581.975830078125 C486.05956462770195 615.2179625395067, 488.36173694367375 650.2434763179638, 488.8138427734375 674.975830078125 M488.8138427734375 581.975830078125 C487.5111039988653 600.5653045401723, 488.06006316850056 620.9117762143566, 488.8138427734375 674.975830078125 M488.8138427734375 674.975830078125 C491.6119253979834 681.9200166871403, 484.38643983643766 687.0099772060622, 478.8138427734375 684.975830078125 M488.8138427734375 674.975830078125 C489.8713312172186 680.4927417832638, 483.4979521540351 685.7611187333241, 478.8138427734375 684.975830078125 M478.8138427734375 684.975830078125 C426.5392619799988 684.8139739890471, 377.6754628025806 684.5653279775205, 280.8138427734375 684.975830078125 M478.8138427734375 684.975830078125 C435.87058120607486 682.8822717339119, 393.81358858172933 682.0263285088213, 280.8138427734375 684.975830078125 M280.8138427734375 684.975830078125 C275.23496322072657 682.4958284583246, 268.64768553580916 680.115841067881, 270.8138427734375 674.975830078125 M280.8138427734375 684.975830078125 C276.3198701728354 685.0675770609477, 269.31218655745903 677.8077712739895, 270.8138427734375 674.975830078125 M270.8138427734375 674.975830078125 C270.68601648348204 649.004692433785, 267.9631520390809 623.8703745559553, 270.8138427734375 581.975830078125 M270.8138427734375 674.975830078125 C269.8476064242482 642.3955583517136, 270.11020420628154 609.3108859940473, 270.8138427734375 581.975830078125 M270.8138427734375 581.975830078125 C268.9867901766478 575.3362891207621, 278.359050710292 572.0010884853789, 280.8138427734375 571.975830078125 M270.8138427734375 581.975830078125 C273.3518075900572 577.8644612392685, 278.0593326195207 573.7334895476597, 280.8138427734375 571.975830078125 M280.8138427734375 571.975830078125 C280.8138427734375 571.975830078125, 280.8138427734375 571.975830078125, 280.8138427734375 571.975830078125 M280.8138427734375 571.975830078125 C280.8138427734375 571.975830078125, 280.8138427734375 571.975830078125, 280.8138427734375 571.975830078125" stroke="rgb(0, 0, 0)" stroke-width="1" fill="none"/></g><g class="text-container" transform="matrix(1, 0, 0, 1, 379.905, 615)"><text font-family="'Arial'" font-size="22px" font-style="normal" font-weight="bold" text-decoration="none" text-anchor="middle" fill="rgb(0,0,0)" fill-opacity="1" dy="0.9090909090909091em" transform="" style="font-style: normal;font-weight: 700;font-size: 22px;font-family: Comic Sans MS, cursive;" stroke="none" stroke-width="1px">Price</text></g><g><path d="M588.2212469822899 592.8772708657804 L724.5470964959228 593.0873411400017 L725.6909289922207 595.6140607088188 L732.1592031858174 604.2829810004006 L730.6144749880059 659.3728308092182 L723.7026441676763 657.6617267499955 L720.8417901106798 663.9461362511882 L583.0566106999579 659.0547600374312 L580.2713186865028 658.4276855354873 L578.3537008748258 650.9173291375819 L578.7807152242399 601.293826169527 L580.6464412717954 599.2599977168572 L587.6659664425885 596.1463279624018" stroke="none" stroke-width="0" fill="rgb(204, 255, 255)"/><path d="M589.627685546875 593.975830078125 M589.627685546875 593.975830078125 C631.7450975158582 590.2324530878202, 666.4844972469474 593.6170856920961, 719.627685546875 593.975830078125 M719.627685546875 593.975830078125 C724.5924926510999 593.6379343547562, 726.755405563053 596.9754938240136, 729.627685546875 603.975830078125 M729.627685546875 603.975830078125 C730.5429902813406 620.050224501027, 728.7871602004108 630.4220743171272, 729.627685546875 652.975830078125 M729.627685546875 652.975830078125 C729.4289120053407 660.8302069190073, 727.0339702917994 662.2114857982702, 719.627685546875 662.975830078125 M719.627685546875 662.975830078125 C687.9126311380629 661.6832556540454, 656.4682051298678 661.601057712259, 589.627685546875 662.975830078125 M589.627685546875 662.975830078125 C585.5633410149572 661.643747325364, 579.5580267081785 659.6249840628238, 579.627685546875 652.975830078125 M579.627685546875 652.975830078125 C578.5770193212173 640.4341097728592, 577.1653521785083 629.7042370626484, 579.627685546875 603.975830078125 M579.627685546875 603.975830078125 C579.4914488137023 597.8824631478781, 582.4889109380392 592.5415321476415, 589.627685546875 593.975830078125 M589.627685546875 593.975830078125 C589.627685546875 593.975830078125, 589.627685546875 593.975830078125, 589.627685546875 593.975830078125" stroke="rgb(0, 0, 0)" stroke-width="1" fill="none"/></g><g class="text-container" transform="matrix(1, 0, 0, 1, 653.927, 615)"><text font-family="'Arial'" font-size="22px" font-style="normal" font-weight="bold" text-decoration="none" text-anchor="middle" fill="rgb(0,0,0)" fill-opacity="1" dy="0.9090909090909091em" transform="" style="font-style: normal;font-weight: 700;font-size: 22px;font-family: Comic Sans MS, cursive;" stroke="none" stroke-width="1px">PriceTypes</text></g><g><path d="M898.9875248345622 397.79144138974937 L1101.4973014381953 397.6073854119552 L1101.5867160312293 402.46271008361265 L1105.524717459223 403.77907400362807 L1103.8844768785718 501.46803690344404 L1101.234209758315 504.49465448164443 L1094.7274316373885 509.7146739185727 L897.1900339028349 509.31017953080453 L890.2101157103831 505.14482013698773 L888.0370356009445 497.80185020466035 L886.3150797169933 403.69658094681216 L890.7564865404659 399.4147503332936 L896.8666067244533 393.81285593259776" stroke="none" stroke-width="0" fill="rgb(192, 192, 192)"/><path d="M898.4415283203125 396.1875 M898.4415283203125 396.1875 C974.1728415788286 398.8619351941851, 1048.8897458654174 398.00632882860305, 1096.4415283203125 396.1875 M1096.4415283203125 396.1875 C1102.4326747255102 395.27872501605407, 1103.9116733791022 400.27030771610356, 1106.4415283203125 406.1875 M1106.4415283203125 406.1875 C1101.4910050181822 438.12601622819756, 1103.6074069782153 471.5512062822254, 1106.4415283203125 499.1875 M1106.4415283203125 499.1875 C1106.8933879153535 501.9486772271499, 1103.8648884681309 511.0787262144689, 1096.4415283203125 509.1875 M1096.4415283203125 509.1875 C1053.94416638559 509.0974973179872, 1006.6054705617821 512.6194295622935, 898.4415283203125 509.1875 M898.4415283203125 509.1875 C895.0034574697714 509.8256796629545, 891.1591960890778 501.760561084962, 888.4415283203125 499.1875 M888.4415283203125 499.1875 C891.1230648401508 474.7858775959521, 889.7165094492124 456.0836520905292, 888.4415283203125 406.1875 M888.4415283203125 406.1875 C889.7227062117641 401.522612548587, 892.0536048804005 394.5033038019369, 898.4415283203125 396.1875 M898.4415283203125 396.1875 C898.4415283203125 396.1875, 898.4415283203125 396.1875, 898.4415283203125 396.1875" stroke="rgb(0, 0, 0)" stroke-width="1" fill="none"/></g><g class="text-container" transform="matrix(1, 0, 0, 1, 997.65, 439.211)"><text font-family="'Arial'" font-size="22px" font-style="normal" font-weight="bold" text-decoration="none" text-anchor="middle" fill="rgb(255,255,255)" fill-opacity="1" dy="0.9090909090909091em" transform="" style="font-style: normal;font-weight: 700;font-size: 22px;font-family: Comic Sans MS, cursive;" stroke="none" stroke-width="1px">Image</text></g></svg>