<svg xmlns="http://www.w3.org/2000/svg" data-v-3acb27dc="" class="sketchy-canvas visible" width="1047" height="689"
     stroke-linecap="round">
    <defs>
        <clipPath id="ygc168_5_0">
            <rect x="25" y="25" width="997" height="639" transform="matrix(1, 0, 0, 1, 0, 0)"/>
        </clipPath>
    </defs>
    <g>
        <path d="M91.3653505339982 319.85143912821553 M90.47579659271524 319.86381939298184 C183.95060834315342 249.00770914751558, 273.8175935388536 178.82473462780425, 378.1069926350181 94.84879548112752"
              stroke="rgb(0, 0, 0)" stroke-width="1" fill="none"/>
    </g>
    <g>
        <path d="M90.5473420047585 337.6342509391302 M89.72411096840794 336.0797665118517 C225.92537984761876 297.23445770860116, 363.48262655971206 260.998895786925, 532.7730460202498 223.69028901079648"
              stroke="rgb(0, 0, 0)" stroke-width="1" fill="none"/>
    </g>
    <g>
        <path d="M92.68860532872878 355.6100292984712 M88.09611969225087 354.4931621539504 C175.7525637683385 375.7082642953858, 257.8835164559248 399.25897418824707, 345.39418749531154 423.50818320557806"
              stroke="rgb(0, 0, 0)" stroke-width="1" fill="none"/>
    </g>
    <g>
        <path d="M90.56694769468817 345.04451603425974 M91.05287696753254 341.52813077918404 C237.02207597126767 336.4227539192438, 382.10815412987176 326.4339288392874, 518.1675304020127 311.61084307618864 M90.2489943410329 343.2029176876853 C231.28448167872267 336.6455055346266, 371.4531669834486 326.3253641681583, 518.5619014797782 311.0168978855843"
              stroke="rgb(0, 0, 0)" stroke-width="1" fill="none"/>
    </g>
    <g>
        <path d="M91.4738375241965 365.8617534940669 M90.07248480765409 369.71564218844077 C175.65529037493334 434.8410866788112, 257.27050804196796 500.5114889366892, 378.8905433586496 591.4361777963989 M89.31739527623176 368.1361237693578 C162.64674876390845 423.1156899549178, 235.31635982774864 477.7880840488528, 378.9644059074313 593.3424173533867"
              stroke="rgb(0, 0, 0)" stroke-width="1" fill="none"/>
    </g>
    <g>
        <path d="M461.22197752411853 94.29958290357882 M459.7176132947022 95.0867962050819 C501.72082189537514 123.08319980093268, 538.8343299581181 151.78917865794318, 565.1494708110268 169.90122228995523"
              stroke="rgb(0, 0, 0)" stroke-width="1" fill="none" stroke-dasharray="6 2"/>
    </g>
    <g>
        <path d="M559.2341894665451 175.82300262242381 M559.8385507439298 174.60045797528667 C562.1800592592894 173.14084266673132, 564.8034396515541 173.26426986207605, 567.0645558403174 172.73850818373788 M559.313364518122 173.04976961964417 C561.3362482749362 173.1902879276373, 563.2826130643131 172.5352009440617, 565.7870615237742 172.60667731028403 M565.4279007209785 171.8662909472982 C565.8888442789678 170.32914705505294, 564.5033068481555 167.38693166012882, 564.2768040279742 166.02211632242006 M565.957809785821 172.80196751666253 C565.4598699796325 169.42864029310968, 564.8794766119884 167.07251350188218, 565.5788115366715 165.76086106995052"
              stroke="rgb(0, 0, 0)" stroke-width="1.0000000027943106" fill="none"/>
    </g>
    <g class="text-container" transform="matrix(1, 0, 0, 1, 473.271, 134.418)">
        <text font-family="'Arial'" font-size="12px" font-style="normal" font-weight="normal" text-decoration="none"
              text-anchor="middle" fill="rgb(0,0,0)" fill-opacity="1" dy="0.9333330790201823em" transform=""
              style="font-style: normal;font-weight: 400;font-size: 12px;font-family: Comic Sans MS, cursive;"
              stroke="none" stroke-width="1px">&lt;&lt;include&gt;&gt;
        </text>
    </g>
    <g>
        <path d="M693.2950559404939 217.70734205685395 M695.5616948964537 216.31314850551158 C741.1825519646648 226.5342590560408, 785.610557594322 231.9217068029193, 837.9780636124424 237.24115888899914"
              stroke="rgb(0, 0, 0)" stroke-width="1" fill="none" stroke-dasharray="6 2"/>
    </g>
    <g>
        <path d="M833.7612076536568 245.7053674913862 M833.2547501397033 243.51814438210013 C835.363542795799 241.61539086650288, 837.0585070303358 239.4819188743022, 838.9319996171607 239.0188468238364 M833.0309332828248 242.91960782121683 C835.0476670916293 241.95897004862465, 836.7153264777774 240.644733794433, 838.9546364135828 238.7670822956995 M839.7759975567327 239.0687835094636 C837.1435024722957 237.9118928184952, 835.801656388718 236.41260111521638, 833.8072706418546 234.06597350494096 M839.0782881502204 238.62237227077608 C837.9290573969345 237.25003138644658, 836.4795601560678 235.53150590428103, 834.5417964760397 233.07317992980038"
              stroke="rgb(0, 0, 0)" stroke-width="0.9999999982706181" fill="none"/>
    </g>
    <g class="text-container" transform="matrix(1, 0, 0, 1, 767, 190.656)">
        <text font-family="'Arial'" font-size="12px" font-style="normal" font-weight="normal" text-decoration="none"
              text-anchor="middle" fill="rgb(0,0,0)" fill-opacity="1" dy="0.9333330790201823em" transform=""
              style="font-style: normal;font-weight: 400;font-size: 12px;font-family: Comic Sans MS, cursive;"
              stroke="none" stroke-width="1px">&lt;&lt;include&gt;&gt;
        </text>
    </g>
    <g>
        <path d="M461.75045094977287 414.64996887757513 M462.0474665212102 410.1549090376886 C486.4140758887207 395.677187172979, 502.6563239875469 384.75227958693915, 567.5651525037401 336.8924421237296"
              stroke="rgb(0, 0, 0)" stroke-width="1" fill="none" stroke-dasharray="6 2"/>
    </g>
    <g>
        <path d="M562.6470131307431 341.97130270194276 M565.0325704868293 341.5546781901028 C564.5936721578521 340.33764840873437, 565.3706579120368 337.75016834657526, 567.1846776710144 334.5342168232871 M565.9275953115913 335.4067915916523 C564.5697704441442 335.0099221228066, 562.3237567924729 334.5976444426335, 558.4251961087061 334.0802549193812"
              stroke="rgb(0, 0, 0)" stroke-width="1.0000000027943106" fill="none"/>
    </g>
    <g class="text-container" transform="matrix(1, 0, 0, 1, 473.271, 359.582)">
        <text font-family="'Arial'" font-size="12px" font-style="normal" font-weight="normal" text-decoration="none"
              text-anchor="middle" fill="rgb(0,0,0)" fill-opacity="1" dy="0.9333330790201823em" transform=""
              style="font-style: normal;font-weight: 400;font-size: 12px;font-family: Comic Sans MS, cursive;"
              stroke="none" stroke-width="1px">&lt;&lt;include&gt;&gt;
        </text>
    </g>
    <g>
        <path d="M696.4033242634018 287.3863940776542 M695.2184439409463 290.8211479603899 C748.834221827253 274.7444492221226, 806.5328250003395 269.2821448361954, 836.7033665331132 263.25464330888565 M693.9455561792155 291.496583636269 C727.4411974423394 287.975759520051, 761.4799173614884 281.7560961166341, 840.3281365665026 267.20226015435946"
              stroke="rgb(0, 0, 0)" stroke-width="1" fill="none" stroke-dasharray="6 2"/>
    </g>
    <g>
        <path d="M834.1387954218508 270.15050657230523 M836.1416342681334 271.60449225132857 C836.7581098782467 270.37502321244466, 838.5711898157042 269.0268518085689, 840.160885675395 266.0088040697416 M835.9943130384141 272.2856382021679 C837.2785933319535 270.89399537512645, 837.8110243563784 268.537355663623, 839.7677278876575 265.5901038791904 M840.1936979719375 266.1890109999606 C837.4805303474685 264.70838301067846, 836.1726797987808 263.1642675143096, 833.7466419804229 261.10986084513746 M839.8992437329146 266.1712242801519 C837.9944641249965 264.61850983774144, 834.9139458926635 263.1908671067915, 833.8943550186735 261.8426131652559"
              stroke="rgb(0, 0, 0)" stroke-width="1.000000024962535" fill="none"/>
    </g>
    <g class="text-container" transform="matrix(1, 0, 0, 1, 767, 301.403)">
        <text font-family="'Arial'" font-size="12px" font-style="normal" font-weight="normal" text-decoration="none"
              text-anchor="middle" fill="rgb(0,0,0)" fill-opacity="1" dy="0.9333330790201823em" transform=""
              style="font-style: normal;font-weight: 400;font-size: 12px;font-family: Comic Sans MS, cursive;"
              stroke="none" stroke-width="1px">&lt;&lt;include&gt;&gt;
        </text>
    </g>
    <g>
        <path d="M465.1426958163319 593.1484277897523 M465.34543096710263 590.9899958669392 C500.12464464366894 563.5963934776346, 536.5726204530882 542.8688749618909, 563.2958881681297 521.9360750492842 M462.8451046863981 591.8246027640247 C494.04225301505136 570.7013926085001, 526.595898697484 550.5162760603123, 563.9054075944906 523.6361597335606"
              stroke="rgb(0, 0, 0)" stroke-width="1" fill="none" stroke-dasharray="6 2"/>
    </g>
    <g>
        <path d="M560.2323520534799 532.1904126389966 M563.929104717869 530.805376039019 C563.8782195117756 526.5427330238725, 563.4408484075351 523.8351956616184, 563.4296158088641 522.309235848573 M563.6735164622203 522.898454901692 C561.6704607350325 522.9667744374675, 560.0835157340827 521.271218059633, 558.276456848243 521.8565342602932"
              stroke="rgb(0, 0, 0)" stroke-width="0.9999999863291452" fill="none"/>
    </g>
    <g class="text-container" transform="matrix(1, 0, 0, 1, 553.871, 560.095)">
        <text font-family="'Arial'" font-size="12px" font-style="normal" font-weight="normal" text-decoration="none"
              text-anchor="middle" fill="rgb(0,0,0)" fill-opacity="1" dy="0.9333330790201823em" transform=""
              style="font-style: normal;font-weight: 400;font-size: 12px;font-family: Comic Sans MS, cursive;"
              stroke="none" stroke-width="1px">&lt;&lt;include&gt;&gt;
        </text>
    </g>
    <g>
        <path d="M73.55753488369703 309.05992520949724 M73.55753488369703 309.05992520949724 C74.38304420871002 321.35789263874494, 60.82755865523729 326.05694858921936, 53.22302395600691 320.6116935919574 M53.22302395600691 320.6116935919574 C46.41622558255985 318.32118076930067, 44.63421806510221 315.8486171438495, 46.44245508145607 309.05992520949724 M46.44245508145607 309.05992520949724 C49.24063186405637 299.92419070219347, 56.442757154740626 291.04267094876224, 66.7769660091462 297.50815682703706 M66.7769660091462 297.50815682703706 C72.00367304895987 299.4812758648096, 74.42106517378818 305.53934517283767, 73.55753488369703 309.05992520949724 M73.55753488369703 309.05992520949724 C73.55753488369703 309.05992520949724, 73.55753488369703 309.05992520949724, 73.55753488369703 309.05992520949724"
              stroke="rgb(0, 0, 0)" stroke-width="1.5186298375489564" fill="none"/>
    </g>
    <g/>
    <g>
        <path d="M60.000000953674316 321.63421749797703 M60.000000953674316 321.63421749797703 C61.893417110622195 363.19334750377607, 62.675334223133866 366.5813026660455, 60.000000953674316 366.4324033790486"
              stroke="rgb(0, 0, 0)" stroke-width="1.8105067983592504" fill="none"/>
    </g>
    <g>
        <path d="M88.91805237484168 337.6126132834851 M88.91805237484168 337.6126132834851 C86.85052349803567 335.655334449385, 86.93472271560992 336.6327083872916, 60.350242913244244 337.6126132834851 M60.350242913244244 337.6126132834851 C30.398545667573327 338.50011918986553, 30.526119882739955 335.078628684644, 31.081949532506947 337.6126132834851 M31.081949532506947 337.6126132834851 C31.081949532506947 337.6126132834851, 31.081949532506947 337.6126132834851, 31.081949532506947 337.6126132834851"
              stroke="rgb(0, 0, 0)" stroke-width="1.4563278622580842" fill="none"/>
    </g>
    <g>
        <path d="M30.73170757293701 394.271580422951 M30.73170757293701 394.271580422951 C30.042943380825236 392.9483857377165, 32.4315402203872 395.7533520327548, 60.000000953674316 366.0928294631715 M60.000000953674316 366.0928294631715 C87.29422056010931 392.5162463610393, 87.53498896446129 393.21441677337265, 89.26829433441162 394.271580422951"
              stroke="rgb(0, 0, 0)" stroke-width="1.4563278622580842" fill="none"/>
    </g>
    <g class="text-container" transform="matrix(1, 0, 0, 1, 59.7764, 401)">
        <text font-family="'Arial'" font-size="13px" font-style="normal" font-weight="normal" text-decoration="none"
              text-anchor="middle" fill="rgb(0,0,0)" fill-opacity="1" dy="0.9230769230769231em" transform=""
              style="font-style: normal;font-weight: 400;font-size: 13px;font-family: Comic Sans MS, cursive;"
              stroke="none" stroke-width="1px">User
        </text>
    </g>
    <g>
        <path d="M472.30203609831574 38.08089791273369 C483.28063530254644 40.8646880548989, 492.1588191071503 46.173973020915575, 498.59673397987274 50.54321595127469 C505.0346488525952 54.9124588816338, 510.39665828461375 59.14268264139552, 510.9295253346503 64.29635549488836 C511.46239238468684 69.45002834838121, 508.15901341725714 76.61655113258581, 501.7939362800919 81.46525307223175 C495.4288591429266 86.31395501187768, 483.70947613822153 90.37121906725308, 472.7390625116587 93.38856713276397 C461.76864888509584 96.40591519827485, 449.3263079959983 98.72940358840134, 435.9714545207148 99.5693414652971 C422.6166010454313 100.40927934219286, 405.7502430635254 100.31219953317083, 392.60994165995766 98.42819439413857 C379.46964025638994 96.54418925510632, 366.5804457573405 92.26856118956135, 357.1296460993084 88.26531063110356 C347.6788464412763 84.26206007264577, 340.0889840285366 79.19449204815135, 335.90514371176494 74.40869104339183 C331.7213033949933 69.6228900386323, 330.10254482366344 64.25412860212484, 332.02660419867846 59.55050460254648 C333.9506635736935 54.84688060296813, 339.73637924453396 50.18534247711881, 347.44949996185505 46.18694704592171 C355.16262067917614 42.18855161472462, 366.2526030157962 37.8925572024829, 378.3053285026048 35.560132015363926 C390.35805398941346 33.227706828244955, 405.94780585113296 32.43540836273376, 419.765852882707 32.192395923207876 C433.58389991428106 31.94938348368199, 449.78478829060305 32.28054860419707, 461.2136106920491 34.10205737820861 C472.64243309349513 35.923566152220154, 482.45039512139977 40.620296324874715, 488.33878729138314 43.12144856727713 C494.2271794613665 45.62260080967954, 498.07841338834453 49.04265846310149, 496.5439637119495 49.10897083262308"
              stroke="none" stroke-width="0" fill="rgb(117, 239, 217)"/>
        <path d="M435.3046609134372 31.438067862764882 C448.2689420372418 31.84285422992776, 463.3861095291271 36.3459959095725, 474.3330559030242 39.21914955700048 C485.2800022769213 42.092303204428454, 495.17520807475614 44.19751733657266, 500.98633915682 48.67698974733274 C506.7974702388839 53.15646215809282, 509.51934971069187 60.61959039342536, 509.19984239540736 66.09598402156098 C508.88033508012285 71.5723776496966, 505.2829231489263 76.93438717611926, 499.06929526511294 81.53535151614646 C492.8556673812996 86.13631585617367, 482.81713855604386 90.92710813213415, 471.9180750925273 93.70177006172418 C461.0190116290108 96.4764319913142, 447.1935581232363 97.88661082716318, 433.67491448401364 98.18332309368665 C420.156270844791 98.48003536021012, 403.8208988034293 97.24835149765799, 390.80621325719136 95.48204366086497 C377.7915277109534 93.71573582407196, 365.2981770978101 91.10051761553154, 355.58680120658585 87.58547607292854 C345.8754253153616 84.07043453032554, 336.4638283439637 79.20151401451947, 332.5379579098459 74.39179440524698 C328.61208747572806 69.58207479597449, 329.5726629243739 63.708991674737746, 332.0315786018789 58.72715841729358 C334.4904942793839 53.745325159849415, 339.3102847531223 48.58003290625087, 347.2914519748757 44.500794860581976 C355.27261919662914 40.42155681491308, 367.2066949969492 36.325711275945444, 379.91858193239955 34.25173014328021 C392.6304688678499 32.17774901061498, 413.0445064780798 32.58076937376887, 423.56277358757796 32.0569080645906 C434.0810406970761 31.53304675541234, 439.047977919749 30.747928590040633, 443.02818458938833 31.108562288210635 C447.0083912590277 31.469195986380637, 447.84659734228717 33.50769193531418, 447.4440136054143 34.220710253610605"
              stroke="rgb(0, 0, 0)" stroke-width="1" fill="none"/>
    </g>
    <g class="text-container" transform="matrix(1, 0, 0, 1, 418.801, 49.0737)">
        <text font-family="'Arial'" font-size="13px" font-style="normal" font-weight="normal" text-decoration="none"
              text-anchor="middle" fill="rgb(0,0,0)" fill-opacity="1" transform=""
              style="font-style: normal;font-weight: 400;font-size: 13px;font-family: Comic Sans MS, cursive;"
              stroke="none" stroke-width="1px">
            <tspan dy="0.9230769230769231em" x="0">Request meal plan</tspan>
            <tspan dy="1.5em" x="0">of a day</tspan>
        </text>
    </g>
    <g>
        <path d="M593.2075217959955 169.45395532626688 C606.8580883304014 168.0184427325297, 625.7425848209957 167.68374285291765, 640.1706144069817 169.5418244577913 C654.5986439929677 171.39990606266497, 669.3471866917007 176.58042888386805, 679.7756993119115 180.60244495550876 C690.2042119321222 184.62446102714947, 698.2834962727196 188.95283568256428, 702.741690128246 193.6739208876356 C707.1998839837723 198.39500609270692, 708.8729245884342 203.67250241562002, 706.5248624450699 208.92895618593664 C704.1768003017055 214.18540995625327, 697.6957618583104 221.03504289807225, 688.6533172680595 225.2126435095353 C679.6108726778085 229.39024412099835, 665.9876438625694 231.77641729641675, 652.2701949035638 233.994559854715 C638.5527459445583 236.21270241301323, 621.05565580188 238.15043552054217, 606.3486235140265 238.52149885932468 C591.641591226173 238.89256219810719, 577.1252194645176 238.79133440886355, 564.0280011764424 236.22093988740997 C550.9307828883673 233.6505453659564, 536.4826406743847 227.76934875113102, 527.7653137855754 223.09913173060323 C519.047986896766 218.42891471007545, 513.6494367443929 213.19260013131068, 511.7240398435863 208.1996377642432 C509.7986429427797 203.2066753971757, 511.5641874028651 197.91682024901937, 516.2129323807355 193.14135752819826 C520.8616773586059 188.36589480737715, 528.8907683530567 183.48898254929827, 539.6165097108087 179.54686143931656 C550.3422510685607 175.60474032933485, 566.753530263607 171.08962717186301, 580.5673805272477 169.48863086830806 C594.3812307908884 167.8876345647531, 610.9175089470674 169.6012402328314, 622.4996112926532 169.9408836179869 C634.081713638239 170.28052700314242, 650.2378953962457 171.13048297246715, 650.0599946007621 171.52649117924113 M568.0789245019266 173.80117666318205 C580.3591217730627 171.9604988313981, 598.2402978882076 171.37354556934946, 613.2387765037794 171.2239409818237 C628.2372551193512 171.07433639429792, 645.3041629953836 170.83284321446752, 658.0697961953574 172.90354913802747 C670.8354293953312 174.97425506158743, 681.5266771337422 178.76861510410268, 689.8325757036216 183.64817652318334 C698.1384742735011 188.527737942264, 706.3882298736146 196.8457554623399, 707.9051876146339 202.18091765251143 C709.4221453556531 207.51607984268296, 704.7226508107652 210.90418856317638, 698.9343221497376 215.6591496642125 C693.1459934887099 220.4141107652486, 683.7479539491953 226.9488914818024, 673.1752156484681 230.71068425872812 C662.6024773477409 234.47247703565384, 649.4829241462787 236.9673550116151, 635.4978923453743 238.22990632576685 C621.51286054447 239.4924576399186, 604.1890219472833 239.1783751943712, 589.265024843042 238.28599214363862 C574.3410277388008 237.39360909290605, 557.9008535777896 235.82888758528182, 545.953909719927 232.87560802137142 C534.0069658620644 229.92232845746102, 523.1643350491056 225.8562876521767, 517.5833616958664 220.56631476017623 C512.0023883426272 215.27634186817576, 511.07653981328247 206.62835064111886, 512.4680696004921 201.1357706693686 C513.8595993877017 195.64319069761837, 518.9803061877307 191.81151161259785, 525.932540419124 187.6108349296747 C532.8847746505174 183.41015824675154, 547.0904004875066 178.70302646870084, 554.1814749888526 175.93171057182965 C561.2725494901987 173.16039467495847, 566.0345074052889 171.65859710046203, 568.4789874272002 170.98293954844752 C570.9234674491115 170.307281996433, 567.9707972311099 171.5142693461979, 568.8483551203204 171.87776525974266"
              stroke="none" stroke-width="0" fill="rgb(117, 239, 217)"/>
        <path d="M613.6269303043039 167.74413780258303 C627.7891934676056 167.43432330497427, 644.634182494794 171.31416535442526, 657.471055815574 174.36082266092853 C670.307929136354 177.4074799674318, 682.5368605050653 181.5617459395947, 690.6481702289839 186.0240816416027 C698.7594799529024 190.4864173436107, 704.3477614275081 196.00383952040832, 706.1389141590855 201.13483687297648 C707.9300668906629 206.26583422554464, 706.5331439742318 211.84860612303993, 701.3950866184484 216.8100657570117 C696.257029262665 221.77152539098347, 686.637015563167 227.52415244894405, 675.3105700243848 230.90359467680705 C663.9841244856026 234.28303690467004, 648.0524430965897 235.79503551837217, 633.4364133857555 237.08671912418973 C618.8203836749212 238.37840273000728, 602.0119119899889 239.55253133229408, 587.614391759379 238.65369631171242 C573.2168715287692 237.75486129113077, 558.5521642683991 234.97207308900522, 547.0512920020964 231.69370900069976 C535.5504197357936 228.4153449123943, 524.7435661469641 224.168903528584, 518.6091581615624 218.98351178187954 C512.4747501761607 213.7981200351751, 509.46484134844195 206.03531808892106, 510.2448440896863 200.58135852047312 C511.02484683093064 195.12739895202517, 515.5296708580905 190.52937705668813, 523.2891746090285 186.2597543711919 C531.0486783599664 181.99013168569564, 544.084483334724 177.9847620330243, 556.8018665953142 174.96362240749573 C569.5192498559044 171.94248278196716, 588.0091732544556 169.12451634629025, 599.5934741725692 168.1329166180205 C611.1777750906829 167.14131688975073, 620.2737242077711 168.35818975550106, 626.3076721039963 169.01402403787725 C632.3416200002215 169.66985832025344, 636.4189542157994 171.39246695442125, 635.7971615499202 172.06792231227766 M625.8258334660749 167.9252567500748 C639.7140700803262 168.21701465546943, 655.2503504642407 172.95754305019034, 667.4716580133776 176.26732563807036 C679.6929655625145 179.57710822595038, 692.3149380904661 182.88194228522374, 699.1536787608962 187.78395227735496 C705.9924194313264 192.68596226948617, 709.0055624367951 199.88811559908828, 708.5041020359586 205.6793855908577 C708.002641635122 211.4706555826271, 703.1603688428557 217.77334487687068, 696.1449163558771 222.53157222797145 C689.1294638688984 227.28979957907222, 678.6657050871651 231.49697939591192, 666.4113871140863 234.22874969746232 C654.1570691410076 236.96051999901272, 637.4006835491641 238.15155878511825, 622.6190085174045 238.92219403727384 C607.8373334856449 239.69282928942943, 591.992160279832 240.75120610686332, 577.7213369235287 238.8525612103958 C563.4505135672255 236.9539163139283, 547.1660468726474 231.6665434995575, 536.9940683795853 227.5303246584687 C526.8220898865233 223.39410581737988, 520.8878765517891 219.15608741861644, 516.6894659651565 214.03524816386295 C512.4910553785239 208.91440890910945, 509.4594150613583 202.12836007268987, 511.8036048597898 196.80528912994768 C514.1477946582213 191.4822181872055, 521.7225844158404 186.52628124664025, 530.7546047557456 182.09682250740977 C539.7866250956508 177.66736376817929, 552.5859203104367 172.33725015514196, 565.9957268992212 170.22853669456472 C579.4055334880056 168.1198232339875, 601.6131355925437 169.3118035826264, 611.2134442884526 169.4445417439463 C620.8137529843615 169.5772799052662, 621.0259600401541 170.89847370405636, 623.5975790746747 171.02496566248408 C626.1691981091953 171.1514576209118, 626.527721594821 170.20561564229854, 626.6431584955761 170.20349349451263"
              stroke="rgb(0, 0, 0)" stroke-width="1" fill="none"/>
    </g>
    <g class="text-container" transform="matrix(1, 0, 0, 1, 608.169, 196.037)">
        <text font-family="'Arial'" font-size="13px" font-style="normal" font-weight="normal" text-decoration="none"
              text-anchor="middle" fill="rgb(0,0,0)" fill-opacity="1" dy="0.9230769230769231em" transform=""
              style="font-style: normal;font-weight: 400;font-size: 13px;font-family: Comic Sans MS, cursive;"
              stroke="none" stroke-width="1px">Request a meal
        </text>
    </g>
    <g>
        <path d="M388.1704948728806 409.06773854454343 C399.7098840532292 406.6634643190504, 416.743494964824 406.7912751198365, 429.82393401338317 407.7259411968553 C442.90437306194235 408.66060727387406, 455.68687822530904 411.48387239143324, 466.6531291642359 414.67573500665617 C477.61938010316277 417.8675976218791, 488.9532733731773 422.16481016370415, 495.6214396469442 426.8771168881927 C502.28960592071115 431.58942361268123, 506.0701747160634 437.721435351245, 506.6621268068376 442.9495753535874 C507.2540788976118 448.1777153559298, 504.3650975957453 453.4722512403734, 499.1731521915896 458.2459569022472 C493.98120678743396 463.019662564121, 485.96599025363304 468.17942232681065, 475.5104543819036 471.59180932483036 C465.0549185101742 475.0041963228501, 449.6818584827789 477.84654526828206, 436.43993696121305 478.72027889036553 C423.1980154396472 479.594012512449, 408.48028810523044 478.27331463074967, 396.0589252525085 476.83421105733123 C383.6375623997866 475.3951074839128, 371.71488742433286 473.4953693095172, 361.91175984488154 470.0856574498549 C352.10863226543023 466.67594559019267, 342.20047623131063 461.43359218563006, 337.2401597758005 456.37593989935766 C332.2798433202904 451.31828761308526, 330.25233494875596 445.3942500879542, 332.149861111821 439.7397437322205 C334.04738727488603 434.0852373764868, 341.0406739349129 426.9419416520316, 348.6253167541907 422.4489017649554 C356.2099595734685 417.9558618778792, 369.9173369095603 414.78795296564164, 377.65771802748793 412.7815044097634 C385.3980991454156 410.77505585388514, 391.3770484782867 411.2286333630422, 395.0676034617565 410.41021042968583 C398.7581584452263 409.59178749632946, 399.38108171980264 407.7109136679712, 399.8010479283067 407.8709668096252"
              stroke="none" stroke-width="0" fill="rgb(117, 239, 217)"/>
        <path d="M429.06834557971035 407.9468598651334 C441.67863609959034 408.08690377269903, 457.50472781968057 411.6149528957851, 468.61229558624444 414.4904064238376 C479.7198633528083 417.3658599518901, 489.48471979003864 420.62003697435017, 495.7137521790936 425.19958103344834 C501.94278456814857 429.7791250925465, 505.31278341635596 436.5823649543976, 505.98648992057434 441.96767077842674 C506.66019642479273 447.3529766024559, 504.989484358037 452.73933788501097, 499.7559912044041 457.51141597762313 C494.5224980507712 462.2834940702353, 484.9489644184668 467.4131933492385, 474.5855309987772 470.6001393340997 C464.2220975790876 473.7870853189609, 450.6451493897252 475.6398029145819, 437.5753906862663 476.6330918867904 C424.5056319828074 477.6263808589989, 408.9108989414714 477.96183750136294, 396.16697877802375 476.55987316735076 C383.4230586145761 475.1579088333386, 370.833110003319 472.0607832675591, 361.1118697055805 468.2213058827172 C351.39062940784197 464.38182849787535, 342.1557325212362 458.2478829206562, 337.8395369915925 453.5230088582996 C333.52334146194886 448.798134795943, 333.72894683270016 444.944685081784, 335.2146965277186 439.8720615085777 C336.70044622273707 434.79943793537143, 339.7756812319859 427.6923437419028, 346.75403516170314 423.08726741906213 C353.7323890914204 418.48219109622147, 365.49425446894185 415.04311113635094, 377.0848201060219 412.24160357153363 C388.6753857431019 409.4400960067163, 404.8786113531363 406.91916117511, 416.2974289841834 406.2782220301584 C427.7162466152305 405.63728288520684, 438.04289086172696 407.34794982921716, 445.5977258923043 408.3959687018241 C453.15256092288166 409.443987574431, 461.8892118696026 412.0652252095921, 461.62643916764756 412.56633526580003"
              stroke="rgb(0, 0, 0)" stroke-width="1" fill="none"/>
    </g>
    <g class="text-container" transform="matrix(1, 0, 0, 1, 419.277, 435.037)">
        <text font-family="'Arial'" font-size="13px" font-style="normal" font-weight="normal" text-decoration="none"
              text-anchor="middle" fill="rgb(0,0,0)" fill-opacity="1" dy="0.9230769230769231em" transform=""
              style="font-style: normal;font-weight: 400;font-size: 13px;font-family: Comic Sans MS, cursive;"
              stroke="none" stroke-width="1px">Request a unit
        </text>
    </g>
    <g>
        <path d="M622.4138109766535 267.13137544614176 C635.4220917886529 267.3845972596588, 649.8580509518899 270.55375720083475, 660.7689303132607 273.8370653606574 C671.6798096746315 277.12037352048003, 681.5094928698694 281.6160934077956, 687.8790871448783 286.8312244050775 C694.2486814198872 292.0463554023594, 698.9393709667557 299.51484956360804, 698.986495963314 305.1278513443487 C699.0336209598723 310.74085312508936, 694.2159086001118 315.95877861985696, 688.1618371242279 320.5092350895213 C682.107765648344 325.0596915591857, 673.4840462859563 329.04993634224473, 662.6620671080109 332.43059016233474 C651.8400879300655 335.81124398242474, 636.7763853658339 339.6675709331611, 623.229962056555 340.79315801006135 C609.6835387472761 341.9187450869616, 593.962656363098 340.7717660617598, 581.3835272523373 339.1841126237364 C568.8043981415767 337.59645918571294, 557.3040074530676 335.25329559342794, 547.7551873919916 331.2672373819207 C538.2063673309157 327.2811791704135, 528.5429105244041 320.54398894305933, 524.0906068858818 315.267763354693 C519.6383032473595 309.99153776632664, 518.8117227192748 305.2462271620248, 521.0413655608584 299.6098838517227 C523.2710084024419 293.9735405414206, 529.4146474582968 286.35515928600387, 537.468463935383 281.44970349288053 C545.5222804124693 276.5442476997572, 557.5028853286078 272.48963607085483, 569.364264423376 270.17714909298275 C581.2256435181441 267.86466211511066, 598.9716083272475 267.99447489097224, 608.6367385039922 267.57478162564803 C618.3018686807369 267.1550883603238, 624.0467365419506 267.3587686910921, 627.3550454838442 267.6589895010375 C630.6633544257377 267.95921031098294, 628.932832266209 268.4647583284351, 628.4865921553533 269.3761064853205"
              stroke="none" stroke-width="0" fill="rgb(117, 239, 217)"/>
        <path d="M666.0126248816134 276.65636164915435 C676.3228445298142 279.9529702272942, 685.1987097559727 286.073110920542, 690.6461089788584 291.04665238024063 C696.093508201744 296.0201938399393, 699.8313340461655 301.133743125455, 698.6970202189277 306.4976104073463 C697.56270639169 311.86147768923763, 691.0132075514413 318.40777419385944, 683.8402260154315 323.2298560715884 C676.6672444794218 328.0519379493174, 667.0697850286276 332.5270479152425, 655.6591310028696 335.4301016737203 C644.2484769771115 338.33315543219805, 628.7466266343793 340.1203980644493, 615.376301860883 340.6481786224552 C602.0059770873868 341.17595918046106, 587.960909808527 341.0049200597109, 575.4371823618924 338.5967850217557 C562.9134549152577 336.1886499838005, 548.844269355707 330.4124071905352, 540.2339371810751 326.1993683947238 C531.6236050064433 321.98632959891245, 526.5901276328175 318.65764630448325, 523.7751893141012 313.3185522468873 C520.960250995385 307.97945818929134, 520.2825504340922 299.66767035857555, 523.3443072687778 294.16480404914824 C526.4060641034635 288.66193773972094, 533.3369492659812 284.2601722630428, 542.1457303222151 280.3013543903235 C550.954511378449 276.34253651760423, 563.5891059351441 272.39805323037683, 576.1969936061814 270.4118968128325 C588.8048812772188 268.42574039528813, 604.6113818019676 267.77444772208514, 617.7930563484389 268.3844158850576 C630.9747308949102 268.99438404803004, 644.6707872933517 271.7147841047697, 655.287040885009 274.0717057906671 C665.9032944766662 276.42862747656454, 675.8498637365043 279.6455079605651, 681.4905778983823 282.52594600044193 C687.1312920602603 285.40638404031876, 690.6422245714319 290.7954672703454, 689.131325856277 291.3543340299281"
              stroke="rgb(0, 0, 0)" stroke-width="1" fill="none"/>
    </g>
    <g class="text-container" transform="matrix(1, 0, 0, 1, 607.873, 296.037)">
        <text font-family="'Arial'" font-size="13px" font-style="normal" font-weight="normal" text-decoration="none"
              text-anchor="middle" fill="rgb(0,0,0)" fill-opacity="1" dy="0.9230769230769231em" transform=""
              style="font-style: normal;font-weight: 400;font-size: 13px;font-family: Comic Sans MS, cursive;"
              stroke="none" stroke-width="1px">Request a unit location
        </text>
    </g>
    <g>
        <path d="M978.7887713652991 225.13867212798746 C989.4105227709385 227.74473243469566, 999.249902237656 232.4681615221081, 1004.3374965344699 237.24420165548216 C1009.4250908312838 242.02024178885623, 1009.9892046476202 248.343634398569, 1009.3143371461823 253.79491292823184 C1008.6394696447444 259.24619145789467, 1006.524027425465 265.2788679247364, 1000.2882915258427 269.9518728334592 C994.0525556262205 274.62487774218204, 982.656994843415 279.1403869757786, 971.8999217484487 281.8329423805686 C961.1428486534825 284.52549778535865, 948.4365662315145 285.88952180292506, 935.745852956045 286.1072052621995 C923.0551396805756 286.32488872147394, 908.3159536855063 285.1546277646447, 895.7556420956321 283.13904313621515 C883.1953305057579 281.1234585077856, 869.3133001445769 277.9014803295685, 860.3839834167998 274.0136974916222 C851.4546666890226 270.1259146536759, 845.3891020021142 264.5274385111015, 842.1797417289689 259.8123461085374 C838.9703814558236 255.0972537059733, 838.5867110062846 250.42066032045963, 841.1278217779283 245.72314307623765 C843.6689325495719 241.02562583201566, 849.1066739274139 235.57983924764585, 857.4264063588308 231.62724264320553 C865.7461387902478 227.67464603876522, 879.0759427977704 224.39839564143102, 891.0462163664299 222.00756344959566 C903.0164899350895 219.6167312577603, 916.6101900603684 217.05142983050933, 929.2480477707878 217.28224949219333 C941.8859054812073 217.51306915387732, 956.7925442072819 221.64753908986128, 966.8733626289466 223.39248141969955 C976.9541810506112 225.13742374953782, 985.0583688931678 225.82155665600334, 989.7329583007754 227.75190347122296 C994.407547708383 229.68225028644258, 996.2392993257059 234.4329913809362, 994.9208990745925 234.9745623110173"
              stroke="none" stroke-width="0" fill="rgb(117, 239, 217)"/>
        <path d="M881.3595734780455 222.78000523683875 C891.118722883389 220.01335024397008, 906.8236918210629 218.39508462987328, 919.9501794680411 217.92605150590776 C933.0766671150194 217.45701838194225, 948.2749444123374 217.73445527977825, 960.1184993599152 219.9658064930457 C971.962054307493 222.19715770631316, 982.7187942117052 227.14822367060793, 991.0115091535081 231.3141587855125 C999.3042240953109 235.48009390041705, 1007.2252926917325 239.93045421517655, 1009.8747890107322 244.96141718247313 C1012.5242853297319 249.9923801497697, 1010.3766656146106 256.4992341622073, 1006.9084870675061 261.49993658929196 C1003.4403085204017 266.5006390163766, 997.7106640950849 271.4872457154352, 989.0657177281058 274.96563174498124 C980.4207713611268 278.44401777452725, 967.248835831242 280.4090272093543, 955.038808865632 282.3702527665681 C942.8287819000219 284.33147832378194, 928.5204607565296 287.08056760270796, 915.8055559344457 286.73298508826406 C903.0906511123618 286.38540257382016, 889.8562655124928 283.37452572689676, 878.7493799331287 280.2847576799048 C867.6424943537646 277.1949896329129, 855.5515023653788 272.61250158615775, 849.1642424582615 268.19437680631256 C842.7769825511441 263.7762520264674, 841.015676050883 259.0505835378369, 840.4258204904248 253.7760090008338 C839.8359649299666 248.50143446383066, 840.4134073074905 241.23433989187697, 845.6251090955119 236.54692958429368 C850.8368108835333 231.8595192767104, 865.2073766889266 228.1094093523631, 871.6960312185532 225.651547155334 C878.1846857481798 223.19368495830489, 881.4116785446079 222.23286889812317, 884.5570362732714 221.79975640211904 C887.7023940019349 221.36664390611492, 889.8669212395298 222.41208487997744, 890.5681775905339 223.0528721793092"
              stroke="rgb(0, 0, 0)" stroke-width="1" fill="none"/>
    </g>
    <g class="text-container" transform="matrix(1, 0, 0, 1, 924.396, 244.037)">
        <text font-family="'Arial'" font-size="13px" font-style="normal" font-weight="normal" text-decoration="none"
              text-anchor="middle" fill="rgb(0,0,0)" fill-opacity="1" dy="0.9230769230769231em" transform=""
              style="font-style: normal;font-weight: 400;font-size: 13px;font-family: Comic Sans MS, cursive;"
              stroke="none" stroke-width="1px">Load prices
        </text>
    </g>
    <g>
        <path d="M396.8073716750171 589.6031190295836 C409.8491220520184 587.6059284727055, 428.3984373137114 588.802768196879, 442.4689601430559 590.0838003156279 C456.5394829724004 591.3648324343767, 470.0998701962594 593.7565207889312, 481.230508651084 597.289311742077 C492.36114710590857 600.8221026952227, 503.3239202010651 606.6321976950339, 509.2527908720033 611.2805460345023 C515.1816615429415 615.9288943739707, 517.7047499392464 620.0518010239819, 516.8037326767131 625.1794017788876 C515.9027154141799 630.3070025337934, 511.3736801569243 637.2539909821896, 503.8466872968035 642.046150563937 C496.3196944366827 646.8383101456843, 484.40434561551064 651.4508729983643, 471.64177551598823 653.932359269372 C458.8792054164658 656.4138455403797, 442.1695878162817 656.6756319156768, 427.2712666996691 656.9350681899832 C412.37294558305655 657.1945044642896, 395.893223622311 657.5079650483291, 382.2518488163129 655.4889769152102 C368.61047401031476 653.4699887820913, 354.93584659254714 648.7008411836432, 345.4230178636806 644.8211393912696 C335.9101891348141 640.9414375988961, 328.550259132093 637.1451976192999, 325.17487644311376 632.2107661609689 C321.7994937541345 627.2763347026379, 321.4975449103167 620.2613455128142, 325.1707217298053 615.2145506412835 C328.84389854929384 610.1677557697528, 337.7548298161939 605.6961640815903, 347.21393736004507 601.9299969317849 C356.67304490389625 598.1638297819795, 368.1149780026365 594.6982823641767, 381.9253669929123 592.6175477424515 C395.7357559831881 590.5368131207263, 416.8555840274162 589.26207485703, 430.0762713016998 589.4455892014333 C443.2969585759834 589.6291035458366, 461.4709467766868 592.8952408475062, 461.24949063861385 593.7186338088716"
              stroke="none" stroke-width="0" fill="rgb(246, 246, 246)"/>
        <path d="M391.1474964766344 590.9279349271264 C404.0263305233729 588.7712645201651, 422.289641339351 587.9183719498279, 436.74706729584784 588.8686905283386 C451.20449325234466 589.8190091068492, 466.0850539107202 593.3030953429674, 477.8920522156153 596.62984639819 C489.6990505205104 599.9565974534127, 501.1331004256625 604.3195617335318, 507.58905712521835 608.8291968596745 C514.0450138247742 613.3388319858173, 517.0457125940909 618.3101572046902, 516.6277924129504 623.6876571550463 C516.2098722318099 629.0651571054024, 512.3176172744993 636.3362897931191, 505.0815360383756 641.0941965618108 C497.8454548022519 645.8521033305025, 485.23224017229063 649.2446775294609, 473.2113049962081 652.2350977671965 C461.1903698201256 655.2255180049322, 447.5210726558176 658.2685303681794, 432.95592498188074 659.0367179882244 C418.3907773079439 659.8049056082693, 399.72044097284333 659.0014736571954, 385.8204189525869 656.8442234874665 C371.9203969323305 654.6869733177375, 359.2169106958879 650.2234007882954, 349.5557928603422 646.0932169698508 C339.89467502479647 641.9630331514062, 331.67959955533274 636.6162397515511, 327.8537119393125 632.0631205767986 C324.0278243232923 627.5100014020461, 323.89567001374434 623.7101082321743, 326.60046716422085 618.7745019213356 C329.30526431469735 613.8388956104969, 335.15928900436194 606.7241941403743, 344.08249484217157 602.4494827117663 C353.0057006799812 598.1747712831584, 371.3914990392126 595.2850763535708, 380.1397021910785 593.1262333496883 C388.88790534294446 590.9673903458057, 393.3629141876732 589.7625139311006, 396.5717137533671 589.4964246884708 C399.78051331906096 589.2303354458411, 398.8474591640768 590.8663646162704, 399.3924995852419 591.52969789391"
              stroke="rgb(0, 0, 0)" stroke-width="1" fill="none"/>
    </g>
    <g class="text-container" transform="matrix(1, 0, 0, 1, 419.478, 616.037)">
        <text font-family="'Arial'" font-size="13px" font-style="normal" font-weight="normal" text-decoration="none"
              text-anchor="middle" fill="rgb(0,0,0)" fill-opacity="1" dy="0.9230769230769231em" transform=""
              style="font-style: normal;font-weight: 400;font-size: 13px;font-family: Comic Sans MS, cursive;"
              stroke="none" stroke-width="1px">Add a comment
        </text>
    </g>
    <g>
        <path d="M586.4622590025419 456.2785050631415 C598.1886641882746 454.6011970668503, 612.8518246584786 456.03120673099716, 625.8365505917128 456.97204490648375 C638.821276524947 457.91288308197034, 653.9707297272879 458.54130848913996, 664.3706146019474 461.923534116061 C674.7704994766069 465.305759742982, 682.7886782731088 471.903903077572, 688.23585983967 477.2653986680099 C693.6830414062312 482.62689425844775, 697.5524650439535 488.36118858774245, 697.0537040013147 494.09250765868825 C696.554942958676 499.82382672963405, 692.2190101644865 506.7182573123864, 685.2432935838374 511.65331309368463 C678.2675770031883 516.5883688749828, 666.3334598310336 520.803753422389, 655.1994045174199 523.7028423464776 C644.0653492038062 526.6019312705662, 631.5048966654188 528.3823334434935, 618.4389617021553 529.0478466382159 C605.3730267388919 529.7133598329383, 589.1648554382331 529.9539459717588, 576.8037947378396 527.6959215148119 C564.442734037446 525.4378970578649, 552.8715235531167 519.927332538822, 544.2725974997942 515.4996998965343 C535.6736714464716 511.0720672542465, 528.8303089743598 506.1395953550466, 525.2102384179044 501.13012566108534 C521.590167861449 496.1206559671241, 519.6539888928324 490.70240678300195, 522.552174161062 485.44288173276664 C525.4503594292916 480.1833566825313, 534.025663581841 474.0396427168875, 542.5993500272816 469.57297535967365 C551.1730364727223 465.1063080024598, 562.7082660660433 461.3491350700351, 573.9942928337064 458.6428775894834 C585.2803196013695 455.9366201089317, 600.3216137548 453.72000916735107, 610.31551063326 453.3354304763636 C620.3094075117201 452.9508517853762, 633.9027973236681 455.2523649919733, 633.957674104467 456.33540544355884"
              stroke="none" stroke-width="0" fill="rgb(246, 246, 246)"/>
        <path d="M630.9349409306202 455.43689810051654 C643.2393857792675 456.5494503909207, 656.7787811993793 461.79293731596863, 666.9620513019971 465.96859692357094 C677.145321404615 470.14425653117326, 687.1535546260079 475.2244485147445, 692.0345615463274 480.49085574613036 C696.9155684666468 485.75726297751623, 698.0485571858042 492.14458662122547, 696.248092823914 497.56704031188616 C694.4476284620239 502.98949400254685, 688.652699620788 508.5282396485635, 681.2317753749866 513.0255778900946 C673.8108511291852 517.5229161316257, 663.0067372800994 521.7276455783053, 651.7225473491054 524.551069761073 C640.4383574181114 527.3744939438407, 626.8525666411148 529.5840773068469, 613.5266357890226 529.9661229867006 C600.2007049369305 530.3481686665543, 583.7535137366527 529.4695187952941, 571.7669622365523 526.8433438401953 C559.7804107364519 524.2171688850965, 549.7249561536302 518.7062143751576, 541.6073267884204 514.2090732561079 C533.4896974232107 509.7119321370581, 525.7567334153515 505.3416985492565, 523.0611860452938 499.8604971258967 C520.365638675236 494.3792957025369, 521.7378974703187 486.8687268272609, 525.4340425680742 481.3218647159492 C529.1301876658298 475.77500260463745, 536.0804213454696 470.8941405811745, 545.2380566318269 466.57932445802624 C554.3956919181842 462.264508334878, 568.080337343246 457.5631135713398, 580.3798542862179 455.4329679770596 C592.6793712291898 453.3028223827794, 607.3268909529631 453.05944905098374, 619.0351582896579 453.7984508923452 C630.7434256263527 454.5374527337067, 643.2790299312561 458.09584229134725, 650.6294583063866 459.8669790252283 C657.9798866815171 461.6381157591094, 664.1102443018274 463.931691624501, 663.1377285404411 464.4252712956315"
              stroke="rgb(0, 0, 0)" stroke-width="1" fill="none"/>
    </g>
    <g class="text-container" transform="matrix(1, 0, 0, 1, 607.436, 484.037)">
        <text font-family="'Arial'" font-size="13px" font-style="normal" font-weight="normal" text-decoration="none"
              text-anchor="middle" fill="rgb(0,0,0)" fill-opacity="1" dy="0.9230769230769231em" transform=""
              style="font-style: normal;font-weight: 400;font-size: 13px;font-family: Comic Sans MS, cursive;"
              stroke="none" stroke-width="1px">upload an image
        </text>
    </g>
</svg>